/* XPM */
static char *result[] = {
/* columns rows colors chars-per-pixel */
"50 50 131 2 ",
"   c #723B12",
".  c #6D471D",
"X  c #78461C",
"o  c #5D621D",
"O  c #67691F",
"+  c #465334",
"@  c #714520",
"#  c #6F5328",
"$  c #69542A",
"%  c #6C5332",
"&  c #775731",
"*  c #4C6B38",
"=  c #576E3E",
"-  c #586A3F",
";  c #5F783D",
":  c #757624",
">  c #72792A",
",  c #686733",
"<  c #77633B",
"1  c #7A7835",
"2  c #3D5641",
"3  c #425E58",
"4  c #496344",
"5  c #4A6B4D",
"6  c #536959",
"7  c #7C6846",
"8  c #72744D",
"9  c #7B794D",
"0  c #415D6B",
"q  c #4F6961",
"w  c #916730",
"e  c #9E7F3E",
"r  c #5F8B51",
"t  c #658146",
"y  c #658C54",
"u  c #6B8F55",
"i  c #6B9353",
"p  c #6C9B5A",
"a  c #759752",
"s  c #739F5E",
"d  c #73A85F",
"f  c #729F62",
"g  c #78AF69",
"h  c #7AB26A",
"j  c #7DDB7C",
"k  c #918A2C",
"l  c #939529",
"z  c #A18A22",
"x  c #BA8725",
"c  c #AFA32B",
"v  c #C58039",
"b  c #D1A32F",
"n  c #DEAC36",
"m  c #DBBD3E",
"M  c #E2B12C",
"N  c #E5CC2F",
"B  c #BB964F",
"V  c #82AD65",
"C  c #83AC68",
"Z  c #84B36B",
"A  c #88B971",
"S  c #D9BC45",
"D  c #D3BB5C",
"F  c #8AC677",
"G  c #8BCA77",
"H  c #98CD7B",
"J  c #85D67B",
"K  c #8CD67B",
"L  c #83DB7C",
"P  c #8CDB7C",
"I  c #91D77C",
"U  c #92DC7E",
"Y  c #98DD7F",
"T  c #86E07F",
"R  c #89E07F",
"E  c #99E07F",
"W  c #DCC646",
"Q  c #DDC452",
"!  c #D9C061",
"~  c #465CAA",
"^  c #4062A2",
"/  c #4E6DC9",
"(  c #5D7DC0",
")  c #5A78E8",
"_  c #6C85BE",
"`  c #7DDC83",
"'  c #6387D0",
"]  c #688CF3",
"[  c #6D9DFE",
"{  c #939C9B",
"}  c #8293B5",
"|  c #84DD84",
" . c #8CDD84",
".. c #92DE84",
"X. c #9ADE82",
"o. c #94DE8F",
"O. c #9CDC8F",
"+. c #97DE93",
"@. c #9BDE92",
"#. c #86E084",
"$. c #8DE285",
"%. c #8FE18F",
"&. c #94E385",
"*. c #9BE485",
"=. c #96E885",
"-. c #9CEA86",
";. c #96E58A",
":. c #9CE689",
">. c #9DEA89",
",. c #8FE191",
"<. c #94E294",
"1. c #9BE595",
"2. c #95E298",
"3. c #9EE599",
"4. c #A2E485",
"5. c #A1EA86",
"6. c #A5E789",
"7. c #A8E78A",
"8. c #A4EB8B",
"9. c #ABEC8D",
"0. c #B0EF8F",
"q. c #AEF08D",
"w. c #B3F18F",
"e. c #A7E897",
"r. c #AEEE90",
"t. c #A2E598",
"y. c #AAE698",
"u. c #A1E898",
"i. c #B1E898",
"p. c #AAF090",
"a. c #B4F390",
/* pixels */
"$.#.| | | | | ` ` ` #.#.` ` #.#.` ` ` ` j L T P P P L L j j j j L L j j L K K I U E =.*.*... .|  .3.",
"#.| | |  .%.| ` ` ` #.#.#.#.%.#.` ` ` ` j j L L L L j j j j j j L L L L P I P U E R &.&.&.| |  . .u.",
"|  .$.#.#.` ` #.| #.#.&.$.$.#.` ` ` j j T T L L j j j j L L J L L T T P R P E E &.X.*... .o. .| $.u.",
"| |  .#.` ` #.#.#.#.$.$.$.$.#.` ` ` j #.&.&.R j j j j j L P P L P L L P E E E R &.*.&... . . . .#.3.",
"| | ` ` ` ` #.#.#.&.$.&.&.$.$.#.#.$.=.$.$.#.j j j j T R R R R P P L P P P E U E E U U P .. . .$.L <.",
"| | ` | #.#.$.$.&.&.&.&.=.&.$.#.$.=.=.$.| ` | j T R R $.R L L P L P R P R E &.*.E P U P  .&. .| | 1.",
"` | | #.#.$.$.=.&.*.*.*.*.=.&.&.=.$.#.` ` L #.#.#.$.#.#.j T L P P P P P &.*.*.&.U R U U &...| | #.3.",
"L |  .$.$.$.$.$.*.*.*.:.-.-.:.=.$.#.| ` #.#.$.$.$.#.T j L T R T | P &.*.*.*.&.I K P ..&.&... .$.#.1.",
"| |  .&.$. .$...*.*.=.-.8.>.8.;.&.| #.#.$.&.$.$.#.| | |  . . .| | &.X.*.*...I P J  .X.*.*.&.&.$.#.1.",
"| &.#.#. ...o.*.*.*.-.-.>.8.>.=.$.$.#.&.&.&.#.| | |  . ...&.$.%.&.*.*.X.X.K L P U X.4.4.4.&. . .| 1.",
"$.$.$. . ...&.&.&.=.*.>.8.8.;.&.&.&.$.&.$.$.| |  .| &.&.*.=.;.=.*.*.*.X. .J P U *.4.4.4.*.&. .| | 3.",
"&.$.$. ... . .&.&.-.8.9.8.;.$.&.&.=.=.&.;.;.=.&.&.=.*.*.*.-.>.:.:.X... .| L R *.5.4.4.*.*.&.|  . .t.",
"#. . . . . .#.&.:.8.9.>.=.&.&.*.*.*.=.;.5.>.-.-.-.5.-.-.*.-.-.-.*.X... . . .*.6.6.4.4.*.&.#.$.$.&.u.",
"|  ... .o. .=.-.9.8.;.&.&.&.*.&.&.*.-.8.5.=.8.8.5.5.E -.-.-.-.4.4.*.=.*.:.:.6.8.6.8.:.*.&.$.&.$.$.3.",
"o.....&.$.$.=.*.=.$. . .&.=.&.&.=.>.5.:.=.-.8.5.-.-.5.5.5.9.9.9.X.:.4.6.7.7.e.9.9.5.=.$.$.$.$.#.T 1.",
" . . .| L  .#.$. .|  .&.$.&.=.:.-.>.*.-.-.5.q.5.E -.5.-.-.9.9.5.*.4.7.7.7.r.r.8.8.;.&.&.$.&.&.P L ;.",
"P  .| | | | | #.| $.$.$.&.-.>.8.8.=.*.*.:.9.9.8.-.-.-.-.q.9.8.-.5.9.0.9.r.9.8.8.=.&.$.$.$.&.&. .J o.",
"L P | | | | | $.&.&.&.=.-.5.9.5.*.=.*.>.9.9.-.:.:.*.=.9.p.5.=.-.9.w.0.9.r.8.6.:.;.&.$.&.&.&.L L j o.",
"j L L L | | $.&.&.=.=.>.8.9.8.*.;.=.5.8.8.G 5 2 4 + 4 A 8.>.>.q.a.r.p.p.8.>.=.=.=.$.$.$.| j ` ` j $.",
"j j L L  . .$.$.&.=.>.9.9.5.=.&.*.5.r.9.X.5 ^ ( ( _ } 6 G p.q.w.q.9.8.>.>.:.;.$.$.=.$.#.` ` ` ` j ,.",
"j j j T R $.$.$.&.-.5.8.*.=.&.*.5.9.9.5.*.5 ^ ] ] [ ' 3 G r.w.r.8.8.5.5.-.=.&.$.$.$.| ` ` ` ` ` j %.",
"j j T $.#.R R &.;.-.-.;.&.=.*.5.9.9.5.5.9.H q ~ ) / 0 h 9.w.r.8.5.8.5.-.=.&.&.&.$.#.| ` ` ` ` | j ,.",
"` #.$.R T T $.$.&.=.=.&.*.5.5.9.8.5.5.9.7.C t 8 { C ; s 7.p.8.8.5.5.-.=.=.=.=.$.$.` | | ,.| | | ` ,.",
"$.#.T T #.$.&.=.$.&.$.=.5.9.5.5.-.-.9.9.V : k Q Q n z : a X.8.5.-.-.=.=.=.-.=.#.%.#.$.| ` | | | ` 2.",
"T ` ` | $.&.$.$.$.&.;.8.q.9.-.*.*.8.7.g 9 W D 7 % @ e N z i E E -.=.=.-.>.=.$.$.$.$.%.$.$.| | | #.3.",
"j ` | #.| | #.$.&.*.8.q.9.5.=.-.8.0.C 8 D ! 9 y f u , x N l p E >.>.>.>.=.=.&.=.=.&.$.$.$.| | | $.3.",
"#.` #.| ` | | &.=.5.9.9.5.-.=.-.9.a.i 7 Q 1 f 6.i.0.A $ S c * E >.8.>.:.=.=.=.-.=.&.$. . .| #.#.#.<.",
"` ` ` ` j |  .&.>.9.9.8.-.-.-.q.w.a.i & m o F p.7.9.X.+ B c * E >.>.-.;.=.>.>.-.;.#.| | $.#.| ` ` <.",
"` | | j j |  .*.5.r.9.-.-.5.9.w.w.a.i X n > p h g h d = D B 4 $.-.=.-.>.8.9.5.*. .|  .| | L j ` ` 2.",
"| | L j |  .&.:.9.9.>.8.8.8.0.w.w.a.Z # v b : o o o O b Q k r $.-.:.>.8.8.8.*.#.| | | | j ` ` ` ` <.",
"j j j | | ..*.8.9.9.9.9.9.9.w.w.w.w.0.s # w b M m W S e < y P =.-.>.8.8.>.;.&. . .| T j ` | ` ` ` +.",
"j j | | ..&.4.9.9.p.9.9.9.w.w.w.w.0.9.4.d 4 .   X # $ - r I *.=.>.8.u.:.=.$.$.|  . .| | | ` | J J +.",
"j ` | ..X.*.4.9.0.0.7.r.0.a.w.a.w.9.5.5.5.E s u u y y G =.*.*.4.5.8.:.;... . .| |  .| | | j J J j o.",
"j  .....*.4.6.9.0.0.r.0.r.a.a.0.9.9.9.5.w.w.0.0.9.7.5.*.*.*.5.-.:.=.&.&. . . . . . .| | J G J J j %.",
"| ....*.*.7.7.0.0.9.0.w.w.w.w.0.9.9.w.a.w.9.4.4.4.4.*.*.*.*.:.*.&.;.&.&. .o. ..... .| J J J j j j ,.",
"&.&.&.*.4.7.r.9.9.9.r.w.w.w.9.9.0.w.w.w.q.4.4.E *.*.&.*.*.*.&.;...*... ... ... .J J G J j j j j j ;.",
";.&.*.4.4.6.7.7.9.0.w.w.0.9.9.9.w.w.w.9.9.4.:.=.&.*.*.*.*.X........... . . . .G J J J j j j J J K u.",
"*.*.4.4.4.4.4.7.0.w.w.0.0.9.0.w.w.w.9.7.4.4.*.;.&.&.*.*.*.o..... . ..... . . .J J J J j j J L K &.t.",
"4.4.X.o.*.4.7.7.0.0.0.0.9.0.w.w.r.r.9.5.*.*.;.&.....*..... ... . . ... .G J J J J J J J J J  .&.&.t.",
"4.X.....X.6.9.9.9.9.9.9.0.0.0.0.9.9.6.*.;.;.&. . . . . . . .|  . ... .| | G K I I I L j L  .&. .X.y.",
".... .X.*.6.e.r.9.0.r.r.r.9.e.9.p.8.-.&.;.=.$.| | | P L  .L P U E P J J K P P P K P L L P .. ...*.i.",
" .I ..*.4.4.6.7.7.7.r.r.e.8.9.9.8.:.&.&.&.&.| | | ` L L L L P P L J K P K P I K P L L  . . ...*.*.y.",
"K I Y 4.4.4.*.4.7.e.9.8.8.8.5.:.;.$.&.&.$.| | j j j L L L P I K K K I P I I I I L J P &. ...*.X.K @.",
"K Y X.4.*.4.4.4.8.8.8.5.>.-.&.&.&.$.$.$.#.| | J J J L P P U K I I U U P P I K J L J J P  . .....K O.",
"Y *.4.4.*.*.4.:.:.>.:.=.&.$.$.&.$.$.| | L j J J J J P U I I I Y E E P P K K J j j j J  . . .| J K O.",
"&.4.4.X.*.&.&.=.;.&.&.$.$.$.$.$.$.| | ` j J J J J J I P I I Y E E I P E J j j j j J |  .K G K G I t.",
"4.*.*.X. .&.=.;.&.$.#.#.$.$.$.;.| | ` J J J J J L P I I Y Y E Y P P P L j j j j J K  .J J K I I I e.",
"*.*... .&.=.;.$. .#.#.%.| #.#.#.| ` | ` j j J J K K Y E 4.*.E U P P L j j j J J  .K K K K K K X.*.y.",
".... .&.;.;.#.L j T #.| | | | |  .#.` ` ` j J J K X.X.4.X.Y I P P L j j j J J J K J J K I U E &.&.e.",
".. . .&.=.#.T j j j ` ` | | | $.%.` ` ` j j K K I X.*.X.Y I K L j j j L J L K J J J K I U E E E ..t."
};
