/* XPM */
static char *result[] = {
/* columns rows colors chars-per-pixel */
"50 50 200 2 ",
"   c #13162E",
".  c #1B1D32",
"X  c #291C32",
"o  c #1D2137",
"O  c #21243B",
"+  c #252B3C",
"@  c #272B3D",
"#  c #36293F",
"$  c #233139",
"%  c #2C3D3E",
"&  c #451F35",
"*  c #6F263C",
"=  c #2C413F",
"-  c #252A43",
";  c #292E41",
":  c #2B3345",
">  c #2F3D43",
",  c #2E3349",
"<  c #32364B",
"1  c #343A4D",
"2  c #383C54",
"3  c #5F3E54",
"4  c #653046",
"5  c #324341",
"6  c #36484A",
"7  c #375347",
"8  c #3C5649",
"9  c #3D4155",
"0  c #3D425B",
"q  c #3F604B",
"w  c #41584A",
"e  c #45485C",
"r  c #445956",
"t  c #466952",
"y  c #4B6B51",
"u  c #4A6C53",
"i  c #496A59",
"p  c #4C7153",
"a  c #497755",
"s  c #537858",
"d  c #414664",
"f  c #434B64",
"g  c #4B4E62",
"h  c #474C6B",
"j  c #4A5563",
"k  c #4C516C",
"l  c #54586C",
"z  c #4D5476",
"x  c #555A77",
"c  c #5A5E72",
"v  c #566D64",
"b  c #5D6175",
"n  c #5E6975",
"m  c #5F637C",
"M  c #616475",
"N  c #636779",
"B  c #676C7B",
"V  c #687576",
"C  c #737D7F",
"Z  c #963A4F",
"A  c #A25266",
"S  c #876478",
"D  c #548057",
"F  c #55835C",
"G  c #5B845D",
"H  c #558B5C",
"J  c #5C8A5E",
"K  c #64855F",
"L  c #60915F",
"P  c #5A8562",
"I  c #5A9465",
"U  c #648A62",
"Y  c #688B65",
"T  c #6E8B6E",
"R  c #659D66",
"E  c #689A67",
"W  c #68A369",
"Q  c #6CA269",
"!  c #6DAB6C",
"~  c #74A46B",
"^  c #78A46E",
"/  c #75AE6D",
"(  c #78B36D",
")  c #73B071",
"_  c #73B571",
"`  c #7AB571",
"'  c #76BC74",
"]  c #73C673",
"[  c #7BC573",
"{  c #76C979",
"}  c #7CCA7B",
"|  c #7ED779",
" . c #7DDC7C",
".. c #81AD71",
"X. c #81BB76",
"o. c #87C678",
"O. c #83CB7A",
"+. c #95CC7E",
"@. c #85D67C",
"#. c #8BD57C",
"$. c #83DB7D",
"%. c #8CDA7C",
"&. c #94D77E",
"*. c #92DC7E",
"=. c #575E81",
"-. c #5A6185",
";. c #5D648B",
":. c #656983",
">. c #6A6D85",
",. c #656B8C",
"<. c #6E7184",
"1. c #6D718A",
"2. c #767989",
"3. c #646A92",
"4. c #686E94",
"5. c #6E7395",
"6. c #6E759B",
"7. c #777C94",
"8. c #757CA2",
"9. c #797FA5",
"0. c #9B7386",
"q. c #758283",
"w. c #7D819B",
"e. c #7C82A5",
"r. c #7CD581",
"t. c #7DDC83",
"y. c #84879A",
"u. c #898C9C",
"i. c #8F939E",
"p. c #B58395",
"a. c #868AA7",
"s. c #8A8DA4",
"d. c #8186AA",
"f. c #858AAC",
"g. c #8E92AB",
"h. c #9496A4",
"j. c #9195AC",
"k. c #989CA9",
"l. c #8A8FB0",
"z. c #8D92B3",
"x. c #9296B3",
"c. c #9599B3",
"v. c #9A9EB5",
"b. c #969AB9",
"n. c #9A9EBA",
"m. c #AE9CB0",
"M. c #9EA2BE",
"N. c #A2A4B4",
"B. c #A7A9B6",
"V. c #A9ABB7",
"C. c #A5A7BA",
"Z. c #ACADBB",
"A. c #C291A0",
"S. c #C5ADBC",
"D. c #94CF81",
"F. c #84D681",
"G. c #84DD84",
"H. c #8CDD84",
"J. c #95D684",
"K. c #9BD483",
"L. c #92DD84",
"P. c #99DF82",
"I. c #A3DC85",
"U. c #86E084",
"Y. c #8CE284",
"T. c #93E385",
"R. c #9BE385",
"E. c #99E887",
"W. c #9BE689",
"Q. c #9CE88A",
"!. c #A2E485",
"~. c #A4E589",
"^. c #A5E889",
"/. c #A4EA8C",
"(. c #ACEB8E",
"). c #B0EF8F",
"_. c #B3F18F",
"`. c #A2A6C2",
"'. c #A5A9C3",
"]. c #AAADC5",
"[. c #ADB1C8",
"{. c #B4B6C6",
"}. c #B8BAC5",
"|. c #B1B4CA",
" X c #B7B9CD",
".X c #BCBECB",
"XX c #BDBFD1",
"oX c #C1B9C7",
"OX c #BEC1D3",
"+X c #C4C1CD",
"@X c #C3C5D4",
"#X c #C8C9D5",
"$X c #CBCDDB",
"%X c #CFD1DD",
"&X c #D1D2DD",
"*X c #D4D5E1",
"=X c #D6D8E2",
"-X c #DBDCE5",
";X c #DEDFE8",
":X c #DFE0E8",
/* pixels */
"Y.Y.G.G.G.H.G.G.t.t.t.U.U.t.t.U.U.t.t.t. .$.$.%.%.%.%.$.$. . . .$.$.@.| $.$.%.%.*.*.T.E.T.L.T.L.G.H.",
"Y.U.G.G.G.Y.G.t.t.t.U.U.U.U.U.U.t.r.] ] ] ] ] [ [ | ] ] ] ] ] ] ] | | $.%.%.*.*.*.T.T.T.W.L.H.G.H.Y.",
"U.G.G.H.U.G.G.U.t.t.U.Y.Y.Y.Y.{ I 7 $ $ $ $ $ $ $ $ $ $ $ $ $ $ = a _ $.%.*.*.*.*.L.T.R.L.H.H.G.Y.Y.",
"G.G.H.Y.t.t.t.U.U.U.Y.T.Y.U.G.' a 6 O o O O O O o $ o o o o o o $ t W | %.*.*.*.*.T.R.T.L.H.L.G.U.Y.",
"G.G.G.G.t.t.U.U.Y.Y.Y.Y.H.[ ! U P -.n n M M M M M M b c j j g h j v P R ( @.*.*.E.R.*.*.*.Y.L.Y.U.G.",
"G.G.t.G.U.U.U.Y.T.T.T.T.J.! p w T j.V.V.V.V.V.V.V.V.B.v.h.w.w.w.7.n r 8 L o.R.T.R.*.%.*.*.Y.L.G.G.G.",
"G.t.G.G.U.Y.Y.Y.T.T.J.J.o.U w e 7.Z.:X-X&X:X-X-X-X-X-X$X X'.'.C.j.1.e 6 s ( #.P.*.*.#.%.T.T.H.G.G.Y.",
"G.F.G.Y.Y.Y.Y.Y.T.P.o.! U Y V y.M.@X:X:X:X:X:X:X;X;X;X*X$XXX X].M.w.:.l v G R ` @.%.*.T.R.T.H.Y.Y.Y.",
" .G.H.Y.Y.Y.L.L.T.J.) s w B h.Z.#X-X:X:X:X;X;X;X;X:X;X-X=X%X@X[.`.c.l.7.n r w L [ *.T.R.R.R.T.Y.H.G.",
"G.T.Y.U.H.H.L.W.W.H.E 8 % M V.-X:X:X:X:X:X;X;X;X;X-X=X=X=X*X@X|.'.`.`.g.m , % D [ *.R.!.~.R.Y.Y.G.G.",
"Y.Y.T.U.H.L.T.T.T.H.Q 8 @ B Z.-X:X:X:X:X:X:X;X;X=X$X@X@X@XOX X[.'.`.`.j.m < % D o.R.!.!.R.R.Y.H.G.H.",
"Y.Y.Y.H.L.H.H.U.T.*.~ w @ V Z.-X:X:X:X:X:X:X;X;X&X@X|.[.[.[.[.'.`.'.`.z.m ; % s +.!.~.~.R.T.H.H.L.T.",
"Y.G.H.H.H.H.U.T.W.!.^ w : N Z.:X:X:X-X-X*X*X*X*X$X X].`.`.`.`.`.`.`.'.j.m , % J +.~.!.W.Q.Y.Y.T.Y.Y.",
"G.H.L.L.L.L.T.Q.^.P.E 7 @ N Z.-X:X:X-X%X$XoXOXXX X[.'.'.`.`.`.`.`.`.`.j.m , > K +.^./.E.Y.T.Y.Y.Y.Y.",
"H.L.H.Y.Y.U.T.T.T.F.R 7 : N Z.-X:X:X*X@X|.].].].].'.`.`.`.`.`.`.`.`.`.j.m , % U K./.E.T.Y.Y.T.Y.Y.%.",
"H.L.H.H.G.G.G.Y.U.F.R 7 @ B Z.-X=X=X@X'.l.f.n.[.[.].`.M.n.b.b.b.b.n.`.g.m , > U D.Q.T.Y.Y.Y.T.Y.G.$.",
"$.%.Y.U.G.U.t.Y.Y.F.R 7 ; N Z.=X%X@X].a.M B j..X@X|.`.n.z.e.f.e.e.x.M.z.m , 5 P o.E.Y.Y.T.T.T.H.$.$.",
"$.$.$.$.G.U.U.Y.T.H.R 8 ; N Z.=X@X[.g.N 1 e u.+X$X X`.x.e.8.6.8.8.f.b.g.m : % G o.E.T.Y.Y.Y.G.G. . .",
" . .$.$.G.G.Y.Y.Y.H.Q 8 ; b N.oX'.s.>.f + 9 y.#X$X|.b.l.f.9.9.9.e.f.z.e.x : > H @.T.Y.Y.U.G.r.t. . .",
" . . .$.$.Y.Y.Y.T.L.~ 8 @ l h.C.y.c 0 : . e y.#X#X`.f.d.l.z.z.z.z.l.d.6.k - % F } Y.Y.Y.t.t.t.t. . .",
" . . .$.*.Y.$.Y.Y.*.Q w @ k s.c.1.2 X .   9 y.+XOXn.9.9.z.M.`.M.M.l.8.;.d - % F } Y.U.G.t.t.t.t. . .",
" . .$.Y.Y.Y.Y.Y.T.L.Q 8 @ l j.C.0.3 & X . 2 7.{. XM.f.l.n.`.'.`.M.l.8.;.d + % F O.U.G.t.t.t.G.G.t.t.",
"t.U.Y.$.$.$.Y.T.T.H.W 7 ; b N.oXp.A * & X 1 <.C.[.M.b.b.M.`.`.`.M.f.8.;.d - % F { G.U.Y.U.G.G.G.G.t.",
"Y.Y.U.$.$.Y.T.Y.T.@.W 7 ; b B.oXm.A Z 4 # 9 >.c.`.`.`.`.M.M.M.M.M.f.6.-.d : 6 J [ H.Y.Y.Y.Y.G.G.G.U.",
"U. .t.U.U.Y.Y.U.Y.F.Q w @ l s.Z.A.p.0.S c m w.v.`.`.`.n.b.z.l.l.e.6.m h j q F / F.T.T.Y.T.Y.G.G.U.Y.",
"t.t.U.U.U.t.G.U.T.L.~ w O e 1.l.C.S.S.m.s.s.c.M.`.`.`.b.f.9.8.8.6.m 0 6 i W ' O.T.T.Y.Y.G.G.G.Y.U.U.",
"t.t.U.t.t.$.G.T.E.P.^ w O 0 ;.d.N.{.+X}.].].].].`.n.x.f.8.6.4.3.-.k 1 6 P } W.!.W.T.Y.H.G.Y.G.U.$.t.",
"t.t.t.U. .$.G.T.W.I.^ w + g 7.n.j.u.s.N. XoXOXOX].d.,.:.3.4.=.z f j i P ) J./.Q.E.Y.G.G.U.G. .t.t.t.",
"G.G.G.$. .F.T.T.^.~.^ w @ c N.}.u.l l u..X&X&X&XZ.>.0 d =.3.z 2 < u Q o.J.~.^.E.H.G.G.G. .G. .t.t.t.",
"@.$.|  .G.G.T./.(.I...p 6 V k.Z.<.2 < B N.+X+X.Xh.m < 0 =.3.=., + p X././.W.E.T.G.H.Y.G. .G.G.t.t.G.",
"|  .t.t.H.P.R.^.).~.+.^ Y V C B g @ @ e B 2.2.2.>.l h x 5.e.=.< @ p X./.W.T.T.G.H.H.%.G.G.t.t.| G.@.",
" . .G.H.Y.T.R.~.)._.I.K.+.E r < O . X O , < < < 0 z ;.5.f.z.,.2 @ s ' W.T.Y.T.G.$.G.G.G.G.G.F.@.@.@.",
" .G.G.T.R.R.!.(.(.).).).I...v = $ X o : 1 e 6 < 0 z =.6.c.C.7.3 o i ' Y.T.Y.H.H.H.H.G.G.F.@.#.@.|  .",
"t.H.T.R.R.!.^.).).).).).(.D...K w $ + g 1.0.q.>.x h d :.k.}.y.e $ a ` Y.T.H.L.H.H.H.F.@.@.@.$.|  . .",
"L.T.T.T.!.!.(.).(.(.).)._.(.I.+.K % < <.Z.OXV.v.2.h , c k.#Xh.g $ u ` L.H.L.H.L.H.F.F.#.$.|  . .| $.",
"T.T.T.!.!.~.~.^.^.(.)._._.).).+.Y = < 2.{.OXM.w.1.l f <.V.#Xh.g @ u ) H.L.H.J.H.F.@.@.@. .| $.$.@.H.",
"T.R.R.~.!.!.!.~.(.)._._.).(.(.+.Y = 1 B N.M.7.c z N 1.h..X$Xk.e $ u ) J.Y.F.@.@.@.@.@.$.| | | $.G.T.",
"!.!.~.L.P.!.~.(.(._._.).).(._.&.Y 5 , N j.g.b , 0 >.c.|.$X$Xk.g $ t ) H.%.@.@.#.#.@.@.$.$.@.$.T.T.T.",
"!.R.P.L.L.R./.(.(.).).(.).)._.I.Y 5 , B M.j.c ; 0 2.].@X&X&Xh.g $ u ) $.@.@.@.#.#.#.$.$.$.G.Y.T.H.R.",
"P.L.H.L.R.~./.(.(.(.(.(.).(.(.I.U 5 < 2.Z.B.N : e y.@X&X;X&Xh.e @ t ! @.@.%.*.*.%.%.%.$.%.H.H.H.P.~.",
"H.&.*.R.!.!.^.^.(.(.(.(.(.(.(.J.P 5 1 2.}.Z.>.< e u.+X&X*X@Xi.g = p / #.%.%.%.%.%.%.$.%.H.H.L.T.R.P.",
"#.#.*.!.!.!.W.~.~.~.(././././.F.H % , -.k.M.1.d k <.i.h.j.0...s y L ( #.%.#.&.#.#.#.$.%.H.L.P.P.P.%.",
"#.*.*.!.!.W.~.R.~./././.Q.Q.Q.F.H 5 - z 7.e.4.-.x k g e h g v K Q X.#.*.*.&.#.#.$.$.$.%.H.H.J.H.#.@.",
"*.P.!.!.!.R.R.R.R.~.Q.T.T.Y.L.} I 7 > f -.3.;.;.z 9 % + @ > y ~ *.*.*.*.%.#.$.$.| | $.$.H.L.@.$.#.#.",
"P.R.!.R.R.T.T.T.W.W.Y.Y.Y.Y.Y.F.! s i j f h h h j r i u y y L o.*.*.*.*.%.$. . .| $.@.H.@.#.@.#.&.*.",
"R.!.R.R.T.Y.T.E.Y.Y.H.Y.Y.H.Y.H.r.' I i 6 - - ; 6 s Q ) ..X.o.&.*.*.%.%. .|  . .$.#.H.@.@.#.#.&.*.T.",
"R.R.L.T.Y.T.E.Y.Y.G.Y.U.H.G.U.G.t.t.r.a $     . = K o.R.*.!.*.*.%.%.%.|  . .@.@.@.H.@.@.#.*.&.*.R.R.",
"L.H.L.Y.T.E.Y.U. . .U.t.G.H.G.G.t.r.r.W H q p p L ( *.R.!.*.*.*.%.|  .| | $.@.@.@.@.#.#.#.&.*.T.*.R.",
"L.H.T.Y.T.Y.G. . . .t.t.G.G.G.Y.U.G.t.t.t.t.F.*.P.L.P.P.*.&.#.@. . . .| $.@.#.%.#.@.#.*.*.*.*.Q.*.E.",
"H.L.T.Y.U.t.$. . .t.t.t.t.U.Y.U.t.U.U.t.t.G.%.&.L.P.R.P.&.*.$.$. . .| $.$.$.%.#.#.#.#.*.*.*.*.*.T.R."
};
