/* XPM */
static char *result[] = {
/* columns rows colors chars-per-pixel */
"50 50 205 2 ",
"   c #14172F",
".  c #14182E",
"X  c #151930",
"o  c #1B1C32",
"O  c #291C33",
"+  c #1A2133",
"@  c #24293C",
"#  c #242D3C",
"$  c #25313B",
"%  c #2A373D",
"&  c #2C3E3E",
"*  c #4B2036",
"=  c #75273D",
"-  c #2D403F",
";  c #2A2E43",
":  c #292E46",
">  c #3B2D43",
",  c #2C3144",
"<  c #2D324A",
"1  c #2F384C",
"2  c #33364B",
"3  c #34394B",
"4  c #35394E",
"5  c #373B55",
"6  c #3A3E54",
"7  c #2F4140",
"8  c #374847",
"9  c #354D44",
"0  c #365045",
"q  c #3B5246",
"w  c #3D5348",
"e  c #3D5D4B",
"r  c #3B4254",
"t  c #394951",
"y  c #3C425D",
"u  c #3F634E",
"i  c #3E4361",
"p  c #455F4D",
"a  c #42465C",
"s  c #464D5C",
"d  c #455958",
"f  c #49614E",
"g  c #48684E",
"h  c #496556",
"j  c #466A51",
"k  c #4A6E52",
"l  c #526D5B",
"z  c #4E7157",
"x  c #547757",
"c  c #537C59",
"v  c #464B67",
"b  c #4A5368",
"n  c #535667",
"m  c #52556C",
"M  c #5A5D6E",
"N  c #484E71",
"B  c #4E5474",
"V  c #565A72",
"C  c #595D77",
"Z  c #545A7C",
"A  c #654F65",
"S  c #5A696D",
"D  c #587365",
"F  c #5E6276",
"G  c #5E627A",
"H  c #637C6E",
"J  c #626577",
"K  c #63667C",
"L  c #666A7C",
"P  c #696B7C",
"I  c #6C767B",
"U  c #9A3F53",
"Y  c #9D5C70",
"T  c #55825C",
"R  c #598A5D",
"E  c #58905D",
"W  c #598962",
"Q  c #5B9665",
"!  c #618867",
"~  c #639663",
"^  c #649964",
"/  c #699A67",
"(  c #719B6A",
")  c #5DA06A",
"_  c #67A569",
"`  c #75A76C",
"'  c #6EB96D",
"]  c #77B46E",
"[  c #7EAC71",
"{  c #6DB271",
"}  c #7AB571",
"|  c #75B873",
" . c #7CBB73",
".. c #7CC777",
"X. c #7CD37B",
"o. c #7DDB7C",
"O. c #82AE71",
"+. c #84BC76",
"@. c #85C778",
"#. c #85CE7D",
"$. c #85D67B",
"%. c #8BD57C",
"&. c #83DB7D",
"*. c #8DDB7C",
"=. c #90D67C",
"-. c #92DC7D",
";. c #8AE07E",
":. c #93E07F",
">. c #585E81",
",. c #5C6388",
"<. c #646987",
"1. c #696D84",
"2. c #6C7184",
"3. c #6D718A",
"4. c #727585",
"5. c #737788",
"6. c #797C8B",
"7. c #646B93",
"8. c #696F95",
"9. c #6D7398",
"0. c #757A98",
"q. c #757CA2",
"w. c #9E778A",
"e. c #7C838B",
"r. c #7D8199",
"t. c #7C82A6",
"y. c #7E84A9",
"u. c #7DDC83",
"i. c #7EE083",
"p. c #828493",
"a. c #85889B",
"s. c #B78697",
"d. c #8388A6",
"f. c #898DA4",
"g. c #858AAC",
"h. c #898DAC",
"j. c #8D91AA",
"k. c #9699A7",
"l. c #9194AC",
"z. c #898FB0",
"x. c #8D92B3",
"c. c #9296B5",
"v. c #969AB4",
"b. c #999DB6",
"n. c #969BB9",
"m. c #999DBA",
"M. c #AF9CB1",
"N. c #9EA1AD",
"B. c #9EA1B4",
"V. c #9DA2BE",
"C. c #A1A4AE",
"Z. c #A3A5B3",
"A. c #A8A9BB",
"S. c #AFB1BC",
"D. c #C291A1",
"F. c #86D581",
"G. c #84DD84",
"H. c #8BDD84",
"J. c #85DE8B",
"K. c #89DE8B",
"L. c #93DD84",
"P. c #9BDB85",
"I. c #98DA86",
"U. c #86E084",
"Y. c #8DE285",
"T. c #8CE18C",
"R. c #94E285",
"E. c #9BE385",
"W. c #93E48B",
"Q. c #9BE48B",
"!. c #9BE888",
"~. c #9EE193",
"^. c #A2E486",
"/. c #A1E887",
"(. c #A4E58A",
"). c #A9E68A",
"_. c #A4EA8C",
"`. c #ACEB8E",
"'. c #B0EE8F",
"]. c #B3F18F",
"[. c #ACEB90",
"{. c #A2A6C1",
"}. c #A5A9C3",
"|. c #AAAEC5",
" X c #AEB1C7",
".X c #B3B5C3",
"XX c #BBBCC7",
"oX c #B3B6CB",
"OX c #B5B8CC",
"+X c #BBBDCB",
"@X c #BBBDD1",
"#X c #C7B7C5",
"$X c #BFC0CA",
"%X c #BFC2D3",
"&X c #C3C4CF",
"*X c #C2C4D5",
"=X c #C9CBD6",
"-X c #CCCEDC",
";X c #CFD1DD",
":X c #D1D3DE",
">X c #D4D5E1",
",X c #D7D9E3",
"<X c #DCDDE6",
"1X c #DEDFE8",
"2X c #DFE0E8",
/* pixels */
"Y.Y.G.J.G.H.G.G.u.u.U.U.u.u.u.J.U.i.i.i.o.;.;.;.;.*.&.&.&.o.o.o.;.&.o.o.$.*.*.*.=.:.E.E.R.L.L.K.H.W.",
"U.G.G.G.H.G.G.u.u.i.U.U.U.U.F.u._ Q W E E Q E E E E E E E E E E E ' X.;.&.*.=.-.:.:.R.R.E.K.H.G.H.W.",
"U.G.Y.Y.U.u.u.U.u.U.Y.Y.Y.Y.F.) e +         . . . . . . . . X . % T ..*.*.:.:.:.:.L.R.R.H.H.K.G.Y.W.",
"G.G.K.G.u.o.G.U.U.Y.U.R.H.X.| Q u 1 : : , , < 1 2 2 2 3 3 2 2 1 p T _ @.%.-.:.:.E.R.E.R.H.L.H.G.Y.Y.",
"G.G.u.u.i.U.U.U.Y.Y.Y.Y..._ T D S Z S G G ,.5.e.6.6.6.6.e.6.6.6.( H D E ] %.-.-.R.:.:.*.H.L.L.Y.G.G.",
"G.u.u.G.U.U.Y.Y.R.R.R.L.| c 8 d 2.y.j.j.l.B. X$X$X$X$X$X$X$X$X+XC.I a e ^ %.E.E.:.-.-.*.L.Y.H.G.G.Y.",
"G.G.G.H.Y.U.U.R.R.I.@.+./ h r m r.V.}.}.oX%X,X2X2X2X2X2X2X2X2X2X#Xp.n d ! ] @.=.-.*.-.-.R.Y.H.G.G.W.",
"&.G.H.Y.Y.Y.Y.R.E.@.` W D S K 0.z.{.oX%X%X:X,X2X2X2X2X2X2X2X2X2X=XS.f.6.H x ~ ] %.*.-.R.E.L.H.Y.Y.Y.",
"G.H.H.Y.Y.Y.L.R.P.+.c 8 s 2.f.b.V.}.oX-X,X,X<X1X2X2X2X2X2X2X2X2X<X:X&XC.I 8 p ^ #.*.E.E.E.R.R.Y.H.Y.",
"Y.Y.Y.Y.H.L.W.R.R.} k $ 6 3.m.{.{.}.oX*X;X:X:X>X,X<X2X2X2X2X2X2X2X2X<XS.P # 9 R $.E.^.^.^.R.Y.J.G.K.",
"Y.Y.Y.G.H.L.R.R.R.} k $ 6 3.m.{.{.}. XOX@X@X%X%X-X,X2X2X2X2X2X2X2X2X<XS.P # 9 ~ =.^.^.^.E.R.H.G.G.W.",
"Y.Y.H.H.H.H.Y.Y.R.O.k $ 6 3.b.{.{.{.}.}.|.|.}.oX%X:X<X2X2X<X2X2X2X2X<XS.P ; 9 / -.^.^.E.E.R.H.H.L.W.",
"Y.K.H.H.H.K.Y.R.!.+.z $ 6 3.b.{.{.{.{.{.{.{.{.}.OX*X;X;X;X>X,X<X2X2X<XS.L , q / P.^.^.^.!.Y.Y.R.Y.W.",
"H.H.L.L.H.R.!.!./.+.k $ 6 3.m.{.{.}.}.{.{.{.{.}. XOX@X$X@X%X-X<X2X2X<XS.P , q ( P.).!.R.Y.Y.Y.Y.Y.Y.",
"H.L.L.Y.H.Y.R.R.Y.{ g # 6 3.b.{.{.{.{.{.{.{.{.{.}.}.}.}.A.|.%X>X<X<X<XS.P ; w ( P._.E.Y.Y.Y.Y.;.H.Y.",
"H.H.H.G.G.*.U.U.G.{ j # 6 3.b.V.n.c.c.c.n.n.V.}. XOX Xb.t.d.Z.%X:X,X,XS.P , w ( P.R.W.Y.Y.R.R.;.&.*.",
"&.*.G.G.G.G.U.U.Y.{ j $ 5 3.n.n.z.q.y.y.y.x.V.}.oX*X+Xf.F V r.A.%X;X,XS.P , w / L.R.Y.Y.R.R.Y.;.&.&.",
"&.&.&.&.G.J.Y.Y.Y.| j # r 3.c.c.y.q.9.q.q.y.c.}.@X>X*Xr.r 2 G j.|.#X>X}.L , 0 ^ %.R.Y.R.Y.H.&.&.o.G.",
"o.o.&.;.G.H.Y.R.R.} k $ 5 ,.g.z.y.y.q.y.y.y.x.n.oX-X%Xr.6 @ a K a.A.+XC.F ; 0 ^ *.Y.Y.U.u.u.u.o.o.o.",
"o.o.&.&.H.H.Y.Y.R.} z # < V q.y.x.c.c.c.x.z.y.z.{.-X%Xr.6 + : 5 V 0.A.j.V # 0 ^ F.W.Y.U.u.u.u.u.o.G.",
"o.o.;.U.Y.;.U.Y.R.} k $ : B 7.t.x.V.{.{.V.x.q.q.m.*X+Xp.6 o o O 6 1.v.f.m ; 9 ~ F.U.G.u.u.u.u.G.o.o.",
"o.o.U.Y.;.;.;.Y.R.} k $ : N 7.t.x.{.{.{.V.n.x.z.{.+XS.5.3 o O * A w.A.k.V ; 0 ~ F.U.J.u.u.u.G.G.u.U.",
"U.U.;.;.;.U.R.R.R.' j $ : N 7.t.x.{.{.{.{.V.n.n.{.|.b.1.2 @ * = U s.#XA.J ; 0 ~ X.G.G.Y.J.J.G.G.u.U.",
"Y.U.U.o.Y.Y.Y.Y.Y.| c 7 r N ,.9.z.n.V.V.V.V.{.{.{.{.c.1.6 > = U Y D.&XZ.J # 9 ~ F.H.Y.Y.K.H.G.G.J.T.",
"o.i.G.G.Y.Y.Y.H.Y.#.` H l d N G 9.z.z.z.x.c.V.{.{.{.b.0.1.F Y w.s.M.M.f.m : 9 ~ G.R.R.Y.Y.G.G.G.Y.T.",
"i.U.J.G.G.u.G.Y.R.E.=.+.( f 2 i ,.9.q.q.q.h.m.{.{.{.V.v.f.l.M.#X#XZ.j.3.i @ q ~ %.R.Y.Y.H.J.Y.U.U.Y.",
"u.u.J.u.o.&.H.R.!._.`./.+.x 7 r B ,.7.7.9.q.d.l.V.}.|.|.|.|.+X&X.Xb.y.<.y @ 8 / F.R.U.G.G.Y.U.&.G.G.",
"u.u.G.o.o.G.H.R._.`.`.!.@.` R l b v Z ,.7.7.,.1.f.A.*X*X*XOXZ.a.a.l.m.a.m @ q / F.Y.G.G.U.G.o.u.u.J.",
"G.G.&.o.&.H.R.Q._.`._./.P.P.@.( f 1 i Z 7.B y a 5.S.:X:X>XXXa.n n a.XXZ.J ; q Q #.H.G.G.o.u.u.u.u.J.",
"$.&.o.G.G.Y.E._.`.`.`._.).'.).O.f + 5 >.8.Z 6 5 L k.#XXXXXC.P , 4 4.Z.k.P t j _ F.G.G.o.u.G.G.u.G.G.",
"o.o.&.G.H.R.!.).`.`.`.[.`.].`.O.f @ 6 7.t.8.Z v C 1.4.6.4.L a @ ; s P I ! T ^ | $.G.&.G.G.u.u.$.$.F.",
"o.o.G.H.Q.E.E.).].].'.`.`.].).O.f # v 3.c.d.9.>.N r 2 2 2 ; @ o o @ 2 d ! } @.X.G.H.H.G.G.$.$.$.$.G.",
"o.G.L.R.E.^.).`.].`.`.'.].].'.O.f # v p.A.z.9.Z N 6 4 6 r 4 # o + $ - g / F.H.H.H.H.G.F.&.$.$.$.o.&.",
"G.R.R.E.E./._.].'.`.`.].].].).O.p # n k.oXl.C v N C 1.5.p.4.n @ $ w T / } F.K.L.L.F.G.$.$.$.o.o.o.o.",
"R.W.R.E.^.).).`.`.`.].].].].).[ f # M M.&Xk.n < m 0.v.|.+XA.I < & c } #.F.L.L.H.H.$.$.$.$.o.o.o.$.G.",
"R.R.E.E.^.).)._.).'.].].].).^.[ f # M Z.=XC.G a V 3.f.A.*X.X4.2 , T @.L.L.H.H.%.$.#.$.$.o.o.$.$.H.R.",
"R.E.^.E.^.^.^.).`.'.].'.'.`.).O.f # M Z.;X.Xf.1.G m G r.A.V.P < - R ..L.H.%.&.$.$.$.$.&.o.o.$.&.R.W.",
"^.^.E.E.^.^.(.`.'.].].[.`.'.).O.f # M Z.:X*X Xj.1.6 1 G j.l.G , & T @.H.&.$.%.%.%.%.&.&.$.$.;.R.Y.Q.",
"^.E.L.L.P./.).[.[.'.`.'.'.'.).O.p $ S Z.:X:X*XA.3.1 : G v.B.G , & T ..$.$.$.%.*.%.%.&.&.&.H.R.Y.L.Q.",
"L.L.H.L.E.(.`.[.).[.[.'.`.[.(.[ p # M Z.:X,X:X.Xw.r : 1.A.S.2.2 & T ..$.%.*.=.=.%.*.&.&.&.Y.L.L.E.).",
"H.-.-.E.^.^.).).[.[.[.`.`.[.Q.[ g , S N.;X:X:X&Xp.a 3 4..X.X5.2 % T ] *.*.*.=.%.;.*.&.H.H.H.L.E.E.P.",
"%.=.-.^.^.^.E.^._._.[._.!._.Q...W h S p.N.N.N.f.2.v v 3.Z.b.K ; & T @.*.*.=.=.*.$.$.*.*.H.L.P.E.L.L.",
"=.-.E.^.E.E.E.!._._._.!.!.!.R.#.| / W S n n n n m B >.8.d.0.B ; & T @.*.*.=.%.%.&.$.&.*.F.H.L.*.%.F.",
"-.^.^.^.^.!.E.E.!.!.Q.R.Y.Y.R.Y.H.u.) u $ $ $ % a Z ,.7.8.,.v , 9 R @.-.*.*.$.o.o.o.&.*.L.H.$.$.%.=.",
"E.E.^.E.R.R.R.!.W.R.Y.H.Y.Y.Y.Y.Y.u.{ T u e e f d v N N N v b f x _ @.-.&.&.o.o.&.$.F.*.%.$.%.%.=.P.",
"^.^.E.L.R.Y.!.W.Y.Y.Y.Y.Y.Y.Y.Y.G.u...{ _ _ _ E l t < < < 8 z ^ ] +.$.;.o.X.o.o.$.%.H.$.%.%.=.=.L.Q.",
"E.R.H.L.Y.!.R.U.;.G.Y.G.G.J.J.G.G.G.u.o.o.X.X. .T 7     . % x } *.$.&.o.o.o.$.$.H.$.$.%.*.=.-.R.E.^.",
"L.H.R.Y.W.R.;.;.o.o.G.G.G.G.G.Y.U.U.u.o.o.o.$.@./ z e w q g ~ ..$.o.o.o.&.$.&.%.$.$.%.*.=.-.:.E.R.Q.",
"H.L.Y.Y.Y.U.o.o.o.u.u.u.J.G.K.Y.J.u.u.u.u.$.%.F.L.I.-.-.=.=.%.$.o.o.o.o.$.*.%.$.#.%.%.-.R.:.L.H.L.I.",
"W.Q.~.W.T.T.H.U.J.U.U.J.T.W.T.T.T.T.T.J.J.L.I.(.(.~.(.P.I.I.H.G.&.;.;.*.*.=.-.-.I.P.P.^.(.^.Q.I.~.~."
};
