/* XPM */
static char *result[] = {
/* columns rows colors chars-per-pixel */
"50 50 206 2 ",
"   c #161B31",
".  c #191E34",
"X  c #1D2435",
"o  c #1E233A",
"O  c #21253D",
"+  c #232B39",
"@  c #242B3C",
"#  c #25333A",
"$  c #28333D",
"%  c #2C3C3E",
"&  c #2E423F",
"*  c #252A42",
"=  c #252944",
"-  c #292D43",
";  c #2B3143",
":  c #2D3B44",
">  c #2E324B",
",  c #31384A",
"<  c #2F3451",
"1  c #343954",
"2  c #373C54",
"3  c #383D5B",
"4  c #354846",
"5  c #3A5448",
"6  c #3D5B4A",
"7  c #3B4353",
"8  c #3C435C",
"9  c #3C5050",
"0  c #3F6A4E",
"q  c #3E4463",
"w  c #3F4A60",
"e  c #43574D",
"r  c #425D4C",
"t  c #42475B",
"y  c #484C5E",
"u  c #435658",
"i  c #43644D",
"p  c #426A4E",
"a  c #486755",
"s  c #4D6D54",
"d  c #506B55",
"f  c #4C7453",
"g  c #4D7757",
"h  c #537455",
"j  c #547B5A",
"k  c #414665",
"l  c #434A64",
"z  c #484C64",
"x  c #424768",
"c  c #464D6C",
"v  c #494E6C",
"b  c #495363",
"n  c #4C536C",
"m  c #515763",
"M  c #53566A",
"N  c #555A6C",
"B  c #4E5474",
"V  c #535977",
"C  c #565B77",
"Z  c #51577C",
"A  c #545A7C",
"S  c #586769",
"D  c #5A7763",
"F  c #5D6275",
"G  c #5E627B",
"H  c #62796D",
"J  c #626576",
"K  c #61657D",
"L  c #66697A",
"P  c #6B6E7D",
"I  c #697578",
"U  c #717F7B",
"Y  c #59865C",
"T  c #548E5E",
"R  c #61855E",
"E  c #618F5E",
"W  c #5C8562",
"Q  c #578862",
"!  c #5B9562",
"~  c #658465",
"^  c #638D61",
"/  c #639663",
"(  c #679A66",
")  c #72986C",
"_  c #68A569",
"`  c #6BA46A",
"'  c #6DAB6A",
"]  c #72A56B",
"[  c #73AA6C",
"{  c #79AB6E",
"}  c #72B36C",
"|  c #77B86E",
" . c #68AF72",
".. c #7BAB72",
"X. c #76BA73",
"o. c #76C677",
"O. c #7BC474",
"+. c #7BCD76",
"@. c #7ECC7C",
"#. c #7ED57A",
"$. c #7DDB7C",
"%. c #85B775",
"&. c #84BB75",
"*. c #83C575",
"=. c #8CC67A",
"-. c #84CB7A",
";. c #88CA79",
":. c #91CC7E",
">. c #84D57B",
",. c #8BD67C",
"<. c #83DB7D",
"1. c #8CDB7C",
"2. c #93D47D",
"3. c #92DC7E",
"4. c #86E07E",
"5. c #93E07F",
"6. c #565D82",
"7. c #585F83",
"8. c #5D6284",
"9. c #5D648B",
"0. c #666A87",
"q. c #636A8E",
"w. c #6D728D",
"e. c #73798B",
"r. c #656B91",
"t. c #6C7294",
"y. c #6C739A",
"u. c #777B95",
"i. c #71779E",
"p. c #73799F",
"a. c #767CA2",
"s. c #797FA3",
"d. c #7C848A",
"f. c #7C819A",
"g. c #7D82A3",
"h. c #7F85A9",
"j. c #77D180",
"k. c #7DDC83",
"l. c #85889A",
"z. c #8B9199",
"x. c #8388A4",
"c. c #8187AA",
"v. c #858BAC",
"b. c #898EAE",
"n. c #8C90A6",
"m. c #8D92AC",
"M. c #9497A9",
"N. c #8A8FB0",
"B. c #8C91B2",
"V. c #9196B2",
"C. c #9499B6",
"Z. c #9D9FB0",
"A. c #969BB9",
"S. c #9A9EBA",
"D. c #9EA1AC",
"F. c #9EA1B5",
"G. c #9DA1BD",
"H. c #A0A2AE",
"J. c #A2A5BA",
"K. c #ABADBC",
"L. c #AEB1BB",
"P. c #B0B2BD",
"I. c #94CE80",
"U. c #83D681",
"Y. c #8AD680",
"T. c #84DD84",
"R. c #8BDD84",
"E. c #98D482",
"W. c #92DE83",
"Q. c #99DD82",
"!. c #A2DF89",
"~. c #86E084",
"^. c #8CE284",
"/. c #93E384",
"(. c #9BE385",
"). c #99E885",
"_. c #96E688",
"`. c #9BE589",
"'. c #9EE98A",
"]. c #A2E485",
"[. c #A3E589",
"{. c #A4EA8B",
"}. c #A9EC8C",
"|. c #A3A7C2",
" X c #A5A9C3",
".X c #AAADC5",
"XX c #AEB1C8",
"oX c #B4B6C2",
"OX c #B7B9C5",
"+X c #B3B6CB",
"@X c #B6B9CE",
"#X c #B9BCCD",
"$X c #BCBED1",
"%X c #BFC1CC",
"&X c #BEC1D3",
"*X c #C3C5D5",
"=X c #C7C9D6",
"-X c #C6C9D8",
";X c #CACCDA",
":X c #CFD1DC",
">X c #D2D3DE",
",X c #D4D5E1",
"<X c #D7D8E2",
"1X c #DCDDE6",
"2X c #DEDFE8",
"3X c #DFE0E8",
/* pixels */
"^.~.T.T.T.T.T.k.k.k.~.~.k.k.~.~.k.k.k.k.$.<.1.1.1.1.>.<.#.$.$.$.>.>.#.#.<.1.1.2.2.1.5.5.`.Q.W.W.R.R.",
"T.T.T.R.^.T.T.k.k.~.~.~.~.~.~.~.k.k.k.k.$.4.<.4.1.<.<.$.<.#.$.#.<.<.$.4.4.1.1.1.3.5.(.5.`.W.R.T.T.^.",
"T.T.R.~.~.T.T.k.k.~.~.^.^.^.k.k.k.k.k.$.4.4.<.<.$.$.$.$.$.<.$.<.4.<.<.4.1.1.5.5.5.5.(.(._.R.R.R.R.^.",
"T.^.^.k.k.k.~.~.~.^.^._.^.~.~.j. .T 0 0 p s p p p 0 0 0 p p p p f ! O.<.1.5.5.5.5.(.(./.R.R.R.R.R.^.",
"T.T.k.k.k.~.~.~.^.^.^.^.^.R.k.X.Q 4 o o o o O O O O O O + O O X $ p _ -.,.3.5.5./.(.5.5.3.R.R.R.^.~.",
"T.k.$.T.~.~.^.^.^./._./.W.O._ Q D b B S J L L L L L L L H J F M M S D ! } ,.5.(.(.5.1.3.1.W./.R.T.k.",
"k.T.~.~.~.^.^._.(.(.).).W.' f 9 n d.h.D.K.L.L.L.P.P.P.P.P.L.H.n.u.J u 6 Y *.5.].5.3.1.1.W./.R.T.T.T.",
"T.T.^.^.^.^.^./.].Q.W.I.*./ 6 2 G m.XX&X,X3X1X3X3X1X1X1X1X1X;X#XJ.e.z 4 j { ;.2.1.1.3.W.)./.W.R.^.^.",
"R.R.^.^.^.^.W.W.`.(.*.] R D F 0.l.K.*X>X1X3X3X3X3X3X3X3X3X1X>X;X@XM.e.C S D / } +.1.3.Q.(._./.^.^.R.",
"^.^.^.R.R.W._.`.`.Q.| f 4 m e.M..X*X<X1X2X3X3X3X3X3X3X3X3X3X1X1X:X@XG.l.J t & T O.3.(.].].`./.^.T.T.",
"^.^.R.R.W.W./.).).Q.] r @ z f. X&X,X2X3X2X2X3X3X3X3X3X3X3X3X3X3X1X-X+XV.K > % f *.5.].[.].(./.R.T.R.",
"^.^.R.R.W.R.^.^./.Q.{ r @ z f. X$X,X2X3X3X2X3X3X3X3X3X3X3X3X3X3X1X-X+XV.K > % Y =.[.[.].]./.^.R.R.R.",
"^.R.R.W.R.R.^.).{.]...6 * c u. X$X>X1X1X2X2X2X3X3X3X2X2X3X3X3X1X<X-XXXV.L > % j :.].].].)./.R.R._.^.",
"R.R.R.R.R._.).{.}.`.` 6 @ z f.|.XX@X&X:X1X2X2X2X3X3X3X2X3X1X>X=X$X+X.XV.K > % Y :.{.{.].).^.^./.^.^.",
"W.W.^.^.^._._.'._.Y._ 6 @ z f.G.G.A.G.#X,X2X2X2X3X3X2X2X2X1X=X.XA.A.G.M.0.> 4 R I.}.{./.^.^.^.^.^.^.",
"W.R.R.R.T.^.^.T.T.U.( 6 @ l u.S.N.g.c.|.=X1X1X1X1X2X1X1X1X,X#XV.s.v.A.m.K - % W I.{._.^.^.^././.R.>.",
"1.R.R.T.T.T.~.~.R.R.` 6 o q t.b.v.c.v.|.$X-X-X;X;X;X-X;X;X*XXXA.h.N.N.h.Z - % W ;.).^.^.^._._./.<.>.",
"<.T.T.T.T.~.^.^./.R.` 6 + 2 8.g.v.B.S.|.+X+X+X+X+X+X@X@X+X+X XG.A.h.h.y.v = : Y ;.)./.^.^._.^.<.<.$.",
"$.<.<.T.R.R.^././.W.' r o 1 Z y.c.A.|.|.|. XXX.X.X.X.X.X X X X|.G.N.h.9.q = 4 g -./.^.^.R.T.k.k.$.$.",
"$.<.<.T.R.^.^./.).(.{ i o 1 Z y.c.A.|.|.|. X+X&X&X&X&X@XXX X|.|.G.N.a.9.w = : Y @.^._.^.T.k.k.k.$.$.",
"$.$.4.^.^.4.^./.).(.[ r o 1 Z y.c.A.|.|.|.XX&X;X,X,X,X-X+X X X|.G.N.g.9.w * # Y @.^.^.T.k.k.k.k.$.$.",
"$.4.^.^.^.4.^./.)./.` 6 o 1 Z y.v.A.|.|.|.XX&X;X,X,X,X-X+X X|.|.G.N.a.9.q * % j @.^.T.T.k.k.T.T.k.$.",
"~.^.4.4.<.^.^.).)./.` 6 o 1 Z y.c.A.|.|.|. X+X$X&X&X&X+XXX X X|.G.N.h.9.q = % Y o.T.T.T.T.T.T.T.T.k.",
"^.~.<.<.^.^././.^.R.` r @ 1 Z y.c.A.|.|.|.|. XXX XXXXX X X|.|.|.G.N.a.9.q - & Y o.T.^.^.R.T.T.T.T.k.",
"$.~.T.~.^.^.^.^././.&.R e u n 7.t.v.A.G.|.|.|. X|.|.|.|.|.|.G.A.B.a.q.V b 9 a ( >.^._.^.^.^.T.T.T.^.",
"k.T.R.T.T.R.^.^.(.].2.%.) j u 8 A y.c.V.G.|.|.|.|.|.|.|.|.|.A.N.a.q.x 8 d Q ` X.Y._.^.^.^.R.T.T.~.^.",
"k.T.k.T.<.T.R.).].}.}.2.*.^ 5 * 3 7.y.x.C.G.G.G.|.|.|.|.G.S.N.a.r.c > $ s [ ,.W.(./.^.^.T.T.~.^.~.~.",
"k.T.k.$.<.T./.).}.}.2.%.( s : . > k B 8.w.u.x.m.B.B.B.v.g.y.9.6.c 1 O + 6 W { ;.W.^.R.T.T.^.~.4.k.k.",
"T.T.<.$.T.R./.[.}.}.%.R e % O   o = < 1 3 z 8.y.s.s.s.0.V t 1 < - * .   # 4 d ` -.R.R.T.T.$.$.k.k.k.",
"<.<.$.U.T.W.`.[.!.2.%.r , $ @ = O O o O O < B t.a.a.a.8.q O O O O O = * - - 9 W X.j.U.T.>.k.T.k.k.k.",
"#.$.T.T.W.(.{.E.%.) ~ I P P P L N q 3 3 3 v w.B.S.S.S.g.A q 3 3 8 n J P P P I D Q ( X.#.$.T.T.k.k.U.",
"$.k.R.R._.(.[.=.~ e S z.P.P.oXK.n.t.6.6.6.w.V.#X-X-X*XJ.g.8.6.6.9.f.H.P.OXP.D.e.9 i / j.T.T.k.U.>.>.",
"k.R.R.(.2.2.=.%.h y L H.;X:X%XOXF.h.p.i.i.h.XX:X3X3X1X&XA.g.i.i.g.V..X%X=X:XOXl.z u W  .o.-.U.>.>.$.",
"R././.(.=.%.^ H U d.M.K.#XJ.z.u.f.x.b.b.v.G.@X,X3X3X3X&X XB.h.N.h.g.f.d.Z.oXoXZ.l.U H j W } -.<.$.$.",
"/.).).(.=.R e m z.oX%XOXJ.f.M t 8.h.G.G.G. X&X<X3X3X3X;XXXG.G.G.m.w.b 8 0.Z.oX%X%XH.P 4 0 ! +.$.$.$.",
"/./.(.(.%.h + y z.:X>X%XK.u.t O w f.V.A.A.|.&X,X3X3X3X;X.XG.A.A.b.0., - C M.@X;X<XP.P $ 4 T +.$.>.<.",
"/.(.[.[.%.h $ y z.>X1X>X%Xl.t O q r.h.h.h.A.+X,X3X3X3X&X|.b.h.h.p.C > > L J.:X>X1XP.0.- & ! +.$.R.R.",
"].].(.`.%.h $ y z.=X<X>X=Xn.y O 3 8.y.y.i.h..X>X3X3X<X&XA.p.y.y.q.v - - 0.P.>X>X>XL.P : 5 ! +.4.R./.",
"!.Q.W.Q.=.) d S d.H.H.H.M.P 2 o < q A q.f.h. X&X-X;X;X+XG.g.r.9.B 1 * = M l.H.H.H.z.H i g _ >.5./.^.",
"Q.W.W._.3.=.%.) I M M M m t O   o - 8 8.h.G. XXX@X@X@XXXG.N.t.n < * . . , y M M M S W ! ' O.R.^.W.Q.",
"R.R.Q.].].[.!.%.h , $ $ $ + .     o < A h.G.G.A.C.Z.C.S.G.C.w.k O .     X + + + # 5 T O.<.1.R.Q.Q.`.",
"3.2.(.].].[.[.=.%.h d d d & + . = < q 9.h.h.f.w.w.w.w.u.x.v.t.B 2 - . X % 5 i i i Y _ >.W.R.R.(.(.Q.",
"3.3.(.].].].].Q.%.%.%.%.{ j % O < q 7.r.f.t.V 8 , 1 2 v 0.i.y.9.Z 3 + + r E ' ' ' } O.,.W.R.W.Q.Q.1.",
"3.].].].].Q.(.`.5.}.5.}.2.] r % 8 6.9.9.9.Z w : # # $ 7 v 7.9.7.6.v 4 & j | ,.>.#.#.>.<.Y.R.Y.R.1.>.",
"].].].(.)./.`.`.'._._.^.1.X./ g a w q q q w u s f f f d u l k q l u d W _ O.>.$.$.$.>.,.Y.R.,.>.>.2.",
"].].(./././.`._._.^.T.^.^.R.-.} g 4 = = * 4 f _ | | | ^ e + O * ; i ( X.+.#.$.$.$.>.R.R.Y.Y.>.,.1.2.",
"(./.W.W./._.).^.R.^.^.^.R.R.^.j.! 6 # # # 4 T O.,.1.:.[ h % # # & f } #.$.$.$.>.>.,.1.,.,.>.2.3.2.(.",
"Q.W.^./._./.^.T.$.~.~.T.T.T.T.T.j.$.o.o.o.o.-.>.,.2.Q.3.2.:.*.*.*.-.#.$.$.$.>.>.,.T.>.>.,.1.2.3./.).",
"R.R.^._._.<.<.$.$.k.k.T.T.T.T.^.~.~.k.k.k.$.>.,.W.Q.(.].5.3.1.1.<.$.$.$.$.>.>.>.>.>.<.,.1.3.(.(.5.Q.",
"R./._.^.~.$.$.$.$.k.k.~.T.T.~.^.~.k.k.k.k.>.1.2.Q.Q.Q.3.3.2.,.1.$.$.$.$.>.>.,.2.,.,.,.3.5.5.5.3.W.Q."
};
