/* XPM */
static char *result[] = {
/* columns rows colors chars-per-pixel */
"50 50 219 2 ",
"   c #16182E",
".  c #151730",
"X  c #161930",
"o  c #191D33",
"O  c #20192F",
"+  c #2D1B31",
"@  c #1C2135",
"#  c #1E2337",
"$  c #212B36",
"%  c #22263C",
"&  c #242B3D",
"*  c #282E3E",
"=  c #3B2339",
"-  c #25323B",
";  c #29363E",
":  c #2B3B3E",
">  c #452439",
",  c #522036",
"<  c #6D273D",
"1  c #262B42",
"2  c #2A2D44",
"3  c #2A2F48",
"4  c #2D3245",
"5  c #2E3D42",
"6  c #2F334A",
"7  c #313947",
"8  c #32364B",
"9  c #34394D",
"0  c #363A52",
"q  c #3A3E53",
"w  c #393E59",
"e  c #702D43",
"r  c #2E4741",
"t  c #324542",
"y  c #344A43",
"u  c #38464B",
"i  c #3A5548",
"p  c #3D4255",
"a  c #3D4656",
"s  c #3D5252",
"d  c #3D644C",
"f  c #3F4462",
"g  c #415B4A",
"h  c #404955",
"j  c #43465B",
"k  c #454C5C",
"l  c #494C5E",
"z  c #5C4359",
"x  c #495A59",
"c  c #43634D",
"v  c #44684E",
"b  c #4B6657",
"n  c #4C6C53",
"m  c #52695C",
"M  c #4B7656",
"N  c #547C59",
"B  c #454A66",
"V  c #4A4E64",
"C  c #494E6C",
"Z  c #4B5460",
"A  c #4E526A",
"S  c #52556B",
"D  c #555769",
"F  c #4D5372",
"G  c #555A72",
"H  c #555A75",
"J  c #5B5F79",
"K  c #675268",
"L  c #586B69",
"P  c #587863",
"I  c #5D6273",
"U  c #5C6972",
"Y  c #5E627A",
"T  c #61657D",
"R  c #656A7A",
"E  c #687677",
"W  c #6A7974",
"Q  c #9C3B50",
"!  c #8D586C",
"~  c #A36073",
"^  c #B46B7D",
"/  c #55825B",
"(  c #5C845C",
")  c #588B5C",
"_  c #5A935F",
"`  c #61855F",
"'  c #63905E",
"]  c #578A61",
"[  c #5D9363",
"{  c #668B65",
"}  c #629363",
"|  c #689966",
" . c #6F946B",
".. c #5DA06A",
"X. c #68A569",
"o. c #6BAA69",
"O. c #74A46B",
"+. c #74AC6C",
"@. c #79AA6E",
"#. c #6DB36E",
"$. c #73B56E",
"%. c #75A971",
"&. c #77B973",
"*. c #7CC474",
"=. c #76C974",
"-. c #7EC679",
";. c #7DCB7C",
":. c #7CD57A",
">. c #7DDB7C",
",. c #84BB75",
"<. c #87C87A",
"1. c #91CA7E",
"2. c #85D57C",
"3. c #8BD57C",
"4. c #83DB7C",
"5. c #8BDB7D",
"6. c #92D37E",
"7. c #92DC7E",
"8. c #93E07F",
"9. c #5A6085",
"0. c #666B86",
"q. c #6A6E84",
"w. c #6C7183",
"e. c #6D728A",
"r. c #727884",
"t. c #72768D",
"y. c #76798B",
"u. c #797C8B",
"i. c #686E93",
"p. c #6D7295",
"a. c #767A93",
"s. c #757A98",
"d. c #767CA2",
"f. c #787EA2",
"g. c #9E7488",
"h. c #798286",
"j. c #7D8199",
"k. c #7C82A4",
"l. c #7E84A8",
"z. c #7DDC83",
"x. c #7EE086",
"c. c #838595",
"v. c #86899A",
"b. c #8C909D",
"n. c #B68596",
"m. c #8286A1",
"M. c #868AA4",
"N. c #868BA9",
"B. c #8A8EAB",
"V. c #8E8DA9",
"C. c #8E91A2",
"Z. c #8E92AC",
"A. c #9295A2",
"S. c #9195AE",
"D. c #9599AF",
"F. c #9C9EAC",
"G. c #8F93B3",
"H. c #9196B4",
"J. c #9599B5",
"K. c #9A9DB4",
"L. c #969BB8",
"P. c #999EBA",
"I. c #B39AAB",
"U. c #A69AB1",
"Y. c #9EA1AC",
"T. c #9EA2BB",
"R. c #A5A8B8",
"E. c #B1A9B7",
"W. c #AFB1BD",
"Q. c #C396A5",
"!. c #C5A7B6",
"~. c #94CB80",
"^. c #84DD84",
"/. c #8CDB87",
"(. c #8BDD84",
"). c #86DF8D",
"_. c #93DD83",
"`. c #95DA86",
"'. c #9ADD84",
"]. c #A0DF83",
"[. c #85E184",
"{. c #8DE284",
"}. c #87E08A",
"|. c #8DE18E",
" X c #94E284",
".X c #9BE385",
"XX c #9CE987",
"oX c #96E689",
"OX c #9BE38C",
"+X c #A2E485",
"@X c #A3E68A",
"#X c #A3E98B",
"$X c #A9EB8E",
"%X c #A4A7C0",
"&X c #A6A9C2",
"*X c #ABAEC5",
"=X c #AEB1C5",
"-X c #AEB1C8",
";X c #B3B4C5",
":X c #B8BAC5",
">X c #B3B5CA",
",X c #B6B9CC",
"<X c #BBBDCC",
"1X c #BBBED1",
"2X c #C3BECD",
"3X c #BFC1D3",
"4X c #C2C3CE",
"5X c #C2C4D4",
"6X c #C6C9D6",
"7X c #CBCDDB",
"8X c #D2CCD8",
"9X c #CFD0DD",
"0X c #D2D3DD",
"qX c #D4D6E1",
"wX c #D7D8E3",
"eX c #DBDDE6",
"rX c #DEDFE8",
"tX c #DFE0E8",
"yX c #E0E1E9",
/* pixels */
"OXoX|.).|.|./.|.}.}.}.|.|.).).|.|.).).).[.{. X X_._._._.^.^.(.^.5.5.(.(.(._.7.'.`.'..X@X@XOXOXOX|.|.",
"{.}.^.^./.^.^.^.>.z.z.[.[.x.[.[.x.z.z.z.>.>.4.5.5.5.4.>.2.>.>.>.4.4.>.>.2.3.3.7.7.7._.oXoX X_.(.(./.",
"[.^.).^.(.[.^.^.z.z.[.{.{.}.{.[.z.z.z.>.>.4.4.4.5.>.>.>.4.>.>.>.4.4.4.2.4.3.7.8. X_._.oXoX(.(.^.(.{.",
"^.^.{.{.[.z.z.[.[.x.{.{.{.{.;...d d d d d c v c d d d d d c d v _ =.4.5.5.8.8.8.7._..X X/.(.(.(.(.{.",
"^.^.^.^.z.z.[.[.[.{.{.{.{.).=.M r . o X X X     X           . $ c o.4.5.5.8.8.8..X.X8.8.(._._.(.{.[.",
"^.^.z.>.>.[.[.[.{.{. X(.<.&.| P f a a a k V k k l l l k k j p a m } o.*.2.8.8.8. X8.7.7.7.(.(.}.^.^.",
"^.^.z.[.[.[.{.{. X X X~.o./ b L 0.h.j.C.A.A.A.A.A.A.A.A.A.c.a.w.L m M | <.8..X.X.X7.7.5.7. X(.(.^.^.",
"^.^.^.(.{.{.{. X X.X X<.{ i 9 U N.R.3X6X0X9X0X0X0X0X0X0X7X<X*XS.q.u r N &.7.8.8.7.5.5.8. X X(.(.(.{.",
"4.(.(.(.{. X{. X_.<.$. .P Z H j.R.5X9XeXyXyXyXyXtXtXyXyXeX0X5X*XM.J Z P { @.<.<.5.5.5..X.X X X{.{.{.",
"^.{.[.{.{.{.(. X`.O.N c L w.M.R.1X0XwXeXtXtXtXtXtXtXtXtXtXwXqX5XR.V.t.U x n | *.3.5..X+X.X.X X{.^.(.",
"{.{.{.(.(.`. XoX3.} i 2 G m.&X3XqXeXtXtXtXtXtXtXtXtXtXtXtXtXeXwX5X*XB.T 7 : / &.5..X+X+X@X.X X^.^.^.",
" X{.}.(.(./. X X<.} y * G M.-X3XqXrXtXtXtXtXtXtXtXtXtXtXtXtXtXeX6X>XD.T 4 5 M =..X+X+X+X+XoX{.(.(.(.",
"{.[.(.(.`.(.[.{.3.} y 2 G M.-X5XwXrXrXrXtXtXtXtXyXrXyXrXtXtXtXwX6X>XH.T 8 ; M <.+X@X+X+XXX X{.{.{. X",
").(.(./.(.{.{.XX6. .y 1 S m.&X1X9XeXrXrXtXtXtXtXrXyXrXyXtXeXeX0X1X*XB.9.4 : ( 1.#X@X@X+X X{.{.{.{.{.",
"(._.(. X{.{. XXX6.} t 1 C s.H.&X1X6XqXeXtXtXtXtXyXtXrXrXrXqX7X5X*XJ.f.F 2 : ` 1.$X$X#XoX{. X X{.{.[.",
"(._.(.{.(.5.{.{.2.] r % B 9.k.H.&X1X6XeXtXtXtXtXtXtXrXrXeX7X1X*XJ.N.p.C 2 : ` 6.$X#XoX{.{.{.{.{.5.5.",
"5.5.^.^.^.[.[.[.2.] t % f 0.d.m.N.K.>X7XwXtXtXtXtXtXtXwX9X3XT.M.m.f.i.C 1 5 P 6.#XoX X{. X{. X X4.4.",
"4.4.^.^.^.[.[.{.2.[ t & C p.m.p.0.q.S.>X6X0XtXtXtXtX0X7X3XD.t.Y e.k.d.F 2 : ( <..XoX X{.{. X8.4.4.>.",
"4.>.4.5.^.^.[.{.2.] y 1 F m.B.T q j q.K.,X7XeXtXtXtX7X,X%Xa.Z 0 G m.B.Y 6 5 ( <. X{.{.{.[.(.z.>.>.>.",
">.>.4.5.^.(.{.oX<.} y 1 G M.B.J 3 3 S a.H.-X7X9X9X7X,XT.j.Y 6 1 S m.Z.T 6 : / -. XoX{.{.^.z.z.z.>.>.",
">.>.>.4.8.[.8.{.2.} y 1 G M.B.J 3 % 9 V q.S.-X3X3X,XU.t.A q 1 % S m.Z.T 4 ; / *.{.{.{.^.z.z.z.z.>.>.",
">.>.4.{.{.{.4.{.3.} y 1 G M.B.I 3 X O % j t.T.*X*XP.g.D 1 # o # S m.Z.T 6 : N -.oX{.[.z.z.z.z.^.>.>.",
"x.[.{.8.4.4.{.{.2.' y 1 G M.B.J 2 X + = z g.T.>X>X-Xv.K > + o % A m.B.0.6 r / <.{.[.[.^.^.^.^.^.^.z.",
"{.{.4.>.4.{.oXoX<.[ t 1 G M.V.J 2 + , < ! n.3X7X7X5XI.! e , + % S m.Z.Y 6 : / *.[.[.{.{.).(.).^.^.^.",
"[.4.z.^.(.{.{.{.<.} i 4 G v.M.J 8 = < Q ~ Q.8XqXwX9X!.^ Q Q = + S c.N.T 9 r / -.{.{.oX{.{.{.(.^.^.}.",
">.x.^.[.[.5.^.{.(.@.( m L w.q.J C K ! g.n.I.;X,X,X>X!.n.g.~ K C G q.e.U m M X.3. XoX{.{.{.(.^.^.[.{.",
"x.x.^.^.>.>.^.{.].6.,.,.P x B J p.b.I.!.!.I.G.B.G.G.L.E.!.I.V.a.T C k P | &.<..XXX X{.(.^.).{.[.[.[.",
"x.x.^.z.>.^.(. X@X].~.,./ t 4 T Z.*X2X2X;XL.l.d.d.d.H.*X5X<X-XK.q.0 ; n +.~. X+X.X X^.^.(.[.^.>.z.z.",
"z.^.^.>.^.5.{. X].1.,.N g - 6 R R.;XR.C.b.S.K.P.L.L.J.A.C.F.=XW.t.q $ i N O.,.~.{.(.(.^.^.4.>.z.z.z.",
"2.2.4.>.^.(. XXX~.,.b : - o 8 y.;X;Xc.D T A.<X6X6X5XF.R D y.E.<Xc.h o $ 5 c | z.[.[.[.4.>.z.^.z.z.z.",
"4.>.>.^.^._.`.`.,. .x 8 7 8 k u.E.Y.T 2 p u.W.4X4X:Xb.l 2 D A.W.c.D 8 7 8 h P %.&.^.^.4.z.^.z.z.^.2.",
">.>.^.(._._.,.O.W  .W u.r.u.u.u.u.R h % 4 D r.u.u.u.D 8 % q I y.u.u.u.u.u.r.{ P ] #.2.(.^.^.4.2.2.2.",
">.z.(._.8.6.,.b h W Y.:X3X3XY.h.V 4 % o @ 1 7 9 9 8 2 % o % 2 a q.Y.<X<X<XR.W h i | ;.^.^.2.2.2.2.>.",
"^.(._.(.<.,.{ m k g.W.7X4X3XU.E p 3 4 6 9 0 p p q p q 9 6 3 2 0 T A.:X4X0X<Xv.D x ] o.&.*.2.2.>.>.>.",
"{. X X<.' P E  .c.F.=X;XF.c.R J C C H 9.e.y.c.c.c.c.u.w.0.G F C G R u.A.=X>XU.b.h.E M / o.:.>.>.>.>.",
" X X_.@.n 7 R F.4X3X>XT.e.j 9 B 9.i.k.G.T.;X4X6X6X5X<XR.H.l.p.9.C 0 p q.S.-X1X5XR.E q i _ =.4.:.>.5.",
" X X'.O.g * I E.wX7X5XR.q.8 1 B i.l.T.-X,X1X3X3X5X4X1X,X-XT.B.d.F 3 2 Y D.<X8XwX:Xw.4 r ) =.>.4.(._.",
"+X+X'.O.g * L E.wXwX9XW.y.9 2 F j.T.-X3X3X*XT.J.J.K.&X1X5X,XT.N.J 8 8 R R.7XqXeX:Xw.4 r ) =.4.5._. X",
"+X.X_.X.g ; R Y.0X0X0X:Xu.q 3 G N.&X1X7X3XT.l.d.d.d.J.,X9X3X-XB.0.8 3 R W.0XqX0XW.E 7 y _ -.(. X_.oX",
"'._._.&.` b U c.F.Y.F.b.T 6 1 j 0.j.J.-X*XH.l.k.f.l.H.&X-XT.M.e.C 2 1 D c.F.Y.Y.b.E c M X.2.{._._..X",
"`.5.6.3.,.@.{ L D D D l 9 % o 2 p F i.N.G.G.H.H.H.H.H.H.B.p.G w 6 @ @ 7 k D D Z L P [ #.-.5./._..X.X",
"3.6.7.'.8.1.O.g * - * - $ o o o # 0 F i.k.B.H.J.L.J.B.m.p.H w & @ o   @ $ $ * - y ) &.5.(.(.'..X.X_.",
"3.7.].+X].].,.` n n n c r # O 8 a J 0.k.k.p.e.e.e.e.p.f.l.p.J V 9 % @ : i c c c N X.=.5.(.(._._.5.3.",
"7..X+X+X+X].3.<.,.@.&.| n - 1 A t.l.B.H.j.Y f 0 0 w G s.G.Z.M.s.G 4 $ g ' o.o.X.#.=.:.2.3.(.(.2.3.3.",
".X.X+X.X.X X X.XoX X/.&.] i u I k.S.G.Z.j.S 5 - & ; Z e.Z.S.S.v.T a y / $.2.>.:.>.>.2.5.(.3.3.3.3.6.",
".X+X.X.X{.{.oXoX X X/.z.#.) M L U Y U 0.U m n n n n P L T T T T L m N X.=.:.>.>.2.2.(.5.3.2.3.3.7.7.",
".X.X_. X8.oXoX X^.(.~.^.z.z.X.P s 3 6 6 s / X.#.$.O.] x 7 6 7 9 n } $.=.:.>.4.4.4.3.2.3.3.3.6.7._..X",
"_._.(.{.oXoX{.4.>.>.z.z.z.z.&.M - . . . r / *.2.3.3.O.i o     $ v o.:.>.>.4.2.2.2.2.3.3.3.7.8. X.X.X",
"(._.{. X X{.>.>.>.>.z.z.^.^.^.$.[ ] ] ] ..#.:.5.7._.<.O.' ` ) _ o.=.>.>.>.2.5.3.3.2.3.7.7.8.8.8..X_.",
"/.{. X{.[.z.>.>.>.x.z.z.z.{.[.[.[.}.[.x.x.>.3.7.'. X.X7.7.7.5.4.>.>.>.>.2.4.3.3.3.3.3.8.8.8.8.7._._."
};
