/* XPM */
static char *result[] = {
/* columns rows colors chars-per-pixel */
"50 50 156 2 ",
"   c #766E56",
".  c #6E725F",
"X  c #76875D",
"o  c #74A264",
"O  c #7AA669",
"+  c #7DAA6C",
"@  c #7BB46E",
"#  c #7CB672",
"$  c #7DCF77",
"%  c #7FC97C",
"&  c #7DD679",
"*  c #7DDC7C",
"=  c #85946D",
"-  c #878B77",
";  c #8D8B72",
":  c #928E77",
">  c #879570",
",  c #869870",
"<  c #8D9A72",
"1  c #94947C",
"2  c #9A957B",
"3  c #9D997E",
"4  c #80A96C",
"5  c #89AF76",
"6  c #94A57D",
"7  c #82B773",
"8  c #83BB74",
"9  c #85BD7A",
"0  c #88BF7A",
"q  c #90B47B",
"w  c #85CA77",
"e  c #88CB77",
"r  c #86C379",
"t  c #88C179",
"y  c #91C57D",
"u  c #84D67B",
"i  c #8BD67C",
"p  c #83DB7C",
"a  c #8CDB7C",
"s  c #90D77C",
"d  c #92DC7D",
"f  c #98DD7E",
"g  c #93E07F",
"h  c #9DE07F",
"j  c #578B98",
"k  c #6F989A",
"l  c #6EBD89",
"z  c #5C9DB5",
"x  c #569DBD",
"c  c #6B8FA7",
"v  c #6394A3",
"b  c #6895A7",
"n  c #679AA7",
"m  c #6A9BA6",
"M  c #699BA9",
"N  c #719DA3",
"B  c #5EA4BC",
"V  c #7CA5AC",
"C  c #6BA4B7",
"Z  c #61A3BD",
"A  c #7BD581",
"S  c #7DDC83",
"D  c #6ECEAD",
"F  c #64CAB3",
"G  c #6BCBB4",
"H  c #63CDB9",
"J  c #68CFBA",
"K  c #71CEB6",
"L  c #6AD0B9",
"P  c #3FAEE9",
"I  c #3EA6FF",
"U  c #3CABFF",
"Y  c #3BB2F6",
"T  c #37B6FF",
"R  c #38B6FF",
"E  c #37B8FF",
"W  c #4B93DD",
"Q  c #479CDD",
"!  c #489ADD",
"~  c #5BA4C3",
"^  c #5BA7C9",
"/  c #57A8CE",
"(  c #47A6D1",
")  c #44A5DD",
"_  c #43A9DD",
"`  c #429EFF",
"'  c #46ACE3",
"]  c #40AFEB",
"[  c #45B0E8",
"{  c #40A2FF",
"}  c #40B2F1",
"|  c #969C87",
" . c #9E9C82",
".. c #969D89",
"X. c #989E89",
"o. c #839E96",
"O. c #8D9E92",
"+. c #A19E85",
"@. c #9CA385",
"#. c #97AF86",
"$. c #9BA984",
"%. c #9BA08B",
"&. c #8CBD81",
"*. c #9CB185",
"=. c #9DB58D",
"-. c #85A19D",
";. c #8AA198",
":. c #98A494",
">. c #90A69E",
",. c #A4A186",
"<. c #A5A38A",
"1. c #A9A68C",
"2. c #ACA98E",
"3. c #B1AC8F",
"4. c #A2B38D",
"5. c #A4BD8D",
"6. c #AAA791",
"7. c #A7AF91",
"8. c #AEAB91",
"9. c #B1AE92",
"0. c #B1AF99",
"q. c #A6B391",
"w. c #ACB596",
"e. c #A2B890",
"r. c #ADB598",
"t. c #B3B094",
"y. c #B5B39A",
"u. c #B8B69B",
"i. c #B1B99B",
"p. c #BAB89E",
"a. c #83A3A4",
"s. c #B9B7A2",
"d. c #BCBDA5",
"f. c #BFBFA9",
"g. c #C1BFAA",
"h. c #89C282",
"j. c #8ACF80",
"k. c #93C781",
"l. c #94CA83",
"z. c #9BC881",
"x. c #85D781",
"c. c #8CD781",
"v. c #84DD84",
"b. c #8BDD84",
"n. c #93DE83",
"m. c #9BDD82",
"M. c #A1DE83",
"N. c #A7C091",
"B. c #86E084",
"V. c #8CE284",
"C. c #94E284",
"Z. c #9BE385",
"A. c #96E788",
"S. c #96E889",
"D. c #A1E485",
"F. c #C2C1AC",
/* pixels */
"V.V.v.v.v.b.v.v.S S S S B.S S B.B.S S S S * p a a a a u * * * * p u p * u p a s s d g Z.S.n.n.b.b.b.",
"V.V.v.v.v.V.v.S S S B.B.B.B.B.V.B.S S S * * p p a p * * * u * * * p * p a a s d g g C.C.S.n.b.b.b.b.",
"B.v.b.V.V.v.v.v.B.S B.V.V.V.B.S S S S S & u t 0 t r 9 r $ u * * p p p p a a g g g C.C.C.C.b.b.v.V.V.",
"v.v.b.B.v.S S B.S B.V.V.V.V.V.S S A % % =.q.u.u.F.F.f.d.4.q w e a p a p a g g g g Z.Z.C.b.b.b.b.b.V.",
"v.v.v.v.S S B.B.V.V.V.V.V.V.V.c.h.=.r.g.F.g.6.1.y.0.0.6.d.g.d.$.5 w u g a g d C.C.Z.g d a n.n.b.B.B.",
"v.v.S S S B.B.V.V.C.C.C.A.n.k.e.f.F.d.8.<.+.,.,.2.2.2.,.+.1.0.y.u.q.q e a d C.Z.Z.d d a d b.b.V.v.v.",
"v.S v.v.V.B.V.V.C.A.Z.Z.n.5.d.F.y.6.<.2.9.t.2.1.t.9.t.t.t.9.1. .1.s.F.w.y C.D.Z.C.d d d n.C.b.v.v.v.",
"v.x.v.V.V.V.V.V.A.Z.Z.m.N.g.y.1.6.0.r.9.y.9.6.<.2.8.9.t.t.t.6.<.t.,.<.s.i.y n.n.a a a C.C.Z.b.b.V.V.",
"p b.b.V.C.V.b.V.S.m.m.r.f.8.2.w.t.9.t.t.9.9.9.9.8.,.9.t.t.t.1.u.t.t.2.,.y.w.k.i u a C.Z.Z.C.C.V.b.v.",
"v.V.V.B.b.b.n.C.S.m.e.d.8.3.t.t.t.t.t.9.t.9.3.9.1. .1.9.t.9.1.t.t.t.t.t.,.y.r.8 i f Z.D.Z.Z.C.b.v.b.",
"V.V.V.b.b.n.n.C.n.e.d.<.2.t.t.t.t.t.t.9.%.a.M z x x z V O.,.1.t.t.t.t.t.9.,.8.7.y Z.D.D.D.Z.V.b.v.b.",
"V.V.V.b.b.n.b.V.l.r.8.8.1.1.2.t.t.3.:.C _ Y E E E E E Y Y / a.2.9.t.t.t.9.2.<.8.*.Z.D.D.Z.A.V.b.b.C.",
"V.B.b.b.b.b.B.b.=.6.6.t.t.y.<.1.,.N ' T E R E R R R R R E E Y ^ :.2.t.t.1.8.t.+.1.z.D.D.Z.V.V.b.V.A.",
"v.b.n.b.n.b.A.l.8.2.t.t.t.t.t.%.Z Y E E R R R R R E R R E R R R _ -.3.9.8.,.8.2.,.*.D.S.A.V.V.A.V.V.",
"b.n.n.b.V.V.n.*.6.2.9.t.t.t.<.B Y R E E R R R R R R R R R R R R E [ o.2.y.1.2.t. . .y A.V.V.V.V.b.B.",
"b.b.b.b.b.v.j.%.X.1.,.,.1.+.n Y E R R R E R R R E E E R R R R E E E _ ..9.9.,.8.1.: 5 V.V.C.V.g b.p ",
"a a b.v.v.v.&.<.9.p.t.9.9.O.P R E E E U R { { { { { R E R R R R R R R Z 2.t.1.,.9.: > x.V.S.A.V.p p ",
"p p p B.v.v.#.,.9.t.t.t.2.~ R R E U { ` { { U R R { { { R R R R R R R Y >.9.3.+.1.2 ; t V.C.V.p * u ",
"* * p p x.x.6 <.9.9.9.9.O.] E R { ` U R R R R R R R R { { { R R R E R R Z +.2.y.y.2.: 9 V.v.S S * * ",
"* * p p x.b., 1.t.t.9.3.m E R { ` R E E R R R R R E R R R ` R E R R R E _ X.t.t.t.t.; @ S S S S * * ",
"* * * p a V.6 2.t.t.t.2.~ T U ` R E E R E R U R R E R R R { { R R R E R } ;.9.t.t.t.1 # S S S S * * ",
"* * p V.V.a 6 t.t.2.1.1 ( R ` R R R E E { ` ` { ` { } E R R { { R R R R E k 3.t.t.t.3 # S S v.v.S * ",
"S B.V.B.B.p 6 9.9. .6.| _ { { R R R R ` { R E E R U ` { R R E { R R R R R m 3.t.2.,.1 # B.v.v.v.v.S ",
"V.V.p p a b.6 6.6.,.9.X.) ` E E R E ` { E U { ` { U R ` R E E { U E R E R M 3.t.2.1. .8 V.B.B.v.v.v.",
"B.S S B.B.b.6 y.u.t.t.| Q { R R E R ` R R ` { { { ` U U { E E { I E E R R M 3.9.1.1.3 9 V.V.v.v.v.V.",
"S S B.B.B.x.6 t.t.t.t.| ! U R R E { { E { { { { { ` { R { E E U { E E E E v ,.9.,.,.@.9 V.V.v.B.V.B.",
"S B.S B.* & = 8.t.t.t.| W U E R R { U E ` { ` E U ` { R { E E { I E R R R M 9.p.y.t. .# v.v.B.B.B.S ",
"S S S S * & , 9.t.t.t.| W R R E E { U E { U ` R E ` U { { E E { U R E R R b 9.9.t.t.+.# B.V.B.* S S ",
"S x.v.p * u , 9.t.t.t.| W E R R R { { E { { U ` { { R { R R R { U T E R E M 3.t.t.t.+.@ B.* * S S S ",
"x.p p * v.x., 6.9.9.9.| W { R R R U { E E { { U } { ` { E E { { E R E E R n 2.3.9.9.3 @ S x.v.S S S ",
"p * * S b.c.> 6.6.,.9.| ! { R E R E { { E E U { { { R R R R { R R R E E R b 9.<.<.r.1 # v.S S S x.x.",
"* * v.v.n.n.< t.t.1.y.%.) { R R R E E ` { E E E E E R R R { { R R R R T T M t.2.8.u.,.# v.v.p u u u ",
"* S v.n.Z.m.< 9.t.+.2.| _ I U T R R R U ` { U R R U U { ` U R R R R E R U c 1.+.2.t.+.# v.u i u & * ",
"* b.C.C.Z.m.< 8.t.2.t.| _ U ` T E E R E E U ` ` ` ` { U R R R E R R R R ` b 9.6.9.t.3 @ u u u p * * ",
"b.C.C.A.Z.M.< 9.t.t.t.%.) T I I E E R R E E R R R R E E R R R R R R R ` U M 9.t.t.t.+.@ p u * * * * ",
"C.C.C.Z.D.M.< 9.t.t.t.| _ T R ` { E R E R E R R R E R R E R R R R R { { E m 3.t.t.t.+.@ * * p & p v.",
"C.C.Z.D.D.m.< t.t.t.t.| ) T T T ` { E E R R R R R R E R R R E E { { { E E m 3.t.t.t. .@ * * u u b.n.",
"Z.D.D.Z.Z.M.< 8.t.t.t.| _ E E T R { ` U R E R E R R R R R R R { ` R R R E M 3.9.t.t.@.@ p u p a C.C.",
"D.D.m.n.n.m.< 2.2.2.9.| ) T E R R E U ` ` { U R R R R U { { ` { R R R R R b 2.9.1.2.3 @ p p V.V.n.C.",
"Z.n.n.n.Z.m.1 y. .8.y.| _ T R R R E E E R I ` ` ` ` ` ` { R R E R R R R R M 3.y.,.2.,.@ p b.C.b.n.Z.",
"n.c.d C.Z.M.< 9.1.9.u.X._ E R R E E E R R E E R R R R R E E R R R R E T E m t.t.1.8.,.@ V.b.b.n.Z.Z.",
"c.i d m.D.M.< 9.2.8.t.| _ E R R R T E R R R R R R R R R R R R R R R R R E m 3.t.2.t.3 7 C.b.n.Z.Z.n.",
"i s m.Z.D.m.< 3.2.3.t.| _ E R R R R T T R E R R R R E R R R E E R E R R E m 3.t.2.9.3 7 n.b.n.m.a i ",
"d f D.D.D.f = 2 1 2 3 - ) E R R R R T T R R R R R R R R R R E E R R R R R v 2 2 1 2 ; 7 b.c.x.i i i ",
"C.Z.D.D.Z.n.X         . _ T T T T T T T T R R R R R R R E E T E R T T E T j           # c.x.i i i s ",
"Z.D.Z.Z.n.C.w 4 + O O # D L L L J H H H F F F F F G F G K K K K G G G F H l o o o o + u a u i a i f ",
"Z.Z.C.n.V.C.S.S.V.V.V.V.B.V.V.V.v.S B.p u & u u i i s f h h h g d d i p * * p p c.c.a i i i s d n.Z.",
"n.n.b.C.C.S.A.p p * B.v.v.v.x.v.B.B.B.S * * u u i s f M.h h f s a p * * * * u u u u u i i s f C.Z.Z.",
"n.n.b.A.A.V.B.* * * S S v.v.v.V.V.v.S S S & u i s m.n.Z.f d s i u * * * u u a u u i i s s g C.C.m.n.",
"n.b.C.V.B.v.* * * * S S v.v.B.B.B.v.S S S S i n.m.n.Z.m.f i u p * * & * u p i i i i i d g Z.g d n.n."
};
