/* XPM */
static char *result[] = {
/* columns rows colors chars-per-pixel */
"50 50 130 2 ",
"   c #796F59",
".  c #757258",
"X  c #7D735C",
"o  c #71875B",
"O  c #738E5E",
"+  c #73925F",
"@  c #759662",
"#  c #769C64",
"$  c #79A469",
"%  c #7FA96D",
"&  c #75B56B",
"*  c #7BBC6F",
"=  c #77BC75",
"-  c #7CBE74",
";  c #7EC077",
":  c #7CD779",
">  c #7DDB7C",
",  c #86866C",
"<  c #84956B",
"1  c #85996E",
"2  c #8A8B72",
"3  c #918D76",
"4  c #879B71",
"5  c #8B9D71",
"6  c #929376",
"7  c #919C75",
"8  c #95927B",
"9  c #99967F",
"0  c #969E7A",
"q  c #9A9A7D",
"w  c #84AB6E",
"e  c #8CA673",
"r  c #84AC71",
"t  c #8CAE72",
"y  c #92A477",
"u  c #91AF75",
"i  c #98A77B",
"p  c #9AA97C",
"a  c #86B274",
"s  c #8EB174",
"d  c #82BC74",
"f  c #8BBC74",
"g  c #8BB77C",
"h  c #87BC7E",
"j  c #8CBA7C",
"k  c #92B175",
"l  c #90B57F",
"z  c #91BB7B",
"x  c #83C277",
"c  c #86CC77",
"v  c #80C67A",
"b  c #85CB7A",
"n  c #8BCC7A",
"m  c #9DC67E",
"M  c #94CA7B",
"N  c #8CD577",
"B  c #85D67B",
"V  c #8CD67B",
"C  c #83DB7C",
"Z  c #8CDB7C",
"A  c #90D47C",
"S  c #99D37F",
"D  c #92DC7E",
"F  c #9BDE7F",
"G  c #88E07F",
"H  c #93E07F",
"J  c #7DDC83",
"K  c #9C9780",
"L  c #9D9C81",
"P  c #A19E85",
"I  c #A29F88",
"U  c #9DA382",
"Y  c #96AE84",
"T  c #94B383",
"R  c #9DB387",
"E  c #9ABA83",
"W  c #9DB58B",
"Q  c #A4A186",
"!  c #A6A38A",
"~  c #A9A58C",
"^  c #A1A98A",
"/  c #ACA98E",
"(  c #A1B48E",
")  c #A3BB8C",
"_  c #AAA790",
"`  c #AEAB91",
"'  c #B1AE93",
"]  c #B1AF99",
"[  c #ACB597",
"{  c #AABA90",
"}  c #B3B095",
"|  c #B6B39B",
" . c #B9B69C",
".. c #B3BE9C",
"X. c #B7B6A0",
"o. c #B9B6A1",
"O. c #B5BAA0",
"+. c #BBBBA4",
"@. c #BFBFA9",
"#. c #C1BFAA",
"$. c #8BC081",
"%. c #91C482",
"&. c #95CD82",
"*. c #9CCB83",
"=. c #8CD681",
"-. c #84DD84",
";. c #8CDD84",
":. c #9DD584",
">. c #93DE83",
",. c #9BDE82",
"<. c #A1D486",
"1. c #86E084",
"2. c #8CE284",
"3. c #94E385",
"4. c #9BE485",
"5. c #96E887",
"6. c #9CEA86",
"7. c #96E688",
"8. c #9CE689",
"9. c #9DEA89",
"0. c #A2E485",
"q. c #A1EB86",
"w. c #A5E688",
"e. c #A4EB8B",
"r. c #ABED8D",
"t. c #B0EF8E",
"y. c #AFF08E",
"u. c #B3F18F",
"i. c #C3C2AC",
"p. c #C6C4B0",
/* pixels */
"2.2.-.J -.;.-.-.J J J 1.J J J 1.1.J J J > C Z Z Z Z N C : C : > C N : C C N Z Z N D H 4.3.>.3.;.;.;.",
"2.1.-.-.;.1.-.J J J 1.1.J 1.1.2.J J J J > > C G C Z C > > > > > : C : > C G N D F D 3.4.8.>.;.;.;.2.",
"1.-.;.;.1.-.J -.J 1.1.2.2.2.1.J J J J J > G C C G : > > : : > > C C C C G Z D H 3.>.3.4.3.;.;.-.;.2.",
"-.-.2.1.J J -.1.-.1.2.2.2.2.1.J J J J > 2.2.;.C : > > > G C G G G G N G Z H H H D >.4.3.;.;.;.;.2.2.",
"-.-.-.J J J 1.1.1.2.2.2.2.2.2.-.J 1.Z 5.2.2.C : : : : C G H G Z Z C G Z D H D D 4.3.3.D >.;.;.;.2.-.",
"-.-.J > 1.1.1.2.2.3.3.7.7.2.2.2.2.5.5.>.n h T Y W W W W x n N Z C Z Z Z Z H H 3.4.D Z D Z >.;.2.J -.",
"-.J -.-.1.1.2.2.3.3.3.4.7.3.2.3.2.&.%.( O.i.+.X.p.p.p.@.@.[ E f c Z Z C G 4.4.4.H D Z Z 3.>.;.-.-.2.",
"-.-.;.2.2.2.2.5.4.0.4.4.6.9.3.&.) +.i.@.| ` I L ! ! ! K ~ X.@.| ^ l c D 4.4.4.>.D Z D H 3.3.;.;.-.2.",
"-.;.;.2.3.2.;.3.8.4.4.4.w.:.{ +.i.| / Q ~ / / ~ } ] } ' / ~ Q I } @.[ E >.,.3.Z V Z D 3.8.3.3.2.2.2.",
";.2.1.2.;.;.;.8.3.8.6.6.<.o.#.X.~ / ' } } } ' Q ` ' } } } } ` I ~ ! X.@.) &.Z V Z D 4.0.4.8.3.;.-.;.",
"2.2.2.;.;.>.3.3.3.3.6.:.<.#.~ / } } ' } } } } ~ _ ! } } } } / ' } ' ! ! +.R b V H 4.<.q.0.4.3.-.-.-.",
"2.2.;.;.>.;.>.2.5.3.:...o._ ' } } } } } } } } ' } I ' ' } ' ! | } } } / ! X.W B 4.0.w.w.4.3.2.;.;.;.",
"2.2.;.;.;.;.-.5.4.<...] ~ ' } } } } } } / P q 5 7 < 5 Q Q / / ' } } } } ' ~ ] R ,.w.0.0.4.2.;.;.7.2.",
"-.;.;.>.;.;.5.9.0.{ X./ ~ ~ ` } } ' / q e f M 0.F F F M f y P ' } } } } ' ! ! ] E 0.w.6.3.2.2.2.2.2.",
";.>.;.2.7.2.7.5.*.` _ } } ' ~ ~ / q e M H 6.e.e.4.0.q.q.q.0.m p Q ' } } ~ ` ' I ^ :.9.3.2.2.5.G 2.Z ",
";.>.;.;.-.;.2.=.( _ ` } } } ' ~ y M 3.6.6.q.e.q.6.4.6.6.6.e.t.w.z U } ` ~ ! ' ~ ! E 7.2.5.2.2.>.;.C ",
"Z ;.-.;.-.-.-.$._ ~ ' ' } ' / i S 6.4.4.9.e.r.e.6.0.9.9.q.y.e.6.6.*.p ' ' ~ / ' q U n 5.2.7.3.2.C C ",
"C C -.-.-.-.;.T I ! ! ! / / y S 6.5.3.6.e.r.e.e.e.e.9.9.y.e.6.5.e.y.m P ' ' Q ' ! 8 d 2.2.3.2.C > > ",
"> C C -.-.;.=.U ~ | | ` ' I a 6.3.3.e.r.e.e.e.e.e.e.e.r.y.e.9.y.u.u.0.y ' } ! ~ ` 3 4 ;.2.-.J J > > ",
"> > C C -.;.%.! / } } } ' 7 N 4.6.q.r.r.9.e.r.r.r.e.r.t.r.e.r.y.u.r.r.M Q ' ` I / 8 2 b J J J J > > ",
"> > > G G 2.j P ' } ' } Q t 4.4.q.y.r.q.q.r.u.t.r.r.y.r.e.r.u.r.r.e.9.6.e P _ ' | / 2 - J J J J > > ",
"> > G 2.2.G a 9 } } } ' 7 A 4.q.e.y.q.e.r.u.u.r.r.r.9.9.y.y.r.r.q.q.q.9.f P } | } ' , = J J -.-.J > ",
"J 1.2.G C 2.s ! } ' } ' y F e.e.e.6.q.r.t.u.u.r.e.9.r.r.u.r.r.9.q.q.6.6.n q ' } } } 6 - 1.-.-.-.-.J ",
"2.1.G G -.5.z ` } ` ! I t e.e.6.6.6.e.t.u.u.t.e.9.r.u.u.u.r.9.9.q.9.3.5.D e ' } ' ' q x 1.1.;.-.-.-.",
"G > J -.2.2.z ~ / Q ! ~ k y.6.6.9.e.t.u.u.y.e.9.e.u.u.y.r.e.9.9.9.6.5.9.5.e ' ' / I 6 x 2.2.-.-.-.2.",
"J J -.;.-.-.g _ ' ~ / ~ t 6.6.6.e.t.u.u.u.y.e.9.r.u.r.r.9.9.q.q.6.6.9.9.3.e ' } / ~ L v 2.;.-.1.1.2.",
"J 1.J J > -.g ` | | } ~ t 6.6.6.r.u.u.u.r.e.e.r.y.y.r.r.q.6.6.6.9.e.e.7.D 5 ` ' ~ ! L - 1.-.2.1.1.J ",
"J J -.J > -.r ~ } } } ~ w 6.6.y.u.u.u.t.r.r.e.e.e.e.9.9.6.6.6.6.6.6.6.7.3.< ! ' ! ~ L - 1.2.-.> J J ",
"-.-.C C C ;.% ~ } } } ! a e.r.u.u.u.u.u.t.r.6.4.6.6.q.q.q.6.5.5.6.6.7.9.e.5 } | | } q ; -.> > J J J ",
"B C > J -.2.r ! } } } ~ s r.u.u.u.u.u.u.r.6.4.4.6.q.e.e.6.5.6.H 7.9.9.r.8.5 ' } } } 0 ; J B J J J -.",
": > C -.;.3.t ! } } } ! k y.u.u.u.u.u.r.q.4.8.e.w.r.e.q.4.4.6.6.7.9.e.e.,.5 ' } } } q * J -.J J -.B ",
"> J -.;.3.4.r L / / / I k u.u.u.u.u.e.e.9.e.r.r.r.r.e.4.5.5.4.4.9.e.e.8.;.4 ~ ~ / / 6 - -.-.-.B B B ",
"> -.;.3.4.q.t ! | ~ ` / k u.u.u.u.r.e.e.r.r.u.r.r.r.w.4.4.4.6.q.e.8.7.3.;.1 | ~ ` | q - -.B B B > > ",
"-.>.3.8.0.w.u ! } ~ / ~ k u.u.u.w.r.t.t.u.r.w.0.0.0.0.4.3.4.6.0.4.3.3.7.;.4 ' ! ' } q - B B B B : > ",
">.3.3.3.0.w.k ! } ~ ! Q k u.u.y.r.u.u.u.u.w.0.0.4.4.4.4.4.4.7.3.3.8.3.>.=.1 / I ` } q * B B > > > > ",
"3.3.4.6.0.w.u ~ } } | / k y.r.r.u.u.u.u.r.0.0.0.4.4.3.4.4.4.3.3.;.>.>.;.=.4 } } ' } 9 * > > > C C =.",
"3.4.w.<.e.0.t ! } ' } ! k r.r.u.u.u.t.w.w.w.9.3.3.4.8.4.4.>.3.>.;.>.;.>.>.4 ' } } } q * > > C C ;.3.",
"4.0.8.,.0.0.t ! } } } ! k r.u.u.u.t.r.w.4.6.7.3.>.>.3.,.>.>.>.;.;.;.;.;.B 4 ' } } } q * C B C Z 3.7.",
"w.,.>.>.4.w.s ! } } } / k t.u.t.t.r.r.6.4.7.5.;.;.;.>.;.>.;.;.=.;.;.;.=.b 1 ` } } } q * C C ;.3.3.;.",
">.>.>.>.4.w.k ! } } } ! k r.r.r.r.w.6.4.7.7.2.;.-.;.-.;.-.=.-.;.>.;.=.V b 1 ` } ' } 0 ; -.;.;.;.,.,.",
">.Z >.,.0.q.t Q ! ! ' P u r.r.r.e.9.7.2.7.3.;.-.-.C C C C C Z Z Z C N N N 1 / ' P ~ 9 d 2.;.;.,.4.4.",
"V D D 0.w.0.t / / `  ./ t e.e.8.7.7.5.3.7.;.-.J > > C C Z Z Z D V V N Z N 5 '  .! } U x 2.>.>.4.,.>.",
"V D 4.0.0.4.t ~ ` / ' ~ t 7.7.5.2.2.3.2.-.-.-.C > B C C Z Z A V V >.D D N 1 ' } ! } q d ;.=.>.>.=.C ",
"H <.0.0.4.0.t ~ ` ` } / r 5.2.2.2.2.2.-.-.> B B B B N H Z N V D ,.D D D N 1 ' } / } q * ;.;.=.B V V ",
"4.0.0.4.3.4.r 9 P I ~ K % 2.2.7.2.-.-.-.> > B B B C Z A A V D F ,.D D D B < P Q P Q 6 d ;.V B V V A ",
"4.0.4.3.>.7.%   X X X . $ 2.2.2.1.-.-.J : B B B C N A A A F 0.F D D Z C : o X X X X . d N B V V A ,.",
"4.4.>.;.2.5.n # + + @ @ ; ;.1.1.-.-.-.J > B B B N V >.4.0.0.H D Z N C C > & O O O O # c V N A >.>.4.",
">.;.2.3.7.3.2.C > C 1.-.1.-.-.-.-.1.J J > > B V V D F 0.4.F D Z Z C > > > C B B B B B N V D 3.3.4.4.",
";.>.2.7.7.2.> > > > J J -.-.-.2.1.-.J J J : B A >.,.,.,.F D V V > > > > B N -.N B B V D A 3.H 3.D >.",
">.;.2.2.J > > > > J J J -.2.1.-.-.1.J J J -.A D ,.3.4.D A N C > > > : > B B V V V V A >.3.4.D D >.>."
};
