/* XPM */
static char *result[] = {
/* columns rows colors chars-per-pixel */
"50 50 37 1 ",
"  c #77DB7F",
". c #7BDC7B",
"X c #85D57B",
"o c #8CD57B",
"O c #83DB7C",
"+ c #8CDB7B",
"@ c #91D67B",
"# c #92DC7D",
"$ c #89E07F",
"% c #99E17F",
"& c #7CDC84",
"* c #84DC84",
"= c #8CDC85",
"- c #91DD85",
"; c #99DD81",
": c #86E085",
"> c #8DE385",
", c #93E485",
"< c #9AE485",
"1 c #96EA85",
"2 c #9BEA85",
"3 c #96E688",
"4 c #9BE789",
"5 c #9DEA8A",
"6 c #A3E485",
"7 c #A2EB86",
"8 c #A5E789",
"9 c #A8E78B",
"0 c #A3EB8C",
"q c #ABEC8E",
"w c #B0EE8F",
"e c #AFF08C",
"r c #B4F28F",
"t c #A5EB90",
"y c #ACEC90",
"u c #B1EE90",
"i c #B5F290",
/* pixels */
">,>*&**O.&&$:&&&:&&&&O+++++o..O.XOXXX$@oo+<<<-,-==",
">>&**>=*&&&::&:1&&&&.O$O++X..X...X..Oo#+#%,<<-=**>",
">&*=*>*&:&&:>>>&&&& ..OOO...O....$O+$++%,=,<,***,>",
":*>>>& >:&>,>>:&&&&.$,>O....XOOO++O$+%%+#<<,=-=*>>",
"****& ::&>,>>>>*&&*,2,$....O$1$+$OO+$,#+<<%=--=>>O",
"**& .:::,>>>,,>:>132>&....O>$$++O+++++%<,#+@+=>=&*",
"=*&:*&:>>,<3<<>>,,1:&.&*O>,,$..O+#+O#<<<%+@#,,=**>",
"*&=*->1>,66<122<,>*&.O=>>>:&..+++OO,<<<-#++,<-**>=",
".===>,>>3<<<78753***$,,>>:***==**=3<<<<o+O-33->,>*",
".,::====<<3225t5,:>>,3>*>**==,=&><-<;-oOX#666<>=**",
">>,>==<,<<<22y0,>>,,>>&****,<,34<<<<#X++%<666<>*&=",
">>>*--=>>><0y0>,,3,>>1,=>>,<<,5t<;6-=OO#<866<,*=-,",
">:====*=12qu1>,,<<<,2t222172<57,<<-=*==6q666,>=>>,",
"**--==>28rt,>,<<,,27722e7772222266,,;<0y689<>=>,>>",
"*--=,>,27,:=-<,,><052,7q2<7777qw6,<689yqqt3>>,,:$$",
"=-->=O:>**=>>,,1275<<2q7<<2220rq6;69yqqyt5,>>,>+$O",
"++=******>,>,,27q5,219u022752ee12qruqyqt2,>>>,3>.O",
"OOO****>,>>><2qq7,,<0e79t022rq>>0irqqyt3<,>>,<+O.O",
"..OO***,>,227qr<,,5qq72t055qi53eiityt03<,>,>:. &..",
"..OOO*>1,,5teq,>,2qw25yqy0uiqtiiiq07211>>>>>&&&&..",
"...O>>$:>17t2>,<2ri72qrrteue5eiuq75221>>,>>*&&&&..",
"..O$>$O>,221>,<2qw229rieyq52tiu0727723,,>>&&&&*=O.",
"&&>>*O>,,,1><72eq2<qyrry917eiit5775>112,:&=******&",
">1$..>3,,>>>7eq7%17iiriq1qiiit71751125,>:*>>**:*&*",
">.&*:>>>>>,7rq7,<0yrriq,5iirq527111251>>,>>,>>*&*,",
".&*=>***>,8wu7,15wrrrr25tiyt7772550011><<3>>>**:>>",
"&:&&&.*=<2qr8212qrrrr50treyt72125052,>273,>***,>.&",
"&&&* O*,20u01220rrrutiy70t777222252,2007,>**>*. **",
"&**O.O=,5wq7570rrrrrrq7<<15777,,22,0ty73=***...&&&",
"=XO.**=<qq80qyqrrrrir2,<<5q07,,2230tt7<**>:.&**&&*",
"X..&*=<qqqyy0trrrriq51,07qy7%,<<<5tt3,,=-:*.**&X*X",
"..**-<,6qiiy0rrrrrq517euuq0<22<<70t4>,>OO*-**&XXXX",
"..*=,<66wwyquiiirq777ewqqq6<,<6795,,-==*==*&*XXX..",
".=<,<69uwwqwwwriq8eiii86966<<<72,,,,=----=*XoXXX..",
"=<,,<6qywqurrriq8rrriq666<<<<<,,-3<--==-=XXXX.....",
",>,<696999uirr79rrrwe66<,,<<<<,,,---=--=XXoX.OX.X,",
",-;96666qurrrq9urri8690><,36<----=---=*XXXX...OX,<",
"<69;;669qrrywqwiriyq6,34=-<;--;====-+XXoXXXOXXO,,=",
"66;=-68yqyyqqirrqyy7,23>==-=-=*==-=*XXo@ooOO.*,,=<",
"6--=36tyyqqyiyy9yt6,43,*=**=O=*==-oXXO@+@#OXo,==;9",
"=-+;6699qyyyy8tyt5,,,2=*&O.OOO+#+XXo++o@#OO==+=;6;",
"oo+;66<;6qyyttq52,>,3*&*..XOO+#+Xo@++@@@+OX,>=68-*",
"oo<66<666t7705,>>>>,=*OOOXoO+$@oo#%+++oXXXX-o=-=Xo",
"o;866<6<,053,>>,>>>**.OXXX+#+@@@6#+%+@oX...X=-XXo@",
";<66<<,,5,>:=>>>>>**.XXXXX#@@o@6%+##O....Xo-=Xoo@@",
"<66,=>>5,>>>>>>,>&&&OXXXOX@o@66%+##+.X..X==XXX@o-3",
"6<-==,5,>O,>*****&*&..XXX@#<66#+@#O...XX=oXX@oo#46",
"-==,>5,O. :&****=>*&..XXo@66<%@@X....X*XXXooo#<<;;",
"-=>>3>....&&***>>&&&&.Xo;-6;%o@o...OXo+oXoo#;<;+--",
"=->,*&OO..&&&>>&&>:&&Xo;#-6##o.....XXXoooo@,2#+=3-"
};
