/* XPM */
static char *result[] = {
/* columns rows colors chars-per-pixel */
"50 50 216 2 ",
"   c #2F2D26",
".  c #352925",
"X  c #3B2D2A",
"o  c #2D3226",
"O  c #2D3829",
"+  c #35362A",
"@  c #3D352A",
"#  c #55282B",
"$  c #41352A",
"%  c #44372C",
"&  c #4B3B2D",
"*  c #513E2D",
"=  c #493830",
"-  c #493C34",
";  c #543C35",
":  c #65282E",
">  c #6C2D32",
",  c #792E34",
"<  c #6F3435",
"1  c #713334",
"2  c #79393A",
"3  c #33402D",
"4  c #3A4F37",
"5  c #53412E",
"6  c #474236",
"7  c #554331",
"8  c #5B4430",
"9  c #564938",
"0  c #48553A",
"q  c #56573C",
"w  c #614731",
"e  c #644B34",
"r  c #6A4D35",
"t  c #6A483A",
"y  c #72473D",
"u  c #635037",
"i  c #6D5136",
"p  c #645438",
"a  c #6D543A",
"s  c #685D3D",
"d  c #705236",
"f  c #74553A",
"g  c #75593C",
"h  c #7B5C3D",
"j  c #4B613F",
"k  c #4E5E40",
"l  c #654E41",
"z  c #784D44",
"x  c #695642",
"c  c #735643",
"v  c #7A5B44",
"b  c #765949",
"n  c #7D5F48",
"m  c #496542",
"M  c #5B7A4D",
"N  c #696542",
"B  c #6D6443",
"V  c #726D46",
"C  c #776549",
"Z  c #6A754A",
"A  c #757349",
"S  c #74794D",
"D  c #6D6158",
"F  c #7C6655",
"G  c #646264",
"H  c #833539",
"J  c #843C3F",
"K  c #8C393D",
"L  c #80603F",
"P  c #863E40",
"I  c #963E42",
"U  c #884944",
"Y  c #9A4748",
"T  c #805F40",
"R  c #A14546",
"E  c #A64749",
"W  c #A54C4C",
"Q  c #AB4C4C",
"!  c #A8514F",
"~  c #856342",
"^  c #886644",
"/  c #8C6A46",
"(  c #8F6C48",
")  c #916E49",
"_  c #89744B",
"`  c #95714A",
"'  c #9B764D",
"]  c #9D784F",
"[  c #866452",
"{  c #906F57",
"}  c #867558",
"|  c #977559",
" . c #B7645D",
".. c #A17C51",
"X. c #927A66",
"o. c #997965",
"O. c #AD7265",
"+. c #A37964",
"@. c #C6796C",
"#. c #568752",
"$. c #598853",
"%. c #5D995F",
"&. c #70804F",
"*. c #688353",
"=. c #738252",
"-. c #788A58",
";. c #639A5D",
":. c #6C9B5B",
">. c #749B5D",
",. c #7A9C5E",
"<. c #72A45F",
"1. c #769D61",
"2. c #65A265",
"3. c #79A564",
"4. c #76B46A",
"5. c #7BBA72",
"6. c #7AC16E",
"7. c #7BC977",
"8. c #7AD277",
"9. c #7BD67A",
"0. c #7DDC7C",
"q. c #86875B",
"w. c #82995F",
"e. c #A78054",
"r. c #AB8456",
"t. c #AF8758",
"y. c #B08858",
"u. c #96896B",
"i. c #9A8869",
"p. c #859F62",
"a. c #A4836B",
"s. c #AC866D",
"d. c #A78872",
"f. c #B68A73",
"g. c #B08F73",
"h. c #B89579",
"j. c #BD947A",
"k. c #84A663",
"l. c #8BAB6A",
"z. c #88B56E",
"x. c #90B36E",
"c. c #89BE72",
"v. c #97B872",
"b. c #C48B77",
"n. c #D38C79",
"m. c #C2977C",
"M. c #84C473",
"N. c #8AC776",
"B. c #83CC76",
"V. c #8CCE79",
"C. c #93C174",
"Z. c #93CE7A",
"A. c #86D277",
"S. c #85D67C",
"D. c #8CD67B",
"F. c #84DB7C",
"G. c #8CDB7C",
"H. c #92D57C",
"J. c #9BD77E",
"K. c #92DC7E",
"L. c #91E07F",
"P. c #7DD581",
"I. c #7DDC83",
"U. c #9B979B",
"Y. c #BFA897",
"T. c #B9ACA7",
"R. c #AEAFBB",
"E. c #C89D81",
"W. c #D89680",
"Q. c #CCA485",
"!. c #CDA789",
"~. c #D3AB8A",
"^. c #D6B090",
"/. c #DCB292",
"(. c #E3AB8F",
"). c #E3B796",
"_. c #E4B896",
"`. c #E7B998",
"'. c #E9BC9A",
"]. c #C8B2A5",
"[. c #DCBBA3",
"{. c #E0BEA5",
"}. c #84DD84",
"|. c #8CDD84",
" X c #92DE84",
".X c #9ADD81",
"XX c #A2D883",
"oX c #86E084",
"OX c #8DE285",
"+X c #94E385",
"@X c #9BE485",
"#X c #96E885",
"$X c #9BE986",
"%X c #97E789",
"&X c #9BE689",
"*X c #97E888",
"=X c #9EEA89",
"-X c #A2E485",
";X c #A0E886",
":X c #A4E589",
">X c #ABE589",
",X c #A4EA8C",
"<X c #ABEB8E",
"1X c #B0E689",
"2X c #B0EF8F",
"3X c #B3F18F",
"4X c #AAEC90",
"5X c #EDC29E",
"6X c #F0C39F",
"7X c #ECC4A3",
"8X c #F2C6A1",
"9X c #F4C8A3",
"0X c #F2CEB3",
"qX c #C4C3CE",
"wX c #E9DAD7",
"eX c #E9DEE1",
/* pixels */
"}.}.|.OXoXI.I.oXoXI.oXOXOXOXOX}.I.I.P.P.9.F.G.G.G.S.9.9.9.9.S.F.F.F.F.F.G.F.G.G.L.L.L.L.@X+X+X|.|.|.",
"}.}.}.}.I.I.I.oXoXoXOXOXOXOXOXOX}.P.4.:.>.1.1.,.>.:.:.:.:.<.7.L.L.G.F.G.F.G.G.L.L.L.L.L.+X@XK. X|. X",
"}.}.}.I.0.oXoXoXOXOXOX+X*X+XOXD.}.5.Z l u p p p p p p p q N 3.G.G.G.G.F.G.L.G.L.J.L.L.L.L.K.K.G. X|.",
"}.}.I.I.oXoXoXOXOX+X+X+X*X+XN.>.=.=.V a f h ~ ^ ~ ^ ~ ~ h g A <.B.F.F.G.L.F.F.L.L.L.L.L.K.G.G.K.|. X",
"}.}.}.|.}.}.OXOXOX+X@X@X.XH.3.s e p h ~ ^ ' e.t.r.r.r.r.' L h V 4.8.G.A.B.G.L.L.L.3XL.K.K.L.G.+X+X+X",
"I.}.}.}.OXOXOX+X+X@X-X@XZ.w.V g g h ~ ) ] e.t.y.y.y.y.y.r...` _ S 3.B.>.-.N.@X@XL.L.L.K.G.K.+X@X%X X",
"}.|.|.OXOXOXOXOX X@X+XZ.k.V d ~ / ( / ) e.t.e.e.r.e.r.y.y.y.r.] h &.3.Z N z.@X@XJ.L.L.K.G.K.-X@X X X",
"}.OXOXoXOXOX X X@X@XK.,.V g T ^ ` ..) ) e...` ` ) ) ] r.y.y.r.r.e._ A p N z.@XJ.L.L.L.L.L.L.;X-X@X+X",
"|.+XOXOX|.|. X%X%X%XH.=.e h / ` ] ..' ' ] ] ) ( / ) ` e.r.y.y.y.y.` h f h w.c.D.G.F.G.K.@X-X-X-X@X+X",
"OXOXOXoX|. X X X X|.H.S t h ` ..] ` ] ] ` ] ..` ) ] ..` ] r.y.y.r.` L / ` C =.B.F.F.L.@X-X-X-X-X@X+X",
"OXOX|.|.|.|.|.oX+XN.w.A f T ) ] ] ` ] ] ] ] ] ] ' ] ] ` ' ..r.r...) L ^ L i Z B.L.L.@X:X:X-X:X@X+X|.",
"}.}.|. X|.|.OX+X@Xk.s g ~ ^ ^ ) ] ..' ` ..] ) ] e.) ` e.] ` ..e.` / L T h w Z V.+X%X,X,X-X:X&X%XOX X",
"}.|. X X|.OX+X#X@Xw.u f ^ ^ ) ] ] ] ] ] ] ] ] ] ` / ) ` ' ] ] ` / ~ ~ T i w A Z.:X<X<X:X,X=X%XOXOXOX",
"|. X|.OXOXOXOX+X+X,.u f ^ ^ ) ..] ) ..] ) ` ] ) ~ T ~ ~ ) ] / L ~ ~ ^ T f w A J.<X<X<X<X,X%XOXOXOXOX",
"|.|.|.|.}.F.|.OX}.>.u f ~ ^ / ) ] ] ' ) / ^ ~ f r r r r d f d i g L ~ h r w S XX4X4X<X,X*X%XOXOX+XOX",
"G.|.|.}.}.}.}.}.F.,.u f ^ ^ ^ / ' ..) ^ L h f g b n n n n n v g f h L h d w S XX4X4X,X&X%X%XOX%X+X+X",
"F.F.F.}.}.oXoXoX|.,.e f ~ / ~ ^ ^ ( ^ ~ h r r | j.E.~.Q.Q.Q.m.a.c r g g d w S XX4X,X&X@XOXOXOXOX+X+X",
"0.0.F.F.}.oXoXOX|.,.p f ~ ~ / / ~ L i e 8 x { m.).6X9X9X9X6X5Xm.| v d r d V k..X,X&X%X+X%XOX%XOXoX0.",
"0.0.F.F.F.}.OXOXOX,.p f ^ ^ ^ ~ h p & .   F !.'.6X6X6X6X9X9X6X_.E.| e 8 B l..X*X$X#X+XOXOXOXOX}.I.0.",
"0.0.0.F.oXOXOXOXG.,.p f ~ ^ ^ ~ i 7 l b D E.'.9X'.~.~.6X9X9X6X6X).s.c C w.J.$X$X#X+X+XOXOX%X}.I.I.I.",
"0.0.0.L.OXOXL.oX|.3.s f L / / ~ 7 @ X.E./.'.8X9X_.g.h.`.9X9X9X9X6Xh.C p.J.$X$X$X#XOXOXOXOXoXI.I.I.I.",
"0.0.oXoXOXF.L.oXOXN.w.V f L ~ L - @ d.`.'.'.8X9X7X].T.].[.9X9X9X6Xh.~ l.$X$X#X$X#X#X+XOX}.oX}.I.I.I.",
"I.oXoXL.F.F.OX+X#X+XV.&.u h / L 7 % i.!./.'.9X9X0XwXqXU.Y.6X9X5X/.g.} x.;X$XOX$X$X$XOXoX}.OX}.}.}.}.",
"#XOXF.0.F.OXOXOXOXOXD.&.w f L L e & l } ^.'.9X9X0XeXR.G u.5X9X/.a.u.x.K.$X#X$X$X$XOXOXoXoXOXOXOX|.}.",
"I.I.I.oXoXOXOXOXOXOXG.,.B d i i t 8 9 F ^.9X9X9X0XwXT.D u.5X7XQ.[ q.L.$X$X$X=X=X#XOX+XOXOXOXOXOXOX}.",
"0.I.I.oXOXoX}.}.OX+X@XJ.l.B 5 $ 5 c i.Q.5X9X9X9X9X0X{.!./.7X).j.[ q.@X$X=X=X=X#X+X#X+X+X%X+XOXOX|.}.",
"I.oXoXoX}.0.}.|.+X#X;X2XXXw.Z 0 0 e X.E./.7X8X9X9X9X9X9X6X`.E.a.q.l.@X,X=X=X$X#X#X#X@X@X+XOXOX}.}.oX",
"I.I.I.I.I.I.}.OX#X$X<X<X-XH.B.M.M + + x j./.'.5X5X5X5X5X).Q.o.} c.J.*X$X=X$X$X*X=X=X,X+XOXOX}.}.OXoX",
"I.I.}.}.0.F.}.+X$X,X<X2X;X$X,X&Xz.M % # b X.X.X.X.X.a.g.f.a.i.k.J.+X$X$X*X&X=X,X,X,X@X+XOX}.}.oXoXI.",
"}.}.F.0.0.}.|.+X=X<X<X;X,X,X,X4XXXv.b # X X X X X X ; z z C x.J.+X+X$X$X%X=X,X,X,X;X+X|.}.}.}.0.I.I.",
"S.9.0.0.I.|. X%X,X<X<X,X,X<X3X1Xv.} z 2 1 < < < < < J U y y l.+X+X@X&X%X,X,X,X=X&X+XOX}.|.oX0.0.}.}.",
"S.0.0.}.|. X@X:X<X<X2X2X,X4X3X1Xq.1 U Y W Q R Q Q W Q Q K 2 w.Z.@X*X*X=X,X,X=X%X+XOX|.|.|.}.}.}.}.I.",
"0.0.I.}.+X@X@X-X<X<X3X2X4X4X3X1Xq., K Q Q Y H I Q Q Q Q E Y T q.V.&X=X,X,X&X&XOX XOX}.}.|.|.}.}.I.S.",
"0.I.|. X+X@X@X:X<X3X2X<X4X2X3X1Xq., I Q R K H W  .! W Q Q E , c v.&X:X=X&X+X+XOX X|.}.|.|.|.}.}.S.S.",
"}.|.+X+X@X-X-X<X2X2X<X2X2X3X3X1Xq.1 I Y H K W b.W. .! Y W E , c C.;X@X+X%X+X X X X|.|.|.|.}.}.B.S.S.",
"|.+X+X+X@X;X>X<X2X<X<X2X3X3X3X>Xq., I R H Y @.(.'.n. .U Y E , c C.*X@X+X&X X X|.|.|. X|.|.S.}.A.S.0.",
"+X+X+X+X@X:X>X<X<X<X<X3X3X3X3X>X-.> I E Y O.(.8X8X'.f.P K R 1 c N.+X X X X%X X|.|. X X|.S.}.A.9.0.F.",
"+XOX@X-X-X-X-X:X:X<X2X3X3X2X3XXXS # , P P O.'.9X9X8Xb.2 , H # l c. X X X X X X|.|.|.S.S.V.A.S.9.0.F.",
"+X@X-X:X-X-X-X-X<X<X3X3X3X1X<X:X*.  # : > O.'.9X9X9Xb.2 : # . 6 5. X X|.|. X|.|.|.V.S.S.S.S.0.0.S.9.",
"-X-X.X.X@X-X:X>X<X1X3X3X<X<X<X>X*.  ; z < o.'.9X9X8Xm.z < t X 4 5.|.|.|.|. X|.|.A.S.S.S.S.S.F.S.S.F.",
":X.X X X X-X:X<X<X2X<X<X<X2X2X>X*.+ l C l o._.8X9X7Xj.c g V 6 4 5.|.|.|.K.G.G.A.S.S.G.D.G.G.F.F.F.|.",
".X X X X@X@X:X4X4X<X<X4X2X<X4XXXM   B F 6 [ ~.{.8X).a.; s A 6 4 4.G. X|.F.F.F.A.D.H.G.H.G.G.F.F.|. X",
" X|. X X@X-X:X,X4X<X<X<X4X4X4X:X1.k B x $ l +.E.j.g.[ $ 9 C 0 j 6.F.G.D.D.D.D.G.K.G.H.G.F.F.F.G.D.|.",
"D.H.K..X-X:X-X-X:X<X<X4X4X,X,X,XH.3.m @ % & - 6 - - = % $ 4 $.4.S.G.D.S.D.G.G.G.D.H.G.D.F.F.G.+X|. X",
"D.K.J.@X-X-X@X@X:X,X4X,X,X,X=X&X@XB.4   8 8 % $ @ $ & w $ O ;.G.G.G.D.G.K.K.H.G.H.D.D.S.S.D.|.|.|. X",
"D.K.-X-X-X&X-X-X@X=X,X,X&X&X*X+X+X7.m + a h f f c g g v & 3 :.G.H.H.K.J.K.K.K.H.G.D.S.F.S.F.F.G.|.|.",
"K.@X-X-X@X@X@X@X%X&X%X%X+XOXOXOXOXS.:.m 0 * 7 7 7 8 7 7 q M 4.D.L.J.@XJ.K.K.K.G.F.F.9.0.0.S.|.|.|.D.",
"@X@X-X@X.X+X+X%X%X%XOXOXOXOXOXOXOX|.}.2.4   o o o o o O #.M.H.K.J.L.J.L.G.K.F.F.0.0.0.0.S.S.|.D.D.S.",
"-X@X@X+X X|.+X*X+XOXOXoXOXOXOXOXOXoXoXP.%.#.#.#.#.#.#.$.4.|. XJ.;XL.L.K.K.F.F.0.0.0.0.S.F.G.D.S.D.D.",
"@X@X X X X+X*X+XOX}.L.OXOX}.}.}.}.}.I.}.P.7.8.8.8.7.A.V.H..X-XXXJ.K.L.L.D.0.0.0.0.S.S.D.|.F.S.D.H.D."
};
