/* XPM */
static char *result[] = {
/* columns rows colors chars-per-pixel */
"50 50 211 2 ",
"   c #2E2E25",
".  c #2E2B28",
"X  c #352E26",
"o  c #332F2C",
"O  c #2E3428",
"+  c #34322C",
"@  c #3C332A",
"#  c #393633",
"$  c #45362A",
"%  c #45372A",
"&  c #4C3B2C",
"*  c #523F2E",
"=  c #463C32",
"-  c #4A3C33",
";  c #4A3F3A",
":  c #354631",
">  c #3B4A36",
",  c #57402E",
"<  c #5E442F",
"1  c #4C4434",
"2  c #594637",
"3  c #5E4A34",
"4  c #524C38",
"5  c #41583C",
"6  c #58513A",
"7  c #614936",
"8  c #644A34",
"9  c #6A4D35",
"0  c #625136",
"q  c #6E5037",
"w  c #6D543A",
"e  c #645D3D",
"r  c #695E3D",
"t  c #725437",
"y  c #73553A",
"u  c #755A3C",
"i  c #7A5C3E",
"p  c #64623F",
"a  c #464242",
"s  c #4A4647",
"d  c #484B41",
"f  c #4C4A49",
"g  c #574C46",
"h  c #475F40",
"j  c #4D5B46",
"k  c #555252",
"l  c #5A5655",
"z  c #5A5E54",
"x  c #5D5A5A",
"c  c #624D42",
"v  c #684F41",
"b  c #695343",
"n  c #665648",
"m  c #6D5C4C",
"M  c #7C5E42",
"N  c #78584A",
"B  c #625752",
"V  c #625E5C",
"C  c #566747",
"Z  c #4C774B",
"A  c #56774B",
"S  c #5A7E50",
"D  c #696742",
"F  c #6B6D46",
"G  c #716442",
"H  c #7F6446",
"J  c #736A44",
"K  c #7C6D4E",
"L  c #6F7047",
"P  c #6E754A",
"I  c #73754B",
"U  c #787B4E",
"Y  c #6D625C",
"T  c #776356",
"R  c #677954",
"E  c #656262",
"W  c #696666",
"Q  c #79716E",
"!  c #81603F",
"~  c #856443",
"^  c #886644",
"/  c #8D6A46",
"(  c #84694D",
")  c #8E6D48",
"_  c #916E49",
"`  c #96724B",
"'  c #9B764D",
"]  c #9E784F",
"[  c #8C6B57",
"{  c #846C5B",
"}  c #916F5A",
"|  c #8D7159",
" . c #9F7A50",
".. c #95715C",
"X. c #A37D51",
"o. c #947C65",
"O. c #9C7E69",
"+. c #887B72",
"@. c #A37C67",
"#. c #5F8452",
"$. c #5A975F",
"%. c #658C58",
"&. c #768053",
"*. c #768B55",
"=. c #7C8658",
"-. c #69955C",
";. c #76955A",
":. c #7C9A5D",
">. c #6A9E60",
",. c #749B61",
"<. c #6AAB68",
"1. c #78A764",
"2. c #74AE65",
"3. c #73B065",
"4. c #75B26A",
"5. c #7EB36B",
"6. c #7DB872",
"7. c #78C36F",
"8. c #7AC977",
"9. c #7CD27D",
"0. c #7DDB7C",
"q. c #828B5C",
"w. c #83955F",
"e. c #A78053",
"r. c #AB8456",
"t. c #AF8758",
"y. c #B08858",
"u. c #8B8F62",
"i. c #9C836A",
"p. c #949A68",
"a. c #958477",
"s. c #A8866B",
"d. c #AD8B72",
"f. c #B58D74",
"g. c #BB947B",
"h. c #83A867",
"j. c #84A965",
"k. c #84B46B",
"l. c #84BA6E",
"z. c #8AB86D",
"x. c #98AF71",
"c. c #8BBE72",
"v. c #84C575",
"b. c #85CB76",
"n. c #8CCC76",
"m. c #8CCD79",
"M. c #94C276",
"N. c #91CD79",
"B. c #85D57B",
"V. c #8BD67C",
"C. c #83DB7C",
"Z. c #8CDB7C",
"A. c #93D47D",
"S. c #92DC7D",
"D. c #98DB7F",
"F. c #A3CC7D",
"G. c #94E07F",
"H. c #77D480",
"J. c #7DDC83",
"K. c #86878F",
"L. c #AD9685",
"P. c #B5A59C",
"I. c #B1ACB1",
"U. c #C19F83",
"Y. c #CCA486",
"T. c #C8A589",
"R. c #D4AA8C",
"E. c #D5AB8C",
"W. c #C9AB94",
"Q. c #DCAE90",
"!. c #D5B294",
"~. c #DCB393",
"^. c #E1B594",
"/. c #E3B896",
"(. c #E4BA99",
"). c #E9BD9B",
"_. c #DCBCA3",
"`. c #87D780",
"'. c #84DD84",
"]. c #8CDD84",
"[. c #9CD280",
"{. c #93DE84",
"}. c #9ADD81",
"|. c #A4D782",
" X c #86E084",
".X c #8DE285",
"XX c #93E385",
"oX c #9BE385",
"OX c #95E985",
"+X c #9BE986",
"@X c #96E688",
"#X c #9BE688",
"$X c #9EE98A",
"%X c #A2E485",
"&X c #A1E987",
"*X c #A4E689",
"=X c #AAE689",
"-X c #A4EA8C",
";X c #ACEC8E",
":X c #B1EE8E",
">X c #B3F18F",
",X c #ABEC90",
"<X c #EDC29E",
"1X c #DEC7BB",
"2X c #EFC5A1",
"3X c #F2C6A2",
"4X c #F4C8A3",
"5X c #F4CBA9",
"6X c #EDCBB2",
"7X c #D3CDD5",
"8X c #F0D8CC",
/* pixels */
".X.X'.'.'.].'.'.0.J.J. X XJ.J..X XJ.J.J.0.C.C.Z.Z.Z.C.C.C.0.0.0.0.C.C.0.C.Z.Z.Z.A.G.G.G.#X{.{.].].].",
".X X'.'.'. X'.J.J.J. X X X X.X.XJ.J.J.J.0.C.C.C.C.C.0.0.0.C.0.0.C.C.0.C.C.Z.Z.G.S.G.+XG.XX{.].'.]..X",
" X'.]..X X'.'. XJ.J. X.X.X.X XJ.J.J.J.J.0.C.Z.C.C.0.0.0.0.C.0.C.C.C.C.C.Z.Z.G.G.G.{.oXXX@X].].'. X.X",
"'.'. X].J.J.J. X X X.XOX.X.X XJ.J.8.4.4.5.l.5.2.3.3.3.7.C.Z.Z.C.Z.Z.C.Z.Z.G.G.G.G.oXoXXX].].].].]..X",
"'.'.'.J.J.J. X X X.X.X.XXX.X.X].9.-.D e e p e e p p p ;.B.Z.Z.Z.C.Z.C.Z.Z.S.G.XXXXXXS.S.Z.{.].].'. X",
"'.'.J.'. X X X.XXXXXXXXXXXXX.Xv.,.U i t t i y q t i t I ;.;.1.0.Z.Z.Z.Z.Z.G.XXoXG.S.S.Z.S.]..X].'.'.",
"'.J.J.'. X X.X.XXXXXD.A.}.XXZ.1.G )  .) _  .` / ' ] ! ! 0 e p 3.B.V.Z.Z.G.XXoXXXoXS.Z.S.XXXX].].'..X",
"C.'.].]..X.XOX.XoXoXz.;.M.N.w.U ) X.t.e. .' ' X.' ' e.! i i i p 1.C.Z.G.+XoXoXS.Z.Z.S.XXXXXX].]..X.X",
"'.].]..X@X]..X].#X}.,.b :.j.G i X.r.y.y.e.` ' e.' ` e.` ! / ! t P k.V.{.#X}.XXV.V.Z.{.#X#XXXXX.X.X'.",
"'..X.X'.].].{.@XoX{.:.0 w G i ~ _ ] t.y.r.e.' ` ' e.` _ / ! ^ i G P h.}.}.}.V.Z.Z.}.}.%X%XoXXX.X'.'.",
".XXX.X].].{.{.XXA.k.q.i i u u u i ) e.r.y.t.] / ` ] ! ) ^ ^ ^ ^ i t U j.m.Z.C.Z.XXoX%X%X%XoX.X'.'.].",
".X.X X].].{.]..Xl.P i ] X.` t 8 8 i / X.t.r.] / ! _ _ ! ^ ^ ^ ^ ~ H u F 5.'.C.G.oX%X%X%XoXXX].].].XX",
" X.X].].{.]. XXXl.r u ' r.X._ ^ ! i y i ) e.e.' _ ^ ^ ^ ^ ^ ^ ^ ^ ~ q e k.{.XX#X-X*X%X%XoX.X.XXX.X@X",
"'.].{.].].]..X+Xz.p q / ] r.r.r.r.! q 9 i e.y.e.` ^ ^ ^ ^ ^ ^ ^ ^ ~ y r h.A.%X-X=X-X&XoX.XOX.X.X.X.X",
"].{.{..X.X.XXX@Xk.p q ^ _ ' r.y.r.X.) i ! _ e.e.` ^ ^ ^ ^ ^ ^ ^ ^ ~ M M J w.|.,X;X-X$XXX.X.X.XZ.].Z.",
"].].].].].'.]..Xv.P r i ~ / ] X.e.r.r.] _ _ ' e.' ) ^ ^ ^ ^ ^ ^ ^ ^ ~ ~ 8 I [.,X-X$X@X.X.X.XXX.X'.C.",
"Z.Z.'.].'.'. X X`.v.*.w u ^ / / _ X.r.e.e.e.] ` X.] ) ~ ^ ^ ^ ^ ^ ^ ^ ! 8 I [.-X$XXXXX.X.X@XXX].C.B.",
"C.C.C.'.'.'. X X.X.Xl.*.J y y i ^ ` ] X.] X.' ] e.e.) ~ ^ ^ ^ ^ ^ ^ ^ ! 9 I A.$XoXXXOX.X.X@X].'.0.0.",
"0.0.C.C.'.'. XOXXXXXoXN.U 8 9 y ! ~ ! ^ ! / ` e.r.] ^ H i ~ ^ ^ ^ ^ ^ i 9 P N.XXXXXX.X.X].'.J.J.0.0.",
"0.0.C.C.'.]..X.X.X@X-X}.U q } [ t 9 q q q w i ^ _ ~ , % , w ^ ^ ^ ^ ! u 8 P n.OX@X.XOX XJ.J.J.J.0.0.",
"0.0.0.C.G. XG..XXX+X$X}.U N g.f.( N M N y 8 q t i b 2 = = 7 u ~ ^ ^ i t p *.V..X.X.X.X'.J.J.J.J.0.0.",
"0.0.C..X.X.XC..XXX+X+XA.&.( R./.R.Y.Y.T.f.( w 8 9 N d.g.i.c & u ^ ~ t r :.n.G.XX@X X'.J.J.J.'.'.J.0.",
"J. XOX XC.C..XXXXXXXOXV.=.[ E.4X4X4X2X_.W.L.i...} s.Q.).R.n X w ! ! 9 r l.+XOXOX X'. X'.'.'.'.'.'.J.",
".X.XC.0. X.X.XXXXX.X.X{.q.| R.<X3X4X<XP.I.7X1X~.^.^.~./.T.m @ w ! t 8 r l.+X+X.X X X.X.X X X'.'.'.'.",
" X0.J.'. X X.X.X.XXX+X%Xx.p.d.Y.).4X~.Q K.7X8X5X4X3X^.g.| 0 3 y y 9 < e z.+X.X.XXX XXX.X.X.X].'.'..X",
"J.J. X X X'.]. X.X+X&X;X;XM.( @.(.4X!.T Q 7X8X5X4X4X<Xi.= 3 M u 8 < 3 L v.XXXX+X@XXX@X.X X'.'. X X X",
" XJ. X XJ.0.'.].OX$X;X:X-XM.I o.E.).).U.W.6X6X4X4X4X<Xs., 8 y 8 < 3 U l.A.XX+X$X+XXX.X].].'. X X XJ.",
"J.J.J.J.0.'.].XX+X-X:X-X+XN.w...g.Q.).2X4X4X4X5X4X3X).s.2 < w G F P k.XXoX$X&X&XoX.X'.]. X X'.0.J.'.",
"J.'.'.C.C.'.].XX&X;X;X&X&X%X[.x.[ f.Q.).).3X).).).).E.} @ % p j.m.m.}.$X-X,X-X#X.X'.].'.'.0.0.J.J.J.",
"`.B.0.0.'.'.XX$X-X;X-X-X-X=X;XF.p.i.s.f.d.O.O.o.O.o.{ g + C :.N.+X+X$X-X-X&XoXXX].'. X'.0.J.'.J.J.'.",
"B.0.0.'.'.{.oX-X;X;X;X,X,X,X>X:X|.u.N N c # o o o o o o ; -.n.G.+X$X-X-X$X@XXX X].]. X'.J.'.J.J.'.`.",
"0.0.J.].{.oXoX*X;X>X;X,X,X:X>X>X=X=.g c x f f f f f f f f C -.V.$X$X-X$XXX.X.XC.'.C.].'.`.'.J.B.B.B.",
"0.J.'.XXoXoX%X=X>X>X:X,X,X>X>X=Xc.R k V W W W W E E W E l a j c.-X$X#X@X{.].].'.].].].'.'.`.B.B.0.0.",
"J.].XXXXoX%X=X;X:X;X;X;X>X>X>Xc.A z E W E V E W k f E W E f j v.#XXXXXXX{.].{.].{.].`.`.B.B.B.9.0.0.",
"].XXXXoXoX%X=X;X;X;X:X>X>X>X:Xh.d k W E E V Q +.V f l E E f j 6.oXXXXXXX{.].].{.].].B.B.B.0.0.0.0.0.",
"XXXXXXoX%X*X;X;X;X;X:X>X>X>X;X,.d k W x V Q L.W.O.V a k E f j 6.{.{.{.{.{.].{.].`.`.B.B.0.0.B.0.C.C.",
"XXXX#X%X%X%X*X*X;X:X:X>X>X;X=Xh.d k E k V L.!.).W.a.l l E s j 6.{.].].{.{.].].B.B.B.B.0.0.0.B.C.].}.",
"oX%X%X#X|.%X%X*X;X>X>X:X:X;X,Xh.d f x a T !.4X3X2XT.Y l V a f 6.].].{.].].`.B.B.B.B.B.B.B.B.C.Z.XXXX",
"%X*X}.{.XXoX*X;X:X:X,X:X:X:X;X,.# # a # T ~.4X4X4XT.B a a o > 4.].].{.].`.B.B.V.m.V.C.C.C.C.]..X{.XX",
"}.{.{.{.oX*X;X,X,X,X:X,X,X,X;X,.. # ; ; { !.4X4X4XU.B ; ; . : 4.].{.].`.B.V.V.A.Z.Z.Z.C.C.].].{.{.oX",
"{.{.{.{.oX%X*X;X;X;X,X,X,X,X-X,.+ 1 G v ..^.4X4X3XY.N b r @ : 3.Z.Z.Z.n.V.Z.Z.A.Z.Z.C.Z. X].].{.oX%X",
"V.V.S.oX%X%X%X%X*X=X,X,X,X$X*X-.+ 6 K g T R.2X3X).U.b b ( 1 : 3.Z.B.Z.Z.Z.Z.A.Z.Z.V.C.Z.XX].{.}.{.{.",
"V.A.}.oX%X%XoX%X*X,X,X-X-X$X@X>.: e K = 7 f.Q.~.R.O.= 4 K 4 5 3.n.Z.S.S.Z.A.V.Z.B.B.C.Z.].{.{.oX].V.",
"Z.}.%X%X%XoX%X#X}.-X$X#X@X@X.X6.-.C 1 $ - c m m m 2 % & 4 A -.n.D.G.S.S.Z.Z.V.B.C.0.C.V.`.`.{.`.B.V.",
"}.oX%X%XoXXXoX@X#X#X@X@X.X.X.XXXb.Z . & , @ X X X $ * $ O %.n.D.D.G.S.S.Z.C.0.0.0.B.B.`.{.`.V.V.V.A.",
"oXoXoXoX{.XXXX+X@X.X].]..X.X X@XB.Z   < u w w w q y y & O %.G.D.G.G.S.Z.C.B.0.0.0.B.].].V.B.V.V.Z.S.",
"oXoXoX{..XXX@XOX.X X.X X.X X X X9.$.h 6 3 7 7 7 7 3 7 6 C 5.D.S.Z.S.Z.C.0.0.0.C.B.V.V.B.V.V.V.A.}.oX",
"{.{.{..XXX@XXX XC.'..X'.'.'.'. X'.9.<.5           X + A c.D.S.S.Z.B.0.0.0.0.B.B.V.'.B.V.V.S.S.XXoXoX",
"{.{.].XX@X.X'.0.0.0.J.J. X'.'..X.X'.H.$.Z Z S Z A S #.1.S.S.Z.V.B.0.0.0.0.B.V.B.B.B.n.Z.S.S.G.G.XX}.",
"].{.XX.X.X XC.0.0.0.J.J.'. X'. X X'.J.H.H.8.b.V.A.V.}.A.S.Z.V.B.0.0.0.C.B.B.V.Z.V.V.Z.S.G.G.G.G.{.{."
};
