/* XPM */
static char *result[] = {
/* columns rows colors chars-per-pixel */
"50 50 206 2 ",
"   c #2E2A22",
".  c #322C25",
"X  c #332B29",
"o  c #36332A",
"O  c #37382A",
"+  c #422326",
"@  c #44362C",
"#  c #5F3933",
"$  c #543C3B",
"%  c #662C31",
"&  c #722F33",
"*  c #69393A",
"=  c #7A3539",
"-  c #35402F",
";  c #4C4235",
":  c #464836",
">  c #534234",
",  c #534A36",
"<  c #54453B",
"1  c #584639",
"2  c #46573C",
"3  c #52503B",
"4  c #694635",
"5  c #634C35",
"6  c #694D35",
"7  c #79453D",
"8  c #655137",
"9  c #6D5136",
"0  c #655438",
"q  c #6D5439",
"w  c #665A3B",
"e  c #6C5C3D",
"r  c #705237",
"t  c #735539",
"y  c #755A3C",
"u  c #7B5B3D",
"i  c #6C633F",
"p  c #454241",
"a  c #4A4442",
"s  c #494E43",
"d  c #564C48",
"f  c #4F5048",
"g  c #585349",
"h  c #565353",
"j  c #585555",
"k  c #5C5A5A",
"l  c #664E4A",
"z  c #675844",
"x  c #735B47",
"c  c #7F5F40",
"v  c #78534D",
"b  c #665A54",
"n  c #615D5D",
"m  c #496642",
"M  c #556B47",
"N  c #497247",
"B  c #6B6541",
"V  c #6B6C45",
"C  c #6B6A4C",
"Z  c #756342",
"A  c #7F6141",
"S  c #75654C",
"D  c #79654A",
"F  c #726948",
"G  c #7C6B4E",
"H  c #6D7349",
"J  c #6D7549",
"K  c #707248",
"L  c #737A4D",
"P  c #796356",
"I  c #7C6E53",
"U  c #656262",
"Y  c #696767",
"T  c #6C6A6A",
"R  c #746666",
"E  c #796565",
"W  c #86393C",
"Q  c #81603F",
"!  c #8A3E41",
"~  c #943C40",
"^  c #864745",
"/  c #944746",
"(  c #9E4B4C",
")  c #85574B",
"_  c #8E5C5C",
"`  c #9B5757",
"'  c #995A53",
"]  c #925B5B",
"[  c #A44749",
"{  c #A34949",
"}  c #AB4C4C",
"|  c #B24E4E",
" . c #A65353",
".. c #AC5050",
"X. c #846342",
"o. c #886644",
"O. c #8C6946",
"+. c #89684B",
"@. c #926E49",
"#. c #95714B",
"$. c #9A764D",
"%. c #9E794F",
"&. c #856855",
"*. c #8C7553",
"=. c #837D55",
"-. c #8B7B57",
";. c #927759",
":. c #A1695E",
">. c #A27C51",
",. c #866060",
"<. c #8C7562",
"1. c #9B7561",
"2. c #9C7A67",
"3. c #A37C69",
"4. c #B27D6C",
"5. c #59804F",
"6. c #74804F",
"7. c #678657",
"8. c #728452",
"9. c #768B59",
"0. c #679459",
"q. c #6C9A5B",
"w. c #77965C",
"e. c #729C5D",
"r. c #749760",
"t. c #7D9B65",
"y. c #69A663",
"u. c #68A764",
"i. c #7DA264",
"p. c #7AAC68",
"a. c #76B76D",
"s. c #7DB26B",
"d. c #7FC26E",
"f. c #7DCA75",
"g. c #7DD57D",
"h. c #7DDB7C",
"j. c #828F5E",
"k. c #95815A",
"l. c #9B845D",
"z. c #80955B",
"x. c #A78053",
"c. c #AB8456",
"v. c #AF8858",
"b. c #B08858",
"n. c #8A8C62",
"m. c #829C61",
"M. c #889F65",
"N. c #A68571",
"B. c #BC8D76",
"V. c #AF9079",
"C. c #84A364",
"Z. c #86A768",
"A. c #83AD68",
"S. c #82B46B",
"D. c #87B86D",
"F. c #94AD70",
"G. c #87BE74",
"H. c #C2997F",
"J. c #86C473",
"K. c #8BC273",
"L. c #83CC75",
"P. c #8CCD76",
"I. c #8CCC79",
"U. c #93CA77",
"Y. c #85D67B",
"T. c #8BD67C",
"R. c #83DB7C",
"E. c #8CDB7C",
"W. c #93D57C",
"Q. c #9BD57E",
"!. c #92DC7E",
"~. c #86E07F",
"^. c #7DDC83",
"/. c #CB9E83",
"(. c #CBA286",
"). c #D6A98C",
"_. c #DCAE90",
"`. c #DDB292",
"'. c #E6B897",
"]. c #85D681",
"[. c #84DD84",
"{. c #8BDD84",
"}. c #9ED380",
"|. c #93DE83",
" X c #9ADE82",
".X c #A2D582",
"XX c #A4DA84",
"oX c #A5DB86",
"OX c #86E084",
"+X c #8CE285",
"@X c #93E385",
"#X c #9BE385",
"$X c #97E885",
"%X c #9BE986",
"&X c #96E689",
"*X c #9BE689",
"=X c #9DE98A",
"-X c #A2E485",
";X c #A1E987",
":X c #A4E689",
">X c #A9E78C",
",X c #A4EA8B",
"<X c #ABEB8E",
"1X c #B1EF8F",
"2X c #B2F18F",
"3X c #B5F390",
/* pixels */
"+X+XOX[.[.{.[.[.^.^.h.OXOX^.^.+XOX^.^.^.h.~.R.~.E.E.E.R.h.R.h.f.h.R.L.h.R.~.E.!.!.!.!.!.&X X{.{.{.{.",
"+XOX[.[.[.OX[.^.^.^.OXOXOXOXOX+X^.^.^.^.h.R.R.R.R.E.R.h.h.h.h.h.R.R.R.R.E.E.!.!.!.!.%X%X*X|.{.{.{.OX",
"OX[.{.{.OXOX[.[.^.^.OX+X+X+XOX^.^.^.^.^.h.R.R.R.R.h.h.f.R.R.h.h.R.R.R.~.E.!.!.!.@X!.$X$X|.{.[.{.+X+X",
"[.[.+XOX[.^.^.OXOXOX+X+X+X+XOX^.^.^.h.^.T.A.e.e.q.q.q.q.e.Y.~.~.E.R.E.E.E.!.!.!.!.$X$X$X{.{.{.{.+X+X",
"[.[.[.^.^.^.OXOXOX+X@X+X+X+X+X{.OXOX~.!.D.V 5 0 0 0 0 0 i L.P.L.Y.E.R.E.!.!.!.!.$X@X!.!.|.{.{.+X+X[.",
"[.[.^.[.^.OXOX+X+X@X@X@X&X@X+X+X+X&X@Xp.H Z X.@.Q x.Q Q i i i 8.d.R.E.~.~.!.$X#X#X!.E.E.E.|.{.{.[.[.",
"[.^.[.[.+XOX+X+X@XW.D.A.A.A.J.{.&XT.s.L t O.%.v.b.b.b.%.Q u i i w.D.E.~.!.$X#X$X!.!.E.!.@X|.{.[.[.+X",
"[.].[.+X+X+X+X@X$XU.K 0 w w 8.U.{.a.V y O.>.v.v.b.b.b.c.Q x.Q u e 8.P.!.#X#X#X!.!.E.!.@X&X@X{.+XOX+X",
"R.+X{.+X+X{.@X@X&XG.B r X.u F 6.8.K i o.x.c.b.b.b.b.b.x.x.$.$.#.u F 9.K.#X#X!.E.E.E.|.#X#X@X+X+X+X{.",
"[.+X+XOX{.{.|.|.&XG.i ) x.#.X.y q y @.%.c.b.b.c.b.b.x.c.x.#.$.x.$.u t w.K.W.E.T.E.!.#X-X#X#X@X{.[.[.",
"+X+X+X{.{.|.@X&X!.K.V u x.c.>.>.>.>.c.c.b.b.b.c.$.$.$.x.b.x.$.#.>.#.X.e 8.L.R.~.!.;X-X-X-X#X+X{.[.{.",
"+X+XOX{.|.{.{.+X$XW.C.j.O.#.>.v.b.b.b.b.b.b.c.$.Q Q Q $.$.$.%.$.$.#.X.6 H f.E.!.#X:X:X-X#X@X{.{.{.+X",
"+XOX{.{.{.{.[.@X%X;X-Xm.6 u #.>.c.c.x.c.c.x.$.@.@.Q @.Q Q $.%.x.@.O.o.t V S.].-X:X:X-X;X&X+X+X+X@X+X",
"[.{.|.|.|.{.@X%X;X,X&Xw.8 u O.#.@.@.@.@.@.@.@.Q Q @.Q Q Q Q #.Q O.#.%.o.x K F.>X,X>X:X$X@X+X@X+X+X+X",
"{.|.{.+X+X+X@X$X%X+X{.q.5 u o.o.@.$.#.@.Q O.O.Q $.$.$.$.#.#.#.Q @.%.$.@.u 5 Z.>X<X,X#X@XOX@X+X+X+X~.",
"{.|.{.{.{.[.{.OX+X{.{.t.z u X.O.$.x.x.$.O.@.O.@.x.b.c.b.c.x.x.$.%.>.@.o.u 8 Z.,X,X=X@X+X@X+X@X{.R.R.",
"E.E.{.[.{.[.[.OX{.+X+XP.C.i u Q @.$.#.$.>.>.>.>.c.b.b.b.b.b.c.>.$.$.%.@.u 8 C.:X#X@X+X@X&X@X@X+XR.R.",
"h.R.R.[.[.[.[.+X+X@X@X&XP.K 6 u Q o.o.$.>.v.b.b.b.v.>.>.>.>.>.>.$.$.%.O.r 8 C.%X#X&X+X+X@X{.[.R.h.h.",
"h.h.R.~.[.[.+X+X@X&X%X%XQ.6.8 t Q o.o.O.@.x.v.b.v.>.@.O.O.O.O.@.x.$.Q u 9 w C.!.@X$X@X+X{.^.^.^.h.h.",
"h.h.h.R.E.{.+X@X+X$X,X<X-XD.6.q u o.o.o.o.#.$.$.$.@.o.o.o.o.o.O.#.$.Q q i w.P.~.+X+X+XOX^.^.^.^.h.h.",
"h.h.h.~.~.@X~.+X@X$X;X=X%X@Xi.w r Q O.o.o.O.o.o.o.o.o.o.o.o.o.o.O.o.Q 6 H T.&X+X+X+XOX[.^.^.^.^.h.h.",
"h.h.~.+XOX~.~.@X@X%X%X$X%X!.A.w r u Q o.Q o.o.o.o.o.o.o.o.o.o.o.Q Q y 6 J Y.$X@X+X+X[.^.^.^.[.[.h.h.",
"OXOXOX~.~.~.+X+X@X$X@X@X%X;XU.z.i 9 u Q O.o.o.o.o.o.o.o.o.o.o.X.Q t q L A.!.$X@X+XOXOXOX[.OX[.[.[.^.",
"OXOX~.~.OX+X@X+X&X+X+X$X,X<X:XW.w.e t u Q O.o.o.o.o.o.o.o.o.o.Q y q V D.!.%X$X+XOX+X+X+XOXOX[.[.[.OX",
"~.h.[.[.[.+X+X+X+X+X%X,X1X,X%X#XI.m.q 9 u X.o.o.o.o.o.o.o.X.Q t 6 K D.W.=X#X@X+X&X+X+X@X+X+X[.[.[.+X",
"^.^.[.OX[.[.[.+X&X%X,X1X<X;X$X&XK.9.z 5 9 r u c X.o.o.X.A y r 6 9 F M.Q.%X@X@X#X@X@X&X+X[.{.[.OX+XOX",
"^.OX^.^.h.^.[.|.&X=X<X<X;X%X$XI.7.f h d 1 5 5 t u A u y 9 4 4 4 ^ W 7 m.!.@X*X%X#X@X+X[.[.+XOXOX^.^.",
"^.^.OX^.h.[.{.@X=X<X<X,X%X%XJ.7.k k n b b d < $ < < 1 > 1 7 ^ / [ [ / ) j. X,X-X@X+X[.[.OXOX~.h.^.[.",
"^.].[.R.h.].+X&X,X<X,X=X,X,Xp.s j T T T Y n h p p p $ < * / ( | | | [ = D }.,X#X{.[.[.[.R.h.^.^.^.^.",
"Y.R.h.h.[.{.|.;X<X<X,X<X,XoXZ.d j Y T T T Y k h h l ^ ^ / ..| | | | [ W x U.#X{.[.{.OX[.^.^.[.^.^.[.",
"R.h.^.[.{.|.*X,X<X<X1X<XoXF.n.<.n j Y T T T Y n n E ( ( ..| | | | [ ! ' 1.n.G.{.[.E.[.[.^.[.^.^.].R.",
"h.h.^.{.|.#X#X>X1X1X1X<X}.=.<./.P p n T T T T Y E _ ..| | | | | } ! = 4.B.G i.R.[.{.{.[.[.].Y.Y.Y.Y.",
"h.[.{.@X#X-X-X>X2X2X<X<X.X=.1.).,.a h U Y T T R ]  ...| | | | } { W = B.H.+.t.].{.{.{.[.].Y.Y.Y.h.h.",
"^.{.@X@X#X-X>X<X2X<X1X2XoX-.1.`.V.E d h U T T T ,.] ]  .| | | ( W ^ :.)./.P t.].|.{.].Y.Y.Y.Y.h.h.h.",
"|.@X&X@X#X:X>X<X<X<X1X2XoXI <._.`.N.d p h k Y T T R ,.` } [ ( = % ) /.'./.x t.{.{.].Y.Y.Y.h.h.h.h.h.",
"@X@X@X-X-X>X>X>X>X<X2X2XQ.M x (._.N.O X p p h Y T E `  .( W & % + v /._.N.< 7.].T.Y.Y.Y.h.h.R.g.E.{.",
"@X#X-X-X-X:X:X:X<X<X3X3XoX9.C <.3.&.o o 3 g j j j v ^ ~ ! ^ 7 # X < 2.2.I M y.Y.Y.Y.Y.h.h.h.Y.R.{.@X",
"#X-X*X X X-X;X>X1X1X3X1X1XXXt.2 0 d X > G k.S : p $ & & 7 #.-.x o @ z < m a.L.T.T.Y.Y.R.Y.Y.R.+X@X{.",
"-XoX@X|. X-X>X<X<X<X<X<X1X1X}.A.Z.9.O ; *.l.k.G I G +.+.+.l.k.F o 2 r.q.u.f.E.T.T.T.E.R.R.R.|.@X|.&X",
" X|.{.|.&X-X>X<X<X<X<X1X<X<X<X<X<Xs.- ; S *.k.k.;.-.*.;.k.;.+.z X m J.Y.].Y.E.!.T.E.E.R.R.{.|.{. X-X",
"{.!.!.#X-X-X:X>X<X<X<X<X<X<X<X<X;Xs.- O 5 6 x +.F V i G F q 6 >   m J.E.T.E.T.T.E.E.R.R.{.{.|. X*X X",
"T.T.!.#X-X-X-X-X>X<X<X,X,X,X,X&X$Xa.O @ 9 r 5 3 7.e.e.M , 9 r 5   m J.E.!.W.E.E.Y.R.E.{.|.{. X#X X{.",
"T.W.Q.;X#X-X-X#X=X>X,X,X=X=X&X&X@Xa.s : q q , 2 y.L.d.5.: q t 9 : 5.P.E.E.!.T.T.Y.R.Y.E.{.{.|.{.T.Y.",
"!.#X-X:X%X#X#X#X*X=X*X&X&XOX&XOXOX[.a.M O o m y.L.R.Y.d.0.: . : q.J.!.!.E.E.Y.Y.R.h.R.E.T.{.].T.T.T.",
"#X#X-X#X#X&X@X#X=X&X&X+XOX&X&X+X+XOX^.u.N N 0.f.Y.Y.!.!.J.5.N 5.J.!.!.!.E.R.h.h.h.Y.Y.{.{.Y.Y.T.T.W.",
"#X-X#X X{.@X&X&X&XOX{.+X+XOX+X+X+X^.[.g.f.f.g.Y.Y.Y.W.E.!.Q.W.W.E.E.E.E.h.R.h.h.Y.T.{.E.T.I.T.W.!.#X",
"#X#X|.@X+X&X&X+X[.[.OXOX{.[.[.[.[.OX[.[.h.h.R.Y.T.!.!.!.Q.;X!.!.E.E.R.h.h.h.Y.R.].T.T.Y.T.W.!.!. X#X",
"|.{.|.+X@X%XOX~.R.h.[.[.[.[.[.OXOXOX^.^.h.h.Y.T.T.!.Q.-X;XQ.!.E.E.R.h.h.h.h.Y.Y.Y.Y.Y.T.T.!.@X@X@X#X",
"|.{.{.@X&X+Xh.h.h.h.^.^.OX[.[.+X+X^.^.^.^.h.Y.{.W. X#X#X!.W.E.Y.h.h.h.h.R.E.E.P.Y.Y.T.!.!.!.!.!.$X#X",
"{.|.@X+X[.^.h.h.h.h.^.^.[.OXOXOX[.OX^.^.^.].T.Q. X@X#X!.W.E.R.R.h.h.h.L.Y.Y.E.E.E.P.!.!.!.!.!.$X|.|."
};
