/* XPM */
static char *result[] = {
/* columns rows colors chars-per-pixel */
"50 50 216 2 ",
"   c #2D2A25",
".  c #352C29",
"X  c #2D3529",
"o  c #37352A",
"O  c #393634",
"+  c #482A2B",
"@  c #423B2D",
"#  c #513C2C",
"$  c #483B37",
"%  c #573B38",
"&  c #6F2F34",
"*  c #732E34",
"=  c #6B3937",
"-  c #7A393A",
";  c #37412F",
":  c #3A4C35",
">  c #3D5338",
",  c #4C413A",
"<  c #474A3A",
"1  c #554532",
"2  c #584937",
"3  c #4F563F",
"4  c #56563E",
"5  c #644C35",
"6  c #694D36",
"7  c #644A3B",
"8  c #76443E",
"9  c #675539",
"0  c #6D533B",
"q  c #6A5B3D",
"w  c #72553A",
"e  c #74593D",
"r  c #7A5B3E",
"t  c #4C613F",
"y  c #6A603F",
"u  c #4A4645",
"i  c #494646",
"p  c #534A43",
"a  c #514E4D",
"s  c #4E5B45",
"d  c #565448",
"f  c #585350",
"g  c #5D5B5A",
"h  c #674C4C",
"j  c #685746",
"k  c #7C5D41",
"l  c #775B48",
"z  c #615D5D",
"x  c #775A54",
"c  c #4D6B44",
"v  c #586748",
"b  c #4F7347",
"n  c #56754B",
"m  c #6C6342",
"M  c #6A6E46",
"N  c #696A49",
"B  c #7D6242",
"V  c #776848",
"C  c #69754A",
"Z  c #6C7A4C",
"A  c #73744B",
"S  c #767A4D",
"D  c #656857",
"F  c #7A6855",
"G  c #6B7B53",
"H  c #7C7953",
"J  c #656363",
"K  c #686666",
"L  c #6C6A6A",
"P  c #746767",
"I  c #8D3A3E",
"U  c #854644",
"Y  c #8C4344",
"T  c #984647",
"R  c #825D44",
"E  c #90544F",
"W  c #8A5F5F",
"Q  c #9C5757",
"!  c #A44547",
"~  c #A44C4C",
"^  c #AB4C4C",
"/  c #B24E4E",
"(  c #A15555",
")  c #AC5151",
"_  c #846242",
"`  c #896745",
"'  c #8C6946",
"]  c #84684C",
"[  c #8F6C48",
"{  c #916E49",
"}  c #96724B",
"|  c #9A764D",
" . c #9D784F",
".. c #856755",
"X. c #8B6D52",
"o. c #976B5A",
"O. c #877755",
"+. c #9F7A50",
"@. c #97745C",
"#. c #957E59",
"$. c #A26B5F",
"%. c #A27C51",
"&. c #826262",
"*. c #836F61",
"=. c #8B7762",
"-. c #987764",
";. c #A07E64",
":. c #57824F",
">. c #5D8D56",
",. c #5E955B",
"<. c #69844F",
"1. c #648756",
"2. c #738653",
"3. c #69995E",
"4. c #79965B",
"5. c #7C965C",
"6. c #78A15F",
"7. c #699A61",
"8. c #799562",
"9. c #67A563",
"0. c #7BA865",
"q. c #7BBA6C",
"w. c #7DBE71",
"e. c #7DC16E",
"r. c #79C674",
"t. c #7CCC74",
"y. c #7FD478",
"u. c #7DDB7C",
"i. c #96825B",
"p. c #99825B",
"a. c #80925C",
"s. c #A68053",
"d. c #AB8455",
"f. c #B08858",
"g. c #8B8962",
"h. c #A8856A",
"j. c #A48876",
"k. c #B28D74",
"l. c #BB8B75",
"z. c #B69279",
"x. c #BA9379",
"c. c #86A967",
"v. c #93A66D",
"b. c #85B26A",
"n. c #86B66C",
"m. c #8DBA6E",
"M. c #89BA71",
"N. c #93B972",
"B. c #C3997D",
"V. c #8DC06F",
"C. c #82C473",
"Z. c #82CA75",
"A. c #89CA75",
"S. c #88CA7A",
"D. c #95CA7A",
"F. c #85D67B",
"G. c #8BD67B",
"H. c #83DB7C",
"J. c #8CDB7C",
"K. c #92D57C",
"L. c #92DC7D",
"P. c #98DB7F",
"I. c #93E07F",
"U. c #7DDC83",
"Y. c #938C8E",
"T. c #B99B8B",
"R. c #A09591",
"E. c #BCABA2",
"W. c #ACACB6",
"Q. c #C79D82",
"!. c #CBA587",
"~. c #CDA68B",
"^. c #D4A989",
"/. c #D4AD8C",
"(. c #C3AA97",
"). c #DEB392",
"_. c #DBB89D",
"`. c #E5B997",
"'. c #E5B998",
"]. c #E6BB9A",
"[. c #CBB3A3",
"{. c #DDB9A2",
"}. c #CBB7B1",
"|. c #E0BEA3",
" X c #92CF81",
".X c #8DD582",
"XX c #84DD84",
"oX c #8CDD84",
"OX c #9AD581",
"+X c #93DE84",
"@X c #9DDD83",
"#X c #A0CF80",
"$X c #A3D281",
"%X c #86E084",
"&X c #8CE284",
"*X c #93E385",
"=X c #9BE385",
"-X c #96E885",
";X c #9BE986",
":X c #96E688",
">X c #9CE78A",
",X c #9DE98A",
"<X c #A2E485",
"1X c #A5E688",
"2X c #A5E689",
"3X c #A4EA8B",
"4X c #ABEB8D",
"5X c #B1F18F",
"6X c #EDC29E",
"7X c #ECC4A4",
"8X c #F2C6A1",
"9X c #F4C8A3",
"0X c #E8CBBC",
"qX c #CECBD5",
"wX c #E5D8DA",
"eX c #DED8E0",
/* pixels */
"&X&XXXXXXX%XXXXXU.U.U.%X%XU.%X&XU.U.U.U.u.H.H.J.J.J.H.y.u.u.u.y.u.H.H.u.H.J.J.K.L.I.I.I.:X+X+XoXXXoX",
"&XXXXXXXoXoXXXU.U.U.%X%X%X%X%X%XU.U.U.U.u.H.H.H.H.H.u.u.u.H.u.u.H.H.H.H.J.J.J.J.I.I.=X;X:X&XoXXXoX&X",
"XXXX&X&X%XU.XX%XU.%X&X&X&X&X%XU.U.U.U.u.t.Z.Z.t.t.y.t.t.u.H.u.H.H.H.H.H.J.I.I.I.I.I.*X*X+XoXoXXX&X&X",
"XXXXXXXXU.U.XX%X%X%X&X*X&X&X&X%XU.U.%Xt.4.Z <.C <.y :.<.e.J.J.J.J.J.H.J.I.I.I.I.*X=X=X+XoXoXoXoX&X&X",
"XXXXU.U.U.%X%X%X&X&X&X&X*X&X&X&Xy.w.n.0.y 0 w w w w 6 q 4.V.F.J.H.J.J.J.I.I.I.I.=XI.I.J.L.oX+XoXXXXX",
"XXU.U.XX%X%X%X&X*X*X-X*X-X*X&XoX0.M y j r '  . . . .} r q <.e.H.J.J.J.F.J.P.I.I.I.L.J.L.oX*X&XXXXXXX",
"XXXXXXXX&X&X&X&X*X=X=X=X;X-XL.0.2.e r R ` } d.f.f.f.s.| r y <.q.J.J.Z.6.4.4.5.b.K.L.J.L.*X*XoXXXXX&X",
"H.XXoX&X&X&X&X*X=X=X=X=X;X@Xm.C e ` |  .} | d.d.d.d.d.d.| _ 9 2.C.Z.0.y 5 9 5 Z Z.J.L.*X=X+X+XoX&X&X",
"XXoXoX&XoX&X+X+X>X@X:X;X=Xc.S r _  .| |  . .| } | }  .d.d.| r y C C A r _ ` 5 M C.J.=X=X>X*X&X&XXXXX",
"&X&X&X%XoXoX+X:X:X:X;XP.m.S w ` | %.| | %.} ' _ ` ` } s.d.d.| ` e w r [ %.+.e M A.@X=X<X<X=X*X&XXXoX",
"&X&X&XoXoX+X*X*X*X;X;Xm.M k `  . .}  .%.} ' ' ' ` ` ' { %.d.d.%.+. .%.s.d. .e Z A.<X<X<X=X=X&XXXoX&X",
"&X&XXXoXoXoXoX&X*X=X2Xb.9 w ` }  . .|  . .| |  .| | } ` }  . . . . . . .{ ` 2.c.P.1X<X<X=X+XoXoXoX&X",
"&XXXoXoXoXoX&X*X<X3XOXc.9 r ` ' } %.| {  .s.d.d.d.f. .' ' { ' ' ` [ [ ` w q b.>X3X1X1X=X:X&X&X*X&X*X",
"oXoX+XoXoX+X-X;X3XOX5.M r [  .[ ' { ' ' } } | %.f.f.d.s.s.%.%.| ' | | ` 0 j M.4X4X3X;X=X&X&X*X&X&X&X",
"oX+XoX&X&XoX*X:X*XZ.N 6 _ }  .[ _ r r r r r ` | s.f.f.f.d.s.%.} [ |  .` 0 0 N.4X4X3X:X*X&X&X&XJ.oXH.",
"oX+XoXoXXXXXoXXX%XZ.M 6 _ ' ' ` r 6 6 5 6 w _ ' } s.d.d.| ' { ' ` ' ' ` w y N.4X3X:X-X&X-X&X*X&XH.H.",
"J.J.XXXXXXXX%X%X&XA.M 6 _ ` R e _ s.h.h.h.X.e r [ | | |  . .| { ` ` r e A c.OX2X>X*X&X&X:X:XoXoXH.u.",
"u.H.H.%XXXXX%X-X&XA.M 6 k ` r r s.).6X6X6Xx._ r _ r _ ` }  . .| [ ' r 9 a.$X>X;X;X*X*X&X&X&XXXXXu.F.",
"u.u.H.H.XXoX&X&X-XA.C 6 k r k k./.6X8X9X8X`.x.O.6 6 6 5 0 w e '  .[ r 6 a.;X;X-X:X&X&X&XXXU.U.U.u.u.",
"u.u.H.H.XXoX&X&X*XG.a.V r r @./.6X/.`.9X8X8X6Xk.X.X.X.X.e w ] } { B r S b.I.:X*X&X&X&X&XU.U.U.U.u.u.",
"u.u.u.I.&XI.H.%X*X-XP.c.j @.B.'.^.f.!.6X9X9X8X6X).)._.~.;.-.!.h.0 6 C V.I.-X*X&X-X&X%XXXU.U.U.U.u.u.",
"u.u.%X%X&XH.&X-X-X;X*X0.q R h.`.|.E.E.[.7X9X9X9X9X9X{.[.[.[.].h.l S b.P.;X-X-X-X&X%XXXU.U.U.XXXXu.u.",
"%X&X&XH.H.&X&X*X*X*X*Xn.M 7 x !.0XeXW.R._.9X9X9X9X9X(.Y.qXwX7Xj.m b.=X-X:X-X:X&X%XXX%XoXXXXXXXXXXXU.",
"&X%XH.H.%X&X&X*X&X&X*XL.N.v 2 k.0XeXY.z ~.8X9X9X9X7Xj.g W.wX{.o.< 0.-X-X;X;X-X&X&X%X&X&X&XXXoXXXXX%X",
"U.u.%X%X%X&X&X&X&X*X;X4X1X6.v O.T.}.Y.=./.9X9X9X9X7Xz.P E.}.j.G n w.>X,X,X:X&X*X*X*X*X&X&X&XXXXX%X&X",
"U.U.%X%X%XU.XXoX*X;X4X4X3XK.0.s F T.~./.].8X8X8X8X8X].~.~.j.p n M.+X,X,X:X-X-X;X:X:X&X&XXXoXXX%X&X%X",
"U.%XU.U.u.H.XX&X;X3X4X4X=Xc.A 7 h h x -.^.'.'.'.`.`.z...x f u s 7. X>X>X-X:X,X<X:X*X&XXXXX&X&XXXXXU.",
"U.U.%XU.u.XXoX:X<X4X4X<XV.O.- Y - + . % -.z.z.x.x.k.F o . $ a a s 8.G.:X:X3X3X;X*X&XXXXX%XXXu.U.U.U.",
"XXXXH.H.U.XX+X*X2X4X4Xm.V Y ! ~ T Y U = % $ u , $ $ u i a g J z g v 1. X3X3X<X-XoXXXXXXXU.u.u.U.U.U.",
"F.H.u.U.XXoX*X2X4X4X1Xv.= I ^ / / / ^ Y % + + . . X u g K L L L J u n  X3X>X;X&XXXoX%XXXu.XXXXU.U.XX",
"y.u.u.XXoX+X>X4X5X4X1Xv.8 I ^ / / / / ~ Y Y U h f f g K L L L L J a D S.:X*X*XoXXXoXXXH.U.XXU.U..XF.",
"u.U.XXoX*X=X=X2X5X1Xv.i.$.E I ^ / / / / ~ ~ ( x J J K L L L L g j P =.g.M.oX&XXXH.oXoXXXXXXXF.F.F.y.",
"u.XXoX*X=X<X<X4X4X$XH o.Q.Q * T ) / / / / ) ( &.L L L L L L K a p ;.l...a.oX+XXXoXoXXXU.XXF.F.F.u.u.",
"XXoX*X*X=X1X2X5X5X$XO.-.~.$.* Y ~ / / / / ( &.P L L L L L J g i p T.B.W 8..XoX+X+XoX.XF.F.F.y.y.u.u.",
"+X*X-X*X=X2X4X4X5X#XO.-.^.B.E U Y ~ / / / ( ..W &.P L L K z a f *.~.Q...8. XoXoX.XXXF.F.F.H.u.u.u.H.",
"*X*X*X<X2X2X3X4X4X#XH o.).).l.- * Y ! ! / / ) ) Q P L K g i u F !.'.Q.l 8..XoX.X.XF.F.F.u.u.H.H.H.oX",
"*X=X<X<X<X<X$X3X4XOXv x !.`.l.= + * I I ! / / Q &.P g a u O . F ~.`.k.2 1..X.XF.F.F.F.y.u.u.H.H.oX*X",
"=X<X>X@X@X<X2X4X5X$Xn j ;.l.-.$   = & * T ! T x z z f 3 , O   j k.k.=.s >.Z.F.G.F.F.F.H.y.F.J.oX*X+X",
"<X@X+XoX:X<X4X4X4X4XD.4.d h x . O l X.[ - * * % u u j O.F 4   # l 2 v 7.r.F.G.G.G.G.J.H.H.XXoX*X+X:X",
"@X+X+X+X=X<X3X4X4X4X4XD.<.G G o @ ..#.#.R 8 8 l d j F p.i.j   < G v >.r.F.G.G.L.L.J.J.H.H.&XoX+X+X<X",
"oXL.L.=X<X<X<X4X4X4X4X3X@X>XM.< @ V #.i.#.#.#.#.#.#.i.i.O.q X t C.Z.t.G.J.L.G.L.J.J.H.J.oXoX+X@X=X=X",
"G.G.+X@X<X<X<X<X2X4X4X4X3X3XS.: . 6 w B O.O.V F ] O.O.e 0 1 X b Z.G.G.L.J.G.K.J.J.F.J.&XoXoX+X=X*X.X",
"G.K.=X<X=X<X<X<X2X4X3X3X,X>XM.:   1 6 9 j N Z Z C m 9 6 5 #   b A.L.L.J.L.K.G.G.F.F.F.J..XoX+X+XG.G.",
"P.=X<X<X=X=X=X>X>X>X>X:X:X&Xw.> @ w r 9 # c q.q.3.< 1 e r 5 o n K.I.L.L.J.J.F.F.u.u.F.H..XoXG.F.G.G.",
"*X=X<X=X*X*X=X:X>X:X&X&X%X:X.X>.c , 1 2 t ,.t.F.e.:.3 1 1 4 t 6.P.I.J.L.J.H.u.u.u.H.H..X.XF.G.G.G.K.",
"<X<X=X+X*X*X&X>X*X&XoX&X%X&XoXU.,.; X > 9.Z.F.H.F.t.1.; X t V.L.L.K.J.J.u.u.u.u.F.H..XG.H.G.G.G.L.@X",
"=X=X+X+X&X*X:X&X%X&XoX&XXXoXXXXXr.9.,.9.t.u.F.F.G.K.e.3.4.0.K.L.J.J.H.y.u.u.u.F..XH.F.G.G.G.L.L.*X=X",
"+X+XoX*X*X;X&XXXu.u.XXXXXXXXXXXX%X%XU.U.u.u.F.G.G.P.I.=XI.P.L.J.J.H.u.u.u.F.F.F.G.F.G.G.G.P.*X*X=X@X",
"+XoX&X&X*X&Xu.u.u.u.U.U.%XXXXX&X%XXXU.U.U.y.F.G.P.+X=XP.I.P.G.F.u.u.u.y.H.F.J.J.Z.J.G.L.L.I.*XI.*X+X",
"+XoX*X&X%XXXu.u.u.U.U.U.XX&X%X%XXX%XU.U.U.XXG.+X+X@X=XP.P.G.F.u.u.u.y.H.H.F.G.G.G.G.J.L.=XI.L.L.+X+X"
};
