/* XPM */
static char *result[] = {
/* columns rows colors chars-per-pixel */
"50 50 198 2 ",
"   c #735E3F",
".  c #377E55",
"X  c #3D7F59",
"o  c #5B6C4B",
"O  c #4A7B4F",
"+  c #59724D",
"@  c #427F52",
"#  c #507B52",
"$  c #5C7951",
"%  c #696546",
"&  c #646C4B",
"*  c #736343",
"=  c #7B6241",
"-  c #786844",
";  c #6B754E",
":  c #797248",
">  c #7B7249",
",  c #82623F",
"<  c #877447",
"1  c #8D794A",
"2  c #937445",
"3  c #917C4C",
"4  c #987C49",
"5  c #358454",
"6  c #3B8555",
"7  c #348B55",
"8  c #398C56",
"9  c #3B8458",
"0  c #378958",
"q  c #3C8D59",
"w  c #2D9D52",
"e  c #349356",
"r  c #3B9056",
"t  c #339B57",
"y  c #389B57",
"u  c #369558",
"i  c #3C945A",
"p  c #359D58",
"a  c #3C9C5B",
"s  c #2FA055",
"d  c #31A156",
"f  c #34A359",
"g  c #3AA35B",
"h  c #35AA5B",
"j  c #3BAC5C",
"k  c #3CB25E",
"l  c #3FB460",
"z  c #438455",
"x  c #43855C",
"c  c #428D5B",
"v  c #508D59",
"b  c #43935D",
"n  c #49945F",
"m  c #439B5E",
"M  c #4A995E",
"N  c #6F8553",
"B  c #7B8552",
"V  c #7A8856",
"C  c #77975D",
"Z  c #41A55F",
"A  c #41AC5D",
"S  c #48AF5E",
"D  c #43B45F",
"F  c #4C8D64",
"G  c #568F65",
"H  c #4B9661",
"J  c #479B60",
"K  c #4B9B61",
"L  c #529664",
"P  c #5B9666",
"I  c #549D65",
"U  c #589E68",
"Y  c #5C9E6A",
"T  c #659A65",
"R  c #6E9E74",
"E  c #47A261",
"W  c #4CA262",
"Q  c #46AC61",
"!  c #4CAC63",
"~  c #53A364",
"^  c #58A167",
"/  c #53AB65",
"(  c #5AAD67",
")  c #5CA46A",
"_  c #56AF68",
"`  c #5DAC6A",
"'  c #43B561",
"]  c #4BB362",
"[  c #45BA62",
"{  c #4BBC64",
"}  c #52B565",
"|  c #5BB167",
" . c #53BC66",
".. c #5BB369",
"X. c #57BC68",
"o. c #5BBA69",
"O. c #5FAB71",
"+. c #63A46B",
"@. c #6AA16B",
"#. c #64AB6D",
"$. c #6BAB6E",
"%. c #70AE6F",
"&. c #63B36C",
"*. c #6BB46E",
"=. c #63BB6B",
"-. c #69BC6D",
";. c #70B16F",
":. c #66AB73",
">. c #6DAC71",
",. c #70AF70",
"<. c #66B472",
"1. c #6CB473",
"2. c #6DBC73",
"3. c #6AB978",
"4. c #74B473",
"5. c #73BB75",
"6. c #7BBC75",
"7. c #71BE79",
"8. c #7EBE79",
"9. c #4EC166",
"0. c #52C367",
"q. c #55C668",
"w. c #5BC56A",
"e. c #5CC86A",
"r. c #63C46C",
"t. c #6BC56E",
"y. c #63CA6D",
"u. c #6ACB6F",
"i. c #6EC270",
"p. c #6ECC70",
"a. c #72C272",
"s. c #7AC375",
"d. c #74CC72",
"f. c #7BCD75",
"g. c #75C27A",
"h. c #7CC47A",
"j. c #77C97D",
"k. c #7DCB7D",
"l. c #7CD075",
"z. c #7CD47A",
"x. c #7DDB7C",
"c. c #8E844F",
"v. c #95804D",
"b. c #9B834E",
"n. c #818152",
"m. c #8C8A53",
"M. c #A58C53",
"N. c #AA9256",
"B. c #B19B5D",
"V. c #80A05F",
"C. c #84A363",
"Z. c #85AB66",
"A. c #84BD6F",
"S. c #80BE7F",
"D. c #B6A162",
"F. c #BAA566",
"G. c #82C475",
"H. c #8AC576",
"J. c #83CD76",
"K. c #85C37A",
"L. c #83CB7D",
"P. c #8BCB7D",
"I. c #90CF78",
"U. c #82D277",
"Y. c #84D47C",
"T. c #8BD57C",
"R. c #83DB7C",
"E. c #8BDB7C",
"W. c #91D77C",
"Q. c #92DD7E",
"!. c #88E07F",
"~. c #7CCC82",
"^. c #7DD382",
"/. c #7DDC83",
"(. c #92C982",
"). c #83D481",
"_. c #8BD483",
"`. c #84DD84",
"'. c #8BDD84",
"]. c #86DE8A",
"[. c #8BDE8B",
"{. c #94D482",
"}. c #93DE83",
"|. c #9CDC83",
" X c #94DE8B",
".X c #85E084",
"XX c #8CE284",
"oX c #87E08C",
"OX c #8EE18A",
"+X c #94E284",
"@X c #9BE485",
"#X c #9CE985",
"$X c #94E48B",
"%X c #9BE38B",
"&X c #A1E485",
"*X c #A2EB86",
"=X c #A4E58A",
"-X c #A2EB8B",
/* pixels */
"$XXX.X`.`.].`.`./././..X.X/./..XoX/././.x./.R.s.$.@.$.J.R.x.x.x.x.U.R.x.U.E.E.I.W.Q.Q.Q.@X+X}.}.[.'.",
"$XXX`.`.`.XX`.`./././..X.X.X.XXX.X/././.x.R.z.*.;.6.$.2.z.x.x.x.x.R.R.R.R.!.Q.Q.Q.Q.+X#X+X+X'.'.].XX",
"OX`.].'.XX.X/.R./..X.XXXXXXXXX/././././.x.R.j.+.-.a.&.&.f.R.x.R.R.R.!.R.E.!.Q.Q.Q.+X+X@X X}.'.].`.XX",
"OX`.].XX.X/./..X.X.X.XXXXXXXXX.X/././.x.XXE.1.` w.y.o.) a.R.E.R.R.E.R.E.E.Q.Q.Q.Q.Q.@X+X'.'.'.'.XXXX",
"[.`.`.`././..X.X.XXXXXXXXXXXXXXX/..X.X+X+Xz.` =.u.y.p.) &.Y.XXE.E.R.R.E.E.Q.Q.Q.@X@XQ.Q.Q.'.}.'.XX`.",
"[.`././.x..X.X.XXX+XXX#X#X+XXXXXXX$X#XXXY.<.` r.e.q.y.=.` 5.U.E.R.E.E.E.E.Q.+X+X#XQ.Q.Q.E.}.XX'.`.R.",
"[.`.x.`.XX.XXXXX$X+X@X@X@X#X+XXX$X#XXX^.<._ q. .9.9.{ 0.X.( i.Y.E.E.E.!.!.Q.@X@X+XQ.E.E.}.+XXX'.`.].",
"].`.].'.XX+XXXXX+X@X@X+X#X#X#X@XXXXX^.<._ 0.0.' [ { ' { q. .( 5.Y.'.!.Q.@X*X@X@XQ.E.Q.Q.+X@X'.'.XXXX",
"].'.'.'.+XXXXX'.+X@X@X#X#X*X-X-X+XY.-.| 0.q.{ A D { A D 9.q. .&.7.).+X+X@X@X}.W.E.E.Q.@X@X@X+XXXXX'.",
"XXXXXX.X[.'.}. X@X@X+X#X#X-X-X XL.*.&.r.e.0.D S X.w. .A D q.e.=.&.s._.}.@XQ.T.E.E.Q.Q.&X%X@X+XXX`.`.",
"$XXXXXXX'.'.}.%X@X+X#X#X@X=X_.5.#.&.u.e.q.{ S } r.y.r.S D 9.e.y.=.#.$.G.P.T.R.E.Q.@X&X&X=X@X+XXX].'.",
"$XXXXX'.'.}.'.'.+X+X@X%X{.8.#.+.=.t.e.e.q.D } r.y.q.y.=.S { 0.e.u.t.&.) $.5.d.T.@X&X&X&X&X@XXX[.'.XX",
"$XoX'.'. X'.'.'.+X}.{.8.$.) -.d.d.y.0.9.q.q.p.u.e.q.e.d.y.0.9.0.q.u.d.a.&.) #.8.{.|.|.&X@X+X'.'.XX+X",
"[.].'._.L.h.~.).s.4.#.#.-.d.U.f.y.{ [ 9.e.p.d.y.q.0.q.u.l.u.e.D [ q.p.U.U.a.&.#.$.4.L.(.L.L.).'.XXXX",
" X}.'.L.T L U ) ) &.=.d.J.U.l.y.{ l [ q.p.U.p.0.[ k D e.l.l.u.q.' k 0.u.U.U.z.t.&.&.+.^ U L <._.!.!.",
"}.'.'.L.) m g ] o.p.d.l.l.u.q.{ k k q.d.U.l.e.[ h h k 9.y.U.U.y.{ j k 9.y.p.l.l.p.t. .Q a J 4.E.E.R.",
"XXE.E.`.g.~ i f ' { q.q.0.[ l l h ] u.U.z.w.[ j s w f l { y.k.z.y.D h k D 0.q.q.q.{ j y m <.T.'.R.x.",
"'.R.R.`.).g.^ b a g j l l l h f j w.p.u. .l h f t s p f l [ q.p.u. .f h k k ' k j a i M #.Y.'.R.R.x.",
"`.x.R.R.`.).k.2.U b i u f f w d k  .] D h f u 7 p f u u p f j ' ] { h t s s t u i n ) s.)..Xx.x.x.x.",
"!.x.x.R.R.XXXX'.^.4.+.H e 7 e t f f f p e 7 0 i f h p 0 0 7 u p f f d t e 7 i L +.5.`.'././././.x.x.",
"/.x.x.R.!.+X!.XXXX_.P.+.F 5 5 5 5 5 5 6 r i f f s t f f a b q 5 5 5 5 5 5 6 J <.L.'.XX]./././././.x.",
".Xx.!.XX.X!.!.'.L.5.#._ ' g f e 5 . X m  .] j d 7 7 e f l { ! c X 5 7 e f j ! ) <.5.~./././.`.).x.x.",
"oX.X.X.X.XR.'.L.+.) =.a.t.q.l h t b ~ o.X.' a 7 7 7 7 e g { X._ K i p j [ w.d.i.&.Y :.^.].`.`.].]./.",
"OX.X!.!.R.XXXXY.#.#.t.d.d.r.' a b ) =.S a r 0 0 t s e 0 0 i E } &.I i j } p.d.d.=.) 1.E.XX'.].`.`.oX",
"OX!./.`.].XXXX`.4.^ ~ } } W i 0 n H J q 0 7 t j j k k f t 7 0 i m L q 8 m Q } _ I #.L.'.XXXX.X].`.XX",
".X/.`.].`.R.k.7.%.%.$.K J r e p y u 7 y f h l [ 9.9.9.l j h p u 7 e f u 7 q b ^ $.$.4.k.Y.`.]..X.X.X",
"]././.^.g.a.>.>.6.G.d.} a f f h h d f j [ 9.9.q.q.q.q.0.9.{ ' h f h h h f f E o.J.G.4.$.4.h.k.).R.x.",
"^.3.:.:.+.@.4.G.J.d.y.{ l l l h h d a { e.e.q.q.q.0.q.q.q.y.q.Q d s h k D ' l q.u.f.P.s.,.+.+.<.<.7.",
"~.Y F J | t.p.p.u.e.q.0.9.{ k h d e q o.l.d.e.q.{ { 9.q.u.l.u./ q t f h l { 9.0.q.y.p.p.t.=./ F F :.",
"_.5.I J a Q {  .9.0.9.9.' j f w 7 0 K t.z.d.q.{ j f ' 0.y.z.f.o.c 5 e t h l { 9.0.0.9. .] E a H O.j.",
"_.z.j.<.U L J E Z j j h f t 7 5 . c &.d.p.e.{ g r 0 i k 0.y.d.d.~ 9 . 5 e t f j g j Z Z J H ) 3.k.).",
"`.x.).).).L.1.T I q 7 7 7 5 . 5 c ( d.d.e.{ g q m g r u A 0.y.d.t.M 7 . 5 7 7 7 7 c I ) 3.j.k.z.Y.E.",
"/./.`.+X+X|.|.|.H.T c q 0 5 5 q ( t.u.X.D g 7 9 Q  .m 9 r j { w.u.=.~ 8 7 6 8 q F Y h.^.^.E.Y.Y.Y.x.",
"oX'.+X+X@X&X*X=XP.+.! Q c F I &.r.w.D j y 8 5 6 ~ =.J 5 7 7 y j { y.-.#.M x b ' ! +.h.Y.Y.Y.Y.x.x.x.",
"$X+X+X+X&X=X&XP.>.=.q.} b I &.X.S j t q r m f e M ~ b e g i q e d A } o.) H K q.w.&.#.s.U.R.x.x.x.x.",
"%X+X+X@X=X|.K.*.a.f.p.0.! b b m r 8 b Z } { D f r 8 u h [  ./ m c 8 y b b K } q.d.f.-.#.a.x.x.Y.R.T.",
"%X+X@X|.|.A.$.a.U.l.y.q.] j a J M W ]  .0.q.0.D f d j { q.q.0. .S M M m g ' 0.q.u.U.J.*.#.i.z.Y.'.}.",
"=X@X|.K.>.>.a.U.l.y.q.9.D j ' r.t.w.q.{ { y.u.0.' k { q.u.q.{ { q.r.r.q.A j ' 9.q.u.U.f.-.+.>.k.'.'.",
"(.S.$.+.1.s.U.l.y.0.{ k f S r.l.l.y.] j } l.f.e.0.9.0.u.z.u.S A X.p.U.d. .g j ' 9.q.u.l.f.a.#.+.,.8.",
"R G W =.p.d.y.q.9.k f t i | f.U.u. .Z m t.U.d.q.9.[ 9.e.l.l.( b A w.l.U.a.W r d j [ 0.e.d.d.p...J P ",
"S.Y M ! } 0.{ ' h t r b ( d.f.u.0.A r ~ d.U.y.D g d k S p.U.-.b a D w.u.l.-.I i u f j ' { 0.] W L $.",
"{.s.;.^ K a a u e c I *.a.p.e.9.j t q | f.t.S t 6 @ r d o.f.d.~ r f D q.y.d.a.) M q e t a m K +.8.L.",
"{.T.W.P.4.P @ X c ( i.p.y.0.D f e 6 c o.u.S r O & % o z y X.r./ z 6 y g D w.t.d.-.W q X F ) 5.L.T.Y.",
"}.@X@X&X|.P.$.H b ! } ] f f r z $ ; ; M A c + * , , = % O m S v ; ; # 8 y g A ] } E c L >.L.Y.T.T.T.",
"%X@X&X&X@X+XT.5.>.Y J b c c U T n.b.> # r + : , , , b., % z z + 1 v.V T K c q b K ^ #.5.Y._.T.T.T.W.",
"=X&X@X+XXX+X+X X_.j.5.1.4.2.L.H.V.c.< ; & - , 4 B.B.B., , % o : 1 m.Z.s.i.&.*.&.2.s.L.T.T.Y.T.T.W.|.",
"=X@X|.+XXX+X#XXXXXR.E.`.`.).`.`.J.C B -     2 N.F.F.D.M.-   - < B Z.U.R.z.z.z.z.Y._.E.Y.T.T.W.Q.Q.@X",
" X}.'.XX+X$XXX!.!.x.`.`.`.`.`.].R.U.6.C N N , b.D.F.B., > B B V.A.J.x.x.x.R.Y.E.Y.Y.Y.T.W.W.Q.+X+X@X",
" X X'.+X$XXX.Xx.x.x././..X`.`.oXXX.X/.~.d.a.C < b.M.3 n.Z.H.G.J.R.x.x.x.U.Y.E.T.T.Y.T.W.Q.Q.+XQ.+X}.",
" X}.XX+X.XR.x.x.x.x./././..XXX.X`.`..X/./.^.G.V - = : C.I.Q.R.R.x.x.x.z.R.Y.T.T.T.T.W.Q.#XQ.Q.Q.}.}."
};
