/* XPM */
static char *result[] = {
/* columns rows colors chars-per-pixel */
"50 50 162 2 ",
"   c #000001",
".  c #05010A",
"X  c #0A010E",
"o  c #070909",
"O  c #0B0C0C",
"+  c #0B0113",
"@  c #0C0F10",
"#  c #0D021C",
"$  c #12021B",
"%  c #0E1012",
"&  c #131313",
"*  c #121719",
"=  c #141A1C",
"-  c #1C1C1C",
";  c #0F0220",
":  c #130223",
">  c #190226",
",  c #15022C",
"<  c #1D032C",
"1  c #181E20",
"2  c #170330",
"3  c #1A0333",
"4  c #1D033B",
"5  c #250439",
"6  c #250439",
"7  c #1B2225",
"8  c #1E2729",
"9  c #232323",
"0  c #2B2B2B",
"q  c #222C2F",
"w  c #252F33",
"e  c #263034",
"r  c #2D3A3F",
"t  c #2A353A",
"y  c #343434",
"u  c #3C3C3C",
"i  c #1F0441",
"p  c #210444",
"a  c #2D0444",
"s  c #26044D",
"d  c #2B044F",
"f  c #32054C",
"g  c #270450",
"h  c #2A0556",
"j  c #2D055D",
"k  c #360552",
"l  c #370558",
"z  c #380555",
"x  c #2E3B40",
"c  c #313E43",
"v  c #2F0561",
"b  c #310665",
"n  c #34066C",
"m  c #3A0664",
"M  c #360670",
"N  c #390775",
"B  c #3C077C",
"V  c #410664",
"C  c #440668",
"Z  c #48076E",
"A  c #4C0774",
"S  c #4F0778",
"D  c #50077A",
"F  c #52087C",
"G  c #344248",
"H  c #38474D",
"J  c #39494E",
"K  c #334046",
"L  c #3B4B51",
"P  c #3F5057",
"I  c #434343",
"U  c #4A4A4A",
"Y  c #42535A",
"T  c #535353",
"R  c #5B5B5B",
"E  c #4A5D65",
"W  c #4B6067",
"Q  c #4E636B",
"!  c #50666E",
"~  c #556B74",
"^  c #586F78",
"/  c #5B737D",
"(  c #636363",
")  c #6B6B6B",
"_  c #747474",
"`  c #7D7D7D",
"'  c #3F0782",
"]  c #400785",
"[  c #420886",
"{  c #45088E",
"}  c #5D098D",
"|  c #560884",
" . c #460890",
".. c #4C0894",
"X. c #5F0990",
"o. c #53099C",
"O. c #630997",
"+. c #660A9B",
"@. c #5709A0",
"#. c #5C0AA4",
"$. c #6B0AA4",
"%. c #640AAB",
"&. c #720BAD",
"*. c #6C0BB4",
"=. c #6F0BB9",
"-. c #760BB4",
";. c #740BBC",
":. c #7B0CBC",
">. c #5F7984",
",. c #617A85",
"<. c #647F89",
"1. c #7C0CC3",
"2. c #820CC5",
"3. c #850DCC",
"4. c #880DCF",
"5. c #870DD0",
"6. c #8A0DD3",
"7. c #67828D",
"8. c #698590",
"9. c #74929F",
"0. c #7E9FAC",
"q. c #7EA0AD",
"w. c #8C8C8C",
"e. c #838383",
"r. c #959595",
"t. c gray61",
"y. c #80A2B0",
"u. c #85A9B7",
"i. c #8AADBC",
"p. c #A5A5A5",
"a. c #ABABAB",
"s. c #B5B5B5",
"d. c #BCBCBC",
"f. c #8DB2C2",
"g. c #90B6C6",
"h. c #94BBCB",
"j. c #9ABCC9",
"k. c #9CC5D6",
"l. c #9EC7D8",
"z. c #9EC8D9",
"x. c #A3CADA",
"c. c #ACCDDB",
"v. c #A4C3D0",
"b. c #B1D2DF",
"n. c #B8D3DE",
"m. c #BAD7E2",
"M. c #C3C3C3",
"N. c #CCCCCC",
"B. c #D4D4D4",
"V. c #DBDBDB",
"C. c #C9DFE8",
"Z. c #C4DCE6",
"A. c #CCE2EB",
"S. c #D3E5ED",
"D. c #E4E4E4",
"F. c #EBEBEB",
"G. c #E2EFF4",
"H. c #EDF5F8",
"J. c #E8F1F5",
"K. c #F4F4F4",
"L. c #F3F8FA",
"P. c #FFFFFF",
/* pixels */
"P.P.P.P.P.P.P.P.P.P.P.P.P.P.P.P.P.P.V.p.e.) T I 0 9 9 - - - y ( w.d.F.P.P.P.P.P.P.P.P.P.P.P.P.P.P.P.",
"P.P.P.P.P.P.P.P.P.P.P.P.P.P.P.P.D.` 9 O                           O y _ N.P.P.P.P.P.P.P.P.P.P.P.P.P.",
"P.P.P.P.P.P.P.P.P.P.P.P.P.P.P.d.y         . X + $ > < < < > + .         - ) N.P.P.P.P.P.P.P.P.P.P.P.",
"P.P.P.P.P.P.P.P.P.P.P.P.P.P.D.0     . a | +.$.-.:.1.2.2.3.2.-.O.S a +       - e.L.P.P.P.P.P.P.P.P.P.",
"P.P.P.P.P.P.P.P.P.P.P.P.P.K.(     . S 3.6.6.6.6.6.6.6.6.6.6.6.6.6.4.$.C $     o ` L.P.P.P.P.P.P.P.P.",
"P.P.P.P.P.P.P.P.P.P.P.P.P.p.O     k 3.6.6.6.6.6.6.6.6.6.6.6.6.6.6.6.6.6.&.6     O t.P.P.P.P.P.P.P.P.",
"P.P.P.P.P.P.P.P.P.P.P.P.F.u     < :.6.6.6.6.6.6.6.6.6.6.4.2.2.-.&.&.-.:.1.$.>     9 M.P.P.P.P.P.P.P.",
"P.P.P.P.P.P.P.P.P.P.P.P.a.O     F 6.6.6.6.6.6.6.-.O.Z k 6 < : $ + X $ $ > < +       U N.K.P.P.P.P.P.",
"P.P.P.P.P.P.P.P.P.P.P.K.I     < :.6.6.6.6.6.&.f $                                     & u r.F.P.P.P.",
"P.P.P.P.P.P.P.P.P.P.P.p.O     Z 6.6.6.6.6.$.:           O * 7 e x H G r e 8 7 = O         o I V.P.P.",
"P.P.P.P.P.P.P.P.P.P.K.u     # %.6.6.6.6.2.6       @ Y 8.q.i.f.h.k.c.m.n.c.v.j.i.q.,.H =       I D.P.",
"P.P.P.P.P.P.P.P.P.P.N.&     s =.6.6.6.6.+..     & ^ k.x.z.z.z.z.m.L.P.P.P.L.L.H.G.A.x.u.Y o     R L.",
"P.P.P.P.P.P.P.P.P.P.r.    . M =.6.6.6.6.Z     o J <.k.k.l.k.l.k.A.P.P.P.P.P.P.P.P.P.S.z.k.Y     O a.",
"P.P.P.P.K.d.w._ ( ( 0     $ ' *.6.6.6.6.C     % E Q 0.l.l.l.l.k.x.S.G.J.H.L.P.L.P.P.A.k.z.i.=     U ",
"P.P.P.N.U O               4 { ;.6.6.6.6.A     O P Q ^ u.l.k.k.l.k.k.z.x.x.c.m.m.Z.m.x.k.z.k.K     - ",
"P.P.s.-       . + X       p  .;.6.6.6.6.O..     G Q Q ^ q.l.l.k.l.k.k.k.k.k.k.k.l.k.k.k.g.0.t     - ",
"P.d.-     + C +.&.X.X     h  .;.6.6.6.6.:.$     q Q Q Q ~ 9.f.k.k.k.k.k.j.h.g.f.u.0.0.,.^ Y %     u ",
"F.u     # X.6.6.6.+..     v  .=.6.6.6.6.4.f     O L Q Q Q Q ~ >.7.8.8.7.,.>.~ ~ Q Q Q E E 7     & a.",
"s.O     S 6.6.6.6.+.    . b  .=.6.6.6.6.6.O.X     % J Q Q Q Q W E Q W Q Q Q Q Q Q Q Q L 8       _ L.",
"e.    + $.1.;.1.3.O..   . M  .%.6.6.6.6.6.6.D .     o x Q Q Q Q Q ! ! ! Q Q Q E E G 7 O       U D.P.",
")     + {  .{ ..o.m     X N  .@.6.6.6.6.6.6.4.} $     o 1 r J Y Y Y P J c e 7 = O           T D.P.P.",
"R     # '  .{ {  .p     # '  .o.4.6.6.6.6.6.6.6.$.<           o o O o                       t.P.P.P.",
"T     : [  .{ {  .4     ; ' {  .2.6.6.6.4.6.6.4.6.:.C > .                 . + $ 6 l S $     ` P.P.P.",
"T     : [  .{ {  .4     ; ' { { ;.6.6.6.6.6.6.6.6.6.6.2.+.F A Z C V V V S O.&.1.2.6.3.<     ( P.P.P.",
"T     : [ { { {  .i     # ' { { %.6.4.6.6.6.6.4.6.6.6.6.6.6.6.6.6.6.6.6.6.6.6.6.6.6.4.5     U P.P.P.",
"I     , {  .{ {  .p     + ' { { o.3.6.6.4.6.6.6.6.6.6.6.6.6.6.6.6.6.6.6.6.6.6.6.6.6.6.k     u K.P.P.",
"u     2 { { { {  .g     X B { { ..1.6.6.6.6.6.6.6.6.6.6.6.6.6.6.6.4.6.6.6.6.6.6.6.6.6.l     0 D.P.P.",
"0     3 { { { { { j     . N  .{ { *.6.6.6.6.6.6.6.6.4.6.6.6.6.6.6.6.6.4.6.6.6.6.6.6.3.d     9 D.P.P.",
"-     4  .{ { {  .v     . M  .{ { o.3.6.6.6.6.6.6.6.6.6.6.6.6.6.6.6.6.6.6.6.6.6.6.3.%.i     0 D.P.P.",
"9     4 { { { {  .v .   . M  .{ { { *.6.6.6.6.4.6.6.4.6.6.6.6.6.4.6.6.6.6.6.6.6.6.*. .4     u K.P.P.",
"y     , [ { { {  .b .   . b  .{ { { ..1.6.6.6.6.6.6.6.6.6.6.6.5.6.6.4.6.6.6.6.6.;. .{ 4     u L.P.P.",
"R     # '  .{ {  .b     . b  .{ { { { ..;.6.6.6.6.4.6.4.6.6.6.6.6.6.6.6.6.6.6.;.o.{ { ,     I L.P.P.",
"r.    . M  .{ {  .b     . b  .{ { { { { ..*.3.5.6.6.6.6.6.6.6.6.6.6.6.6.6.3.*...{ { ' ;     R P.P.P.",
"M.&     j  .{ {  .n .     v  .{ { { { { { { o.%.=.1.1.3.3.3.3.3.3.1.1.1.*.@. .{ {  .B X     ` P.P.P.",
"F.u     p { { {  .n .     v  .{ { { { { { { { { {  .....o.o.o.o.o..... .{ { { { {  .b .   . a.P.P.P.",
"P.`     # ] { {  .M .     j  .{ { { {  .{ { { { { {  .{ { { { { [ {  . .{ { { { {  .h .   & N.P.P.P.",
"P.M.O     p ] {  .N X     h  . .{ { { { { { { { {  . . . . . . . . . . .{  . .{ {  .p     0 D.P.P.P.",
"P.K.U     . # , 3 , .     h  .{ { { { { { { { { { B b n N n b b b v j j h s N { { [ ,     I L.P.P.P.",
"P.P.N.y                   h  .{ { { { {  .{  . .j + . . . .     .         . v  .{ ' +     _ P.P.P.P.",
"P.P.P.D.r.T 0 - & O       h  .{ { { { { { {  . .2                       + h [  . .n .     p.P.P.P.P.",
"P.P.P.P.P.L.F.V.B.a.&     h  .{ { { { { { {  .' :     9 ) _ T     . i j N { { {  .s     * N.P.P.P.P.",
"P.P.P.P.P.P.P.P.P.V.-     h { { { { { { { {  .' #     ) P.P.w.    X B  . .{ { { { 3     u K.P.P.P.P.",
"P.P.P.P.P.P.P.P.P.D.9     i { { { { { { { {  .' +     ` P.P.)     # '  .{ {  . .] #     ) P.P.P.P.P.",
"P.P.P.P.P.P.P.P.P.L.U     , { { { { { { { { { ' +     w.P.P.`     + B  .{  . . .M .     p.P.P.P.P.P.",
"P.P.P.P.P.P.P.P.P.P.`     + B { { { { {  . . .M .   o a.P.P.a.    . j ] [ ] ] ' i     - B.P.P.P.P.P.",
"P.P.P.P.P.P.P.P.P.P.s.o     g { { { { {  . .[ 4     - V.P.P.V.-     X # : : # + .     R L.P.P.P.P.P.",
"P.P.P.P.P.P.P.P.P.P.F.u     . p N ' ' B N v , .     T L.P.P.P.` O                   0 N.P.P.P.P.P.P.",
"P.P.P.P.P.P.P.P.P.P.P.d.0       . + X X X         0 M.P.P.P.P.L.s.) U y 0 y y u U ` B.P.P.P.P.P.P.P.",
"P.P.P.P.P.P.P.P.P.P.P.P.B.R O               o 9 ` V.P.P.P.P.P.P.P.P.L.K.F.F.K.K.L.P.P.P.P.P.P.P.P.P.",
"P.P.P.P.P.P.P.P.P.P.P.P.P.K.a.( I y 9 - y ( r.V.P.P.P.P.P.P.P.P.P.P.P.P.P.P.P.P.P.P.P.P.P.P.P.P.P.P."
};
